<?xml version="1.0" encoding="utf-8" standalone="no"?>
<!DOCTYPE svg PUBLIC "-//W3C//DTD SVG 1.1//EN"
  "http://www.w3.org/Graphics/SVG/1.1/DTD/svg11.dtd">
<svg xmlns:xlink="http://www.w3.org/1999/xlink" width="411.285625pt" height="310.86825pt" viewBox="0 0 411.285625 310.86825" xmlns="http://www.w3.org/2000/svg" version="1.1">
 <metadata>
  <rdf:RDF xmlns:dc="http://purl.org/dc/elements/1.1/" xmlns:cc="http://creativecommons.org/ns#" xmlns:rdf="http://www.w3.org/1999/02/22-rdf-syntax-ns#">
   <cc:Work>
    <dc:type rdf:resource="http://purl.org/dc/dcmitype/StillImage"/>
    <dc:date>2024-07-26T16:14:26.418952</dc:date>
    <dc:format>image/svg+xml</dc:format>
    <dc:creator>
     <cc:Agent>
      <dc:title>Matplotlib v3.8.4, https://matplotlib.org/</dc:title>
     </cc:Agent>
    </dc:creator>
   </cc:Work>
  </rdf:RDF>
 </metadata>
 <defs>
  <style type="text/css">*{stroke-linejoin: round; stroke-linecap: butt}</style>
 </defs>
 <g id="figure_1">
  <g id="patch_1">
   <path d="M 0 310.86825 
L 411.285625 310.86825 
L 411.285625 0 
L 0 0 
z
" style="fill: #ffffff"/>
  </g>
  <g id="axes_1">
   <g id="patch_2">
    <path d="M 46.965625 273.312 
L 404.085625 273.312 
L 404.085625 7.2 
L 46.965625 7.2 
z
" style="fill: #ffffff"/>
   </g>
   <g id="matplotlib.axis_1">
    <g id="xtick_1">
     <g id="line2d_1">
      <defs>
       <path id="m3a805cbc70" d="M 0 0 
L 0 3.5 
" style="stroke: #000000; stroke-width: 0.8"/>
      </defs>
      <g>
       <use xlink:href="#m3a805cbc70" x="60.718382" y="273.312" style="stroke: #000000; stroke-width: 0.8"/>
      </g>
     </g>
     <g id="text_1">
      <!-- 0 -->
      <g transform="translate(57.537132 287.910437) scale(0.1 -0.1)">
       <defs>
        <path id="DejaVuSans-30" d="M 2034 4250 
Q 1547 4250 1301 3770 
Q 1056 3291 1056 2328 
Q 1056 1369 1301 889 
Q 1547 409 2034 409 
Q 2525 409 2770 889 
Q 3016 1369 3016 2328 
Q 3016 3291 2770 3770 
Q 2525 4250 2034 4250 
z
M 2034 4750 
Q 2819 4750 3233 4129 
Q 3647 3509 3647 2328 
Q 3647 1150 3233 529 
Q 2819 -91 2034 -91 
Q 1250 -91 836 529 
Q 422 1150 422 2328 
Q 422 3509 836 4129 
Q 1250 4750 2034 4750 
z
" transform="scale(0.015625)"/>
       </defs>
       <use xlink:href="#DejaVuSans-30"/>
      </g>
     </g>
    </g>
    <g id="xtick_2">
     <g id="line2d_2">
      <g>
       <use xlink:href="#m3a805cbc70" x="103.651336" y="273.312" style="stroke: #000000; stroke-width: 0.8"/>
      </g>
     </g>
     <g id="text_2">
      <!-- 500 -->
      <g transform="translate(94.107586 287.910437) scale(0.1 -0.1)">
       <defs>
        <path id="DejaVuSans-35" d="M 691 4666 
L 3169 4666 
L 3169 4134 
L 1269 4134 
L 1269 2991 
Q 1406 3038 1543 3061 
Q 1681 3084 1819 3084 
Q 2600 3084 3056 2656 
Q 3513 2228 3513 1497 
Q 3513 744 3044 326 
Q 2575 -91 1722 -91 
Q 1428 -91 1123 -41 
Q 819 9 494 109 
L 494 744 
Q 775 591 1075 516 
Q 1375 441 1709 441 
Q 2250 441 2565 725 
Q 2881 1009 2881 1497 
Q 2881 1984 2565 2268 
Q 2250 2553 1709 2553 
Q 1456 2553 1204 2497 
Q 953 2441 691 2322 
L 691 4666 
z
" transform="scale(0.015625)"/>
       </defs>
       <use xlink:href="#DejaVuSans-35"/>
       <use xlink:href="#DejaVuSans-30" x="63.623047"/>
       <use xlink:href="#DejaVuSans-30" x="127.246094"/>
      </g>
     </g>
    </g>
    <g id="xtick_3">
     <g id="line2d_3">
      <g>
       <use xlink:href="#m3a805cbc70" x="146.584291" y="273.312" style="stroke: #000000; stroke-width: 0.8"/>
      </g>
     </g>
     <g id="text_3">
      <!-- 1000 -->
      <g transform="translate(133.859291 287.910437) scale(0.1 -0.1)">
       <defs>
        <path id="DejaVuSans-31" d="M 794 531 
L 1825 531 
L 1825 4091 
L 703 3866 
L 703 4441 
L 1819 4666 
L 2450 4666 
L 2450 531 
L 3481 531 
L 3481 0 
L 794 0 
L 794 531 
z
" transform="scale(0.015625)"/>
       </defs>
       <use xlink:href="#DejaVuSans-31"/>
       <use xlink:href="#DejaVuSans-30" x="63.623047"/>
       <use xlink:href="#DejaVuSans-30" x="127.246094"/>
       <use xlink:href="#DejaVuSans-30" x="190.869141"/>
      </g>
     </g>
    </g>
    <g id="xtick_4">
     <g id="line2d_4">
      <g>
       <use xlink:href="#m3a805cbc70" x="189.517245" y="273.312" style="stroke: #000000; stroke-width: 0.8"/>
      </g>
     </g>
     <g id="text_4">
      <!-- 1500 -->
      <g transform="translate(176.792245 287.910437) scale(0.1 -0.1)">
       <use xlink:href="#DejaVuSans-31"/>
       <use xlink:href="#DejaVuSans-35" x="63.623047"/>
       <use xlink:href="#DejaVuSans-30" x="127.246094"/>
       <use xlink:href="#DejaVuSans-30" x="190.869141"/>
      </g>
     </g>
    </g>
    <g id="xtick_5">
     <g id="line2d_5">
      <g>
       <use xlink:href="#m3a805cbc70" x="232.4502" y="273.312" style="stroke: #000000; stroke-width: 0.8"/>
      </g>
     </g>
     <g id="text_5">
      <!-- 2000 -->
      <g transform="translate(219.7252 287.910437) scale(0.1 -0.1)">
       <defs>
        <path id="DejaVuSans-32" d="M 1228 531 
L 3431 531 
L 3431 0 
L 469 0 
L 469 531 
Q 828 903 1448 1529 
Q 2069 2156 2228 2338 
Q 2531 2678 2651 2914 
Q 2772 3150 2772 3378 
Q 2772 3750 2511 3984 
Q 2250 4219 1831 4219 
Q 1534 4219 1204 4116 
Q 875 4013 500 3803 
L 500 4441 
Q 881 4594 1212 4672 
Q 1544 4750 1819 4750 
Q 2544 4750 2975 4387 
Q 3406 4025 3406 3419 
Q 3406 3131 3298 2873 
Q 3191 2616 2906 2266 
Q 2828 2175 2409 1742 
Q 1991 1309 1228 531 
z
" transform="scale(0.015625)"/>
       </defs>
       <use xlink:href="#DejaVuSans-32"/>
       <use xlink:href="#DejaVuSans-30" x="63.623047"/>
       <use xlink:href="#DejaVuSans-30" x="127.246094"/>
       <use xlink:href="#DejaVuSans-30" x="190.869141"/>
      </g>
     </g>
    </g>
    <g id="xtick_6">
     <g id="line2d_6">
      <g>
       <use xlink:href="#m3a805cbc70" x="275.383154" y="273.312" style="stroke: #000000; stroke-width: 0.8"/>
      </g>
     </g>
     <g id="text_6">
      <!-- 2500 -->
      <g transform="translate(262.658154 287.910437) scale(0.1 -0.1)">
       <use xlink:href="#DejaVuSans-32"/>
       <use xlink:href="#DejaVuSans-35" x="63.623047"/>
       <use xlink:href="#DejaVuSans-30" x="127.246094"/>
       <use xlink:href="#DejaVuSans-30" x="190.869141"/>
      </g>
     </g>
    </g>
    <g id="xtick_7">
     <g id="line2d_7">
      <g>
       <use xlink:href="#m3a805cbc70" x="318.316109" y="273.312" style="stroke: #000000; stroke-width: 0.8"/>
      </g>
     </g>
     <g id="text_7">
      <!-- 3000 -->
      <g transform="translate(305.591109 287.910437) scale(0.1 -0.1)">
       <defs>
        <path id="DejaVuSans-33" d="M 2597 2516 
Q 3050 2419 3304 2112 
Q 3559 1806 3559 1356 
Q 3559 666 3084 287 
Q 2609 -91 1734 -91 
Q 1441 -91 1130 -33 
Q 819 25 488 141 
L 488 750 
Q 750 597 1062 519 
Q 1375 441 1716 441 
Q 2309 441 2620 675 
Q 2931 909 2931 1356 
Q 2931 1769 2642 2001 
Q 2353 2234 1838 2234 
L 1294 2234 
L 1294 2753 
L 1863 2753 
Q 2328 2753 2575 2939 
Q 2822 3125 2822 3475 
Q 2822 3834 2567 4026 
Q 2313 4219 1838 4219 
Q 1578 4219 1281 4162 
Q 984 4106 628 3988 
L 628 4550 
Q 988 4650 1302 4700 
Q 1616 4750 1894 4750 
Q 2613 4750 3031 4423 
Q 3450 4097 3450 3541 
Q 3450 3153 3228 2886 
Q 3006 2619 2597 2516 
z
" transform="scale(0.015625)"/>
       </defs>
       <use xlink:href="#DejaVuSans-33"/>
       <use xlink:href="#DejaVuSans-30" x="63.623047"/>
       <use xlink:href="#DejaVuSans-30" x="127.246094"/>
       <use xlink:href="#DejaVuSans-30" x="190.869141"/>
      </g>
     </g>
    </g>
    <g id="xtick_8">
     <g id="line2d_8">
      <g>
       <use xlink:href="#m3a805cbc70" x="361.249063" y="273.312" style="stroke: #000000; stroke-width: 0.8"/>
      </g>
     </g>
     <g id="text_8">
      <!-- 3500 -->
      <g transform="translate(348.524063 287.910437) scale(0.1 -0.1)">
       <use xlink:href="#DejaVuSans-33"/>
       <use xlink:href="#DejaVuSans-35" x="63.623047"/>
       <use xlink:href="#DejaVuSans-30" x="127.246094"/>
       <use xlink:href="#DejaVuSans-30" x="190.869141"/>
      </g>
     </g>
    </g>
    <g id="text_9">
     <!-- Raman Shift (1/cm) -->
     <g transform="translate(177.067031 301.588562) scale(0.1 -0.1)">
      <defs>
       <path id="DejaVuSans-52" d="M 2841 2188 
Q 3044 2119 3236 1894 
Q 3428 1669 3622 1275 
L 4263 0 
L 3584 0 
L 2988 1197 
Q 2756 1666 2539 1819 
Q 2322 1972 1947 1972 
L 1259 1972 
L 1259 0 
L 628 0 
L 628 4666 
L 2053 4666 
Q 2853 4666 3247 4331 
Q 3641 3997 3641 3322 
Q 3641 2881 3436 2590 
Q 3231 2300 2841 2188 
z
M 1259 4147 
L 1259 2491 
L 2053 2491 
Q 2509 2491 2742 2702 
Q 2975 2913 2975 3322 
Q 2975 3731 2742 3939 
Q 2509 4147 2053 4147 
L 1259 4147 
z
" transform="scale(0.015625)"/>
       <path id="DejaVuSans-61" d="M 2194 1759 
Q 1497 1759 1228 1600 
Q 959 1441 959 1056 
Q 959 750 1161 570 
Q 1363 391 1709 391 
Q 2188 391 2477 730 
Q 2766 1069 2766 1631 
L 2766 1759 
L 2194 1759 
z
M 3341 1997 
L 3341 0 
L 2766 0 
L 2766 531 
Q 2569 213 2275 61 
Q 1981 -91 1556 -91 
Q 1019 -91 701 211 
Q 384 513 384 1019 
Q 384 1609 779 1909 
Q 1175 2209 1959 2209 
L 2766 2209 
L 2766 2266 
Q 2766 2663 2505 2880 
Q 2244 3097 1772 3097 
Q 1472 3097 1187 3025 
Q 903 2953 641 2809 
L 641 3341 
Q 956 3463 1253 3523 
Q 1550 3584 1831 3584 
Q 2591 3584 2966 3190 
Q 3341 2797 3341 1997 
z
" transform="scale(0.015625)"/>
       <path id="DejaVuSans-6d" d="M 3328 2828 
Q 3544 3216 3844 3400 
Q 4144 3584 4550 3584 
Q 5097 3584 5394 3201 
Q 5691 2819 5691 2113 
L 5691 0 
L 5113 0 
L 5113 2094 
Q 5113 2597 4934 2840 
Q 4756 3084 4391 3084 
Q 3944 3084 3684 2787 
Q 3425 2491 3425 1978 
L 3425 0 
L 2847 0 
L 2847 2094 
Q 2847 2600 2669 2842 
Q 2491 3084 2119 3084 
Q 1678 3084 1418 2786 
Q 1159 2488 1159 1978 
L 1159 0 
L 581 0 
L 581 3500 
L 1159 3500 
L 1159 2956 
Q 1356 3278 1631 3431 
Q 1906 3584 2284 3584 
Q 2666 3584 2933 3390 
Q 3200 3197 3328 2828 
z
" transform="scale(0.015625)"/>
       <path id="DejaVuSans-6e" d="M 3513 2113 
L 3513 0 
L 2938 0 
L 2938 2094 
Q 2938 2591 2744 2837 
Q 2550 3084 2163 3084 
Q 1697 3084 1428 2787 
Q 1159 2491 1159 1978 
L 1159 0 
L 581 0 
L 581 3500 
L 1159 3500 
L 1159 2956 
Q 1366 3272 1645 3428 
Q 1925 3584 2291 3584 
Q 2894 3584 3203 3211 
Q 3513 2838 3513 2113 
z
" transform="scale(0.015625)"/>
       <path id="DejaVuSans-20" transform="scale(0.015625)"/>
       <path id="DejaVuSans-53" d="M 3425 4513 
L 3425 3897 
Q 3066 4069 2747 4153 
Q 2428 4238 2131 4238 
Q 1616 4238 1336 4038 
Q 1056 3838 1056 3469 
Q 1056 3159 1242 3001 
Q 1428 2844 1947 2747 
L 2328 2669 
Q 3034 2534 3370 2195 
Q 3706 1856 3706 1288 
Q 3706 609 3251 259 
Q 2797 -91 1919 -91 
Q 1588 -91 1214 -16 
Q 841 59 441 206 
L 441 856 
Q 825 641 1194 531 
Q 1563 422 1919 422 
Q 2459 422 2753 634 
Q 3047 847 3047 1241 
Q 3047 1584 2836 1778 
Q 2625 1972 2144 2069 
L 1759 2144 
Q 1053 2284 737 2584 
Q 422 2884 422 3419 
Q 422 4038 858 4394 
Q 1294 4750 2059 4750 
Q 2388 4750 2728 4690 
Q 3069 4631 3425 4513 
z
" transform="scale(0.015625)"/>
       <path id="DejaVuSans-68" d="M 3513 2113 
L 3513 0 
L 2938 0 
L 2938 2094 
Q 2938 2591 2744 2837 
Q 2550 3084 2163 3084 
Q 1697 3084 1428 2787 
Q 1159 2491 1159 1978 
L 1159 0 
L 581 0 
L 581 4863 
L 1159 4863 
L 1159 2956 
Q 1366 3272 1645 3428 
Q 1925 3584 2291 3584 
Q 2894 3584 3203 3211 
Q 3513 2838 3513 2113 
z
" transform="scale(0.015625)"/>
       <path id="DejaVuSans-69" d="M 603 3500 
L 1178 3500 
L 1178 0 
L 603 0 
L 603 3500 
z
M 603 4863 
L 1178 4863 
L 1178 4134 
L 603 4134 
L 603 4863 
z
" transform="scale(0.015625)"/>
       <path id="DejaVuSans-66" d="M 2375 4863 
L 2375 4384 
L 1825 4384 
Q 1516 4384 1395 4259 
Q 1275 4134 1275 3809 
L 1275 3500 
L 2222 3500 
L 2222 3053 
L 1275 3053 
L 1275 0 
L 697 0 
L 697 3053 
L 147 3053 
L 147 3500 
L 697 3500 
L 697 3744 
Q 697 4328 969 4595 
Q 1241 4863 1831 4863 
L 2375 4863 
z
" transform="scale(0.015625)"/>
       <path id="DejaVuSans-74" d="M 1172 4494 
L 1172 3500 
L 2356 3500 
L 2356 3053 
L 1172 3053 
L 1172 1153 
Q 1172 725 1289 603 
Q 1406 481 1766 481 
L 2356 481 
L 2356 0 
L 1766 0 
Q 1100 0 847 248 
Q 594 497 594 1153 
L 594 3053 
L 172 3053 
L 172 3500 
L 594 3500 
L 594 4494 
L 1172 4494 
z
" transform="scale(0.015625)"/>
       <path id="DejaVuSans-28" d="M 1984 4856 
Q 1566 4138 1362 3434 
Q 1159 2731 1159 2009 
Q 1159 1288 1364 580 
Q 1569 -128 1984 -844 
L 1484 -844 
Q 1016 -109 783 600 
Q 550 1309 550 2009 
Q 550 2706 781 3412 
Q 1013 4119 1484 4856 
L 1984 4856 
z
" transform="scale(0.015625)"/>
       <path id="DejaVuSans-2f" d="M 1625 4666 
L 2156 4666 
L 531 -594 
L 0 -594 
L 1625 4666 
z
" transform="scale(0.015625)"/>
       <path id="DejaVuSans-63" d="M 3122 3366 
L 3122 2828 
Q 2878 2963 2633 3030 
Q 2388 3097 2138 3097 
Q 1578 3097 1268 2742 
Q 959 2388 959 1747 
Q 959 1106 1268 751 
Q 1578 397 2138 397 
Q 2388 397 2633 464 
Q 2878 531 3122 666 
L 3122 134 
Q 2881 22 2623 -34 
Q 2366 -91 2075 -91 
Q 1284 -91 818 406 
Q 353 903 353 1747 
Q 353 2603 823 3093 
Q 1294 3584 2113 3584 
Q 2378 3584 2631 3529 
Q 2884 3475 3122 3366 
z
" transform="scale(0.015625)"/>
       <path id="DejaVuSans-29" d="M 513 4856 
L 1013 4856 
Q 1481 4119 1714 3412 
Q 1947 2706 1947 2009 
Q 1947 1309 1714 600 
Q 1481 -109 1013 -844 
L 513 -844 
Q 928 -128 1133 580 
Q 1338 1288 1338 2009 
Q 1338 2731 1133 3434 
Q 928 4138 513 4856 
z
" transform="scale(0.015625)"/>
      </defs>
      <use xlink:href="#DejaVuSans-52"/>
      <use xlink:href="#DejaVuSans-61" x="67.232422"/>
      <use xlink:href="#DejaVuSans-6d" x="128.511719"/>
      <use xlink:href="#DejaVuSans-61" x="225.923828"/>
      <use xlink:href="#DejaVuSans-6e" x="287.203125"/>
      <use xlink:href="#DejaVuSans-20" x="350.582031"/>
      <use xlink:href="#DejaVuSans-53" x="382.369141"/>
      <use xlink:href="#DejaVuSans-68" x="445.845703"/>
      <use xlink:href="#DejaVuSans-69" x="509.224609"/>
      <use xlink:href="#DejaVuSans-66" x="537.007812"/>
      <use xlink:href="#DejaVuSans-74" x="570.462891"/>
      <use xlink:href="#DejaVuSans-20" x="609.671875"/>
      <use xlink:href="#DejaVuSans-28" x="641.458984"/>
      <use xlink:href="#DejaVuSans-31" x="680.472656"/>
      <use xlink:href="#DejaVuSans-2f" x="744.095703"/>
      <use xlink:href="#DejaVuSans-63" x="777.787109"/>
      <use xlink:href="#DejaVuSans-6d" x="832.767578"/>
      <use xlink:href="#DejaVuSans-29" x="930.179688"/>
     </g>
    </g>
   </g>
   <g id="matplotlib.axis_2">
    <g id="ytick_1">
     <g id="line2d_9">
      <defs>
       <path id="ma52c3b34b8" d="M 0 0 
L -3.5 0 
" style="stroke: #000000; stroke-width: 0.8"/>
      </defs>
      <g>
       <use xlink:href="#ma52c3b34b8" x="46.965625" y="257.276283" style="stroke: #000000; stroke-width: 0.8"/>
      </g>
     </g>
     <g id="text_10">
      <!-- 0 -->
      <g transform="translate(33.603125 261.075501) scale(0.1 -0.1)">
       <use xlink:href="#DejaVuSans-30"/>
      </g>
     </g>
    </g>
    <g id="ytick_2">
     <g id="line2d_10">
      <g>
       <use xlink:href="#ma52c3b34b8" x="46.965625" y="199.95346" style="stroke: #000000; stroke-width: 0.8"/>
      </g>
     </g>
     <g id="text_11">
      <!-- 50 -->
      <g transform="translate(27.240625 203.752679) scale(0.1 -0.1)">
       <use xlink:href="#DejaVuSans-35"/>
       <use xlink:href="#DejaVuSans-30" x="63.623047"/>
      </g>
     </g>
    </g>
    <g id="ytick_3">
     <g id="line2d_11">
      <g>
       <use xlink:href="#ma52c3b34b8" x="46.965625" y="142.630638" style="stroke: #000000; stroke-width: 0.8"/>
      </g>
     </g>
     <g id="text_12">
      <!-- 100 -->
      <g transform="translate(20.878125 146.429857) scale(0.1 -0.1)">
       <use xlink:href="#DejaVuSans-31"/>
       <use xlink:href="#DejaVuSans-30" x="63.623047"/>
       <use xlink:href="#DejaVuSans-30" x="127.246094"/>
      </g>
     </g>
    </g>
    <g id="ytick_4">
     <g id="line2d_12">
      <g>
       <use xlink:href="#ma52c3b34b8" x="46.965625" y="85.307816" style="stroke: #000000; stroke-width: 0.8"/>
      </g>
     </g>
     <g id="text_13">
      <!-- 150 -->
      <g transform="translate(20.878125 89.107034) scale(0.1 -0.1)">
       <use xlink:href="#DejaVuSans-31"/>
       <use xlink:href="#DejaVuSans-35" x="63.623047"/>
       <use xlink:href="#DejaVuSans-30" x="127.246094"/>
      </g>
     </g>
    </g>
    <g id="ytick_5">
     <g id="line2d_13">
      <g>
       <use xlink:href="#ma52c3b34b8" x="46.965625" y="27.984993" style="stroke: #000000; stroke-width: 0.8"/>
      </g>
     </g>
     <g id="text_14">
      <!-- 200 -->
      <g transform="translate(20.878125 31.784212) scale(0.1 -0.1)">
       <use xlink:href="#DejaVuSans-32"/>
       <use xlink:href="#DejaVuSans-30" x="63.623047"/>
       <use xlink:href="#DejaVuSans-30" x="127.246094"/>
      </g>
     </g>
    </g>
    <g id="text_15">
     <!-- Intensity (a.u) -->
     <g transform="translate(14.798438 175.331) rotate(-90) scale(0.1 -0.1)">
      <defs>
       <path id="DejaVuSans-49" d="M 628 4666 
L 1259 4666 
L 1259 0 
L 628 0 
L 628 4666 
z
" transform="scale(0.015625)"/>
       <path id="DejaVuSans-65" d="M 3597 1894 
L 3597 1613 
L 953 1613 
Q 991 1019 1311 708 
Q 1631 397 2203 397 
Q 2534 397 2845 478 
Q 3156 559 3463 722 
L 3463 178 
Q 3153 47 2828 -22 
Q 2503 -91 2169 -91 
Q 1331 -91 842 396 
Q 353 884 353 1716 
Q 353 2575 817 3079 
Q 1281 3584 2069 3584 
Q 2775 3584 3186 3129 
Q 3597 2675 3597 1894 
z
M 3022 2063 
Q 3016 2534 2758 2815 
Q 2500 3097 2075 3097 
Q 1594 3097 1305 2825 
Q 1016 2553 972 2059 
L 3022 2063 
z
" transform="scale(0.015625)"/>
       <path id="DejaVuSans-73" d="M 2834 3397 
L 2834 2853 
Q 2591 2978 2328 3040 
Q 2066 3103 1784 3103 
Q 1356 3103 1142 2972 
Q 928 2841 928 2578 
Q 928 2378 1081 2264 
Q 1234 2150 1697 2047 
L 1894 2003 
Q 2506 1872 2764 1633 
Q 3022 1394 3022 966 
Q 3022 478 2636 193 
Q 2250 -91 1575 -91 
Q 1294 -91 989 -36 
Q 684 19 347 128 
L 347 722 
Q 666 556 975 473 
Q 1284 391 1588 391 
Q 1994 391 2212 530 
Q 2431 669 2431 922 
Q 2431 1156 2273 1281 
Q 2116 1406 1581 1522 
L 1381 1569 
Q 847 1681 609 1914 
Q 372 2147 372 2553 
Q 372 3047 722 3315 
Q 1072 3584 1716 3584 
Q 2034 3584 2315 3537 
Q 2597 3491 2834 3397 
z
" transform="scale(0.015625)"/>
       <path id="DejaVuSans-79" d="M 2059 -325 
Q 1816 -950 1584 -1140 
Q 1353 -1331 966 -1331 
L 506 -1331 
L 506 -850 
L 844 -850 
Q 1081 -850 1212 -737 
Q 1344 -625 1503 -206 
L 1606 56 
L 191 3500 
L 800 3500 
L 1894 763 
L 2988 3500 
L 3597 3500 
L 2059 -325 
z
" transform="scale(0.015625)"/>
       <path id="DejaVuSans-2e" d="M 684 794 
L 1344 794 
L 1344 0 
L 684 0 
L 684 794 
z
" transform="scale(0.015625)"/>
       <path id="DejaVuSans-75" d="M 544 1381 
L 544 3500 
L 1119 3500 
L 1119 1403 
Q 1119 906 1312 657 
Q 1506 409 1894 409 
Q 2359 409 2629 706 
Q 2900 1003 2900 1516 
L 2900 3500 
L 3475 3500 
L 3475 0 
L 2900 0 
L 2900 538 
Q 2691 219 2414 64 
Q 2138 -91 1772 -91 
Q 1169 -91 856 284 
Q 544 659 544 1381 
z
M 1991 3584 
L 1991 3584 
z
" transform="scale(0.015625)"/>
      </defs>
      <use xlink:href="#DejaVuSans-49"/>
      <use xlink:href="#DejaVuSans-6e" x="29.492188"/>
      <use xlink:href="#DejaVuSans-74" x="92.871094"/>
      <use xlink:href="#DejaVuSans-65" x="132.080078"/>
      <use xlink:href="#DejaVuSans-6e" x="193.603516"/>
      <use xlink:href="#DejaVuSans-73" x="256.982422"/>
      <use xlink:href="#DejaVuSans-69" x="309.082031"/>
      <use xlink:href="#DejaVuSans-74" x="336.865234"/>
      <use xlink:href="#DejaVuSans-79" x="376.074219"/>
      <use xlink:href="#DejaVuSans-20" x="435.253906"/>
      <use xlink:href="#DejaVuSans-28" x="467.041016"/>
      <use xlink:href="#DejaVuSans-61" x="506.054688"/>
      <use xlink:href="#DejaVuSans-2e" x="567.333984"/>
      <use xlink:href="#DejaVuSans-75" x="599.121094"/>
      <use xlink:href="#DejaVuSans-29" x="662.5"/>
     </g>
    </g>
   </g>
   <g id="line2d_14">
    <path d="M 63.198352 258.029765 
L 63.450025 256.965667 
L 63.701612 257.674891 
L 63.953114 257.995267 
L 64.455859 259.419594 
L 64.707102 258.579414 
L 64.95826 258.359972 
L 65.460318 261.216 
L 65.711218 260.35046 
L 66.212769 261.037497 
L 66.463412 257.140148 
L 66.713977 248.948515 
L 67.214842 220.020805 
L 67.715363 175.678965 
L 68.21554 139.920415 
L 68.465505 133.835024 
L 68.715383 134.315389 
L 68.965184 139.985763 
L 69.214891 142.78369 
L 69.464511 148.213652 
L 69.714038 149.931961 
L 70.212833 157.750564 
L 70.71137 169.758205 
L 70.960467 169.509195 
L 71.45849 179.205923 
L 71.707329 179.598355 
L 71.956083 182.625344 
L 72.20475 189.165764 
L 72.453418 190.201129 
L 72.950324 196.507786 
L 73.198734 198.148938 
L 73.446972 205.902652 
L 73.695125 205.973503 
L 73.943277 210.896043 
L 74.687048 216.521476 
L 74.934857 221.323638 
L 75.182494 219.971966 
L 75.677597 226.512729 
L 76.172356 225.59694 
L 76.41965 229.551182 
L 76.666858 230.676429 
L 77.16093 231.395258 
L 77.654745 233.791581 
L 77.901438 238.160153 
L 78.148131 238.056743 
L 78.394738 237.53201 
L 78.641259 237.617879 
L 79.134043 239.392135 
L 79.380307 239.246191 
L 79.872576 239.830884 
L 80.118582 242.892725 
L 80.364502 240.947647 
L 80.610336 245.422038 
L 80.856084 242.138013 
L 81.101746 243.591949 
L 81.347323 243.440158 
L 81.592813 244.625136 
L 81.838304 245.083489 
L 82.083623 244.127115 
L 82.328856 245.119144 
L 82.574089 243.206167 
L 82.81915 245.993088 
L 83.064212 244.843192 
L 83.309101 247.590675 
L 83.553991 247.853534 
L 84.043427 246.313958 
L 84.532519 247.829287 
L 84.776979 246.598933 
L 85.021267 247.890267 
L 85.509759 248.178383 
L 85.753875 247.022307 
L 85.997906 248.464366 
L 86.241851 247.613031 
L 86.729484 247.131645 
L 86.973171 248.953869 
L 87.216773 248.864835 
L 87.460289 247.89632 
L 87.703718 249.25854 
L 87.947148 249.817666 
L 88.190406 249.612084 
L 88.433579 250.781767 
L 88.676751 250.68989 
L 88.919751 252.622931 
L 89.162752 253.523747 
L 89.64841 251.120339 
L 89.891067 251.408352 
L 90.376295 253.511709 
L 90.61878 253.569158 
L 90.861094 254.42868 
L 91.103407 254.3324 
L 91.587777 255.705362 
L 92.071803 254.783841 
L 92.313687 255.25868 
L 92.555572 255.159913 
L 93.038911 255.954751 
L 93.280538 255.854791 
L 93.521992 255.219391 
L 93.763362 254.010384 
L 94.246014 253.540153 
L 94.487125 252.177097 
L 94.728237 253.756237 
L 94.969262 253.347789 
L 95.210116 254.620448 
L 95.691738 253.304866 
L 95.93242 254.423544 
L 96.173017 253.745667 
L 96.413527 254.137457 
L 96.654037 254.070309 
L 96.894376 254.499565 
L 97.134629 255.42526 
L 97.374882 254.630915 
L 97.855044 255.44859 
L 98.094953 254.614922 
L 98.334863 255.385936 
L 98.5746 254.895414 
L 98.814338 255.245564 
L 99.293555 256.785694 
L 99.533035 255.415183 
L 100.25096 256.957271 
L 100.490097 256.731743 
L 100.729233 257.155542 
L 100.968198 257.234998 
L 101.207077 256.74091 
L 101.445956 257.20183 
L 101.684749 255.828033 
L 101.923371 258.848636 
L 102.161992 257.244864 
L 102.400527 258.048308 
L 102.638977 257.246299 
L 102.877341 257.32292 
L 103.115619 256.214495 
L 103.353811 256.481481 
L 103.591917 257.741681 
L 103.829937 257.587563 
L 104.067872 256.324844 
L 104.305806 257.048971 
L 104.543569 256.626258 
L 104.781332 255.477103 
L 105.256513 257.648895 
L 105.494019 255.275831 
L 105.731438 256.685666 
L 105.968771 254.693958 
L 106.206019 255.338737 
L 106.44318 255.257109 
L 106.680256 255.327926 
L 107.391054 254.582913 
L 107.627872 255.07269 
L 107.864519 256.249937 
L 108.101165 254.369591 
L 108.337726 256.425047 
L 108.574115 254.200076 
L 108.810503 254.382225 
L 109.046806 255.213693 
L 109.283024 254.707257 
L 109.519241 255.996562 
L 109.755286 255.833272 
L 109.991246 256.204663 
L 110.227205 255.12349 
L 110.698781 257.469341 
L 111.170013 255.877503 
L 111.405543 256.131925 
L 111.640987 256.691648 
L 111.876346 256.219218 
L 112.346891 256.304902 
L 112.581992 257.130597 
L 112.817093 256.656487 
L 113.052022 256.869907 
L 113.286951 256.547922 
L 113.521708 257.333731 
L 113.756466 256.858047 
L 113.991137 256.840519 
L 114.225723 257.510451 
L 114.460223 256.345626 
L 114.694637 256.976513 
L 114.929051 258.333032 
L 115.397535 256.45895 
L 115.631605 258.349232 
L 116.09966 256.357872 
L 116.333559 257.329638 
L 116.567372 257.498381 
L 116.801099 258.125943 
L 117.03474 257.008002 
L 117.501765 258.032318 
L 117.735234 256.74105 
L 117.968618 257.59435 
L 118.20183 257.500129 
L 118.668167 257.146795 
L 118.901207 258.866934 
L 119.134162 256.437993 
L 119.36703 256.647145 
L 119.599898 257.581335 
L 119.832595 257.836285 
L 120.065206 256.911927 
L 120.297816 258.023466 
L 120.530341 257.10782 
L 120.76278 257.417071 
L 120.995134 257.955661 
L 121.227401 257.804343 
L 121.459582 256.657467 
L 121.691678 256.846362 
L 121.923773 257.415671 
L 122.387621 256.715056 
L 122.619373 257.164919 
L 122.851125 257.192978 
L 123.082791 256.340693 
L 123.545952 257.077836 
L 123.777361 257.979488 
L 124.008683 258.001005 
L 124.240006 256.034166 
L 124.471157 256.970531 
L 124.702308 256.147879 
L 124.933373 257.043794 
L 125.164353 257.327294 
L 125.395246 255.890091 
L 125.626054 256.82124 
L 126.087497 255.2413 
L 126.318133 256.628217 
L 126.548597 254.613099 
L 126.779061 255.425042 
L 127.009439 255.166103 
L 127.239732 257.084624 
L 127.469938 256.633011 
L 127.700145 255.836631 
L 128.160214 257.872042 
L 128.390077 258.334536 
L 128.849718 256.505797 
L 129.079409 256.660405 
L 129.538534 256.43257 
L 129.768053 255.935467 
L 129.997401 256.469551 
L 130.226749 254.366163 
L 130.685187 251.915349 
L 130.914277 252.370538 
L 131.143282 253.398313 
L 131.3722 252.858676 
L 131.601119 253.006317 
L 131.829866 253.573744 
L 132.058612 253.070622 
L 132.287273 252.184755 
L 132.515848 253.476616 
L 132.744338 252.666072 
L 132.972741 252.581085 
L 133.201058 252.266314 
L 133.429376 250.651656 
L 133.657522 249.991905 
L 133.885667 247.573742 
L 134.113727 246.721833 
L 134.341701 247.51275 
L 134.569589 247.806335 
L 135.025194 248.965276 
L 135.252824 248.722434 
L 135.480455 249.128703 
L 135.707999 248.770264 
L 135.935458 249.366719 
L 136.162831 247.975529 
L 136.390118 250.863957 
L 136.617319 249.892645 
L 136.844521 252.245632 
L 137.071636 252.878476 
L 137.525523 253.168346 
L 137.752381 253.245732 
L 137.979239 253.571153 
L 138.205925 253.590356 
L 138.659125 253.933227 
L 139.33841 249.820326 
L 139.564667 249.64595 
L 139.790838 248.286493 
L 140.017008 249.563451 
L 140.469006 248.256479 
L 140.69492 249.952616 
L 140.920747 248.667576 
L 141.37223 248.69493 
L 141.5978 251.039135 
L 141.823369 251.319352 
L 142.048853 251.866682 
L 142.274251 250.999674 
L 142.499564 252.46339 
L 142.72479 250.754872 
L 142.950016 253.402475 
L 143.400125 251.244649 
L 143.625094 254.235101 
L 144.299485 251.357415 
L 144.524196 252.320954 
L 144.748821 252.634441 
L 145.197728 254.903634 
L 145.422096 255.101386 
L 145.646463 255.910211 
L 145.870659 254.960773 
L 146.094855 256.87715 
L 146.318879 254.130842 
L 146.542903 252.836389 
L 146.767185 250.586193 
L 146.990436 249.711344 
L 147.214546 250.211933 
L 147.438656 251.743988 
L 147.661908 255.10995 
L 147.885159 254.615862 
L 148.109269 254.465286 
L 148.332521 255.116955 
L 148.779023 250.381138 
L 149.002275 251.413809 
L 149.225526 250.229714 
L 149.448777 248.204487 
L 149.67117 249.923989 
L 150.117673 249.387539 
L 150.340066 251.411676 
L 150.562458 252.250814 
L 150.78571 250.834848 
L 151.230495 253.772437 
L 151.452888 253.463673 
L 151.897673 254.220758 
L 152.120066 253.566957 
L 152.563993 254.856927 
L 152.786385 254.163871 
L 153.007919 255.534001 
L 153.230312 254.725555 
L 153.451846 255.216032 
L 153.67338 254.712565 
L 153.894914 254.590846 
L 154.116448 253.62804 
L 154.337982 253.276353 
L 154.559516 254.338213 
L 155.002584 251.989662 
L 155.665469 254.29185 
L 155.887003 253.134972 
L 156.107679 254.461744 
L 156.328354 256.514194 
L 156.549029 255.700111 
L 156.769705 255.611777 
L 156.99038 256.860566 
L 157.211056 257.344647 
L 157.431731 256.834781 
L 157.652406 258.693853 
L 157.873082 258.068496 
L 158.313574 258.651033 
L 158.533391 258.100928 
L 158.753207 258.773348 
L 158.973883 258.324985 
L 159.193699 258.682377 
L 159.413516 258.045823 
L 159.85315 257.497611 
L 160.072966 258.732443 
L 160.511741 256.080036 
L 160.731558 255.632276 
L 160.950516 253.808332 
L 161.169474 255.308746 
L 161.389291 254.515868 
L 161.608249 254.29584 
L 161.827207 254.648685 
L 162.046165 256.56797 
L 162.265123 255.123948 
L 162.484081 254.673173 
L 162.703039 253.572346 
L 162.921997 253.617585 
L 163.140955 252.516046 
L 163.359055 253.745208 
L 163.578013 253.369033 
L 163.796112 252.533885 
L 164.01507 252.195142 
L 164.23317 248.837091 
L 164.451269 248.994419 
L 165.105567 250.763653 
L 165.323667 248.89415 
L 165.541766 249.775786 
L 165.759865 248.593434 
L 165.977106 248.060412 
L 166.195206 246.915561 
L 166.412446 245.082457 
L 166.630546 241.835119 
L 166.847787 242.370629 
L 167.065027 241.49187 
L 167.283127 239.810248 
L 167.500367 239.503915 
L 167.717608 240.534923 
L 168.151231 238.239144 
L 168.368472 239.612828 
L 168.585713 239.304775 
L 168.802095 240.219304 
L 169.019335 239.986917 
L 169.235717 242.200036 
L 169.452958 241.928785 
L 169.66934 241.007378 
L 169.885722 241.346958 
L 170.102104 241.036269 
L 170.534869 243.165582 
L 170.751251 243.618203 
L 170.967633 242.962201 
L 171.184015 244.445945 
L 171.399538 247.381481 
L 171.61592 246.877246 
L 171.832303 248.474512 
L 172.263349 248.304963 
L 172.478873 249.060375 
L 172.695255 248.783586 
L 172.910778 247.51283 
L 173.126302 247.961393 
L 173.557349 247.863784 
L 173.772013 248.655148 
L 174.20306 247.332367 
L 174.417725 249.19263 
L 174.633248 248.224528 
L 175.062578 249.229741 
L 175.278101 248.986554 
L 175.492766 249.125172 
L 175.707431 247.620093 
L 175.922096 249.592216 
L 176.136761 249.729607 
L 176.351425 250.1723 
L 176.565231 251.149631 
L 176.779896 251.247596 
L 177.208367 253.505863 
L 177.422173 253.487921 
L 177.636838 253.125629 
L 177.850644 253.832924 
L 178.278256 252.419652 
L 178.492921 253.317603 
L 178.705869 250.4318 
L 178.919675 251.481794 
L 179.133481 251.117335 
L 179.347287 251.363846 
L 179.561093 251.113174 
L 179.77404 252.23779 
L 179.987847 252.139023 
L 180.200794 250.625872 
L 180.413741 250.640879 
L 180.627548 252.948272 
L 180.840495 251.739471 
L 181.053443 252.746645 
L 181.26639 251.154698 
L 181.692285 250.224074 
L 181.905232 251.993618 
L 182.330269 247.811689 
L 182.543216 248.089303 
L 182.755305 248.175345 
L 182.968252 248.948733 
L 183.180341 246.664349 
L 183.39243 248.888865 
L 184.452874 238.067405 
L 184.664963 234.862027 
L 185.08914 231.888693 
L 185.30037 231.853267 
L 185.512459 231.205748 
L 185.723689 231.55129 
L 185.934919 234.876931 
L 186.147008 233.195768 
L 186.780699 240.415233 
L 186.991929 240.680294 
L 187.203159 244.307567 
L 187.414389 245.220835 
L 187.835991 248.726698 
L 188.047221 249.905175 
L 188.257592 253.337609 
L 188.467964 253.94131 
L 188.679194 255.423128 
L 189.099937 255.479831 
L 189.310308 255.812602 
L 189.52068 257.099807 
L 189.731051 257.163239 
L 190.151794 257.783945 
L 190.362166 258.914408 
L 190.572537 257.865605 
L 190.78205 258.51958 
L 191.201934 257.077556 
L 191.411447 257.313754 
L 191.621819 257.05261 
L 191.831331 256.446949 
L 192.040844 257.496596 
L 192.250357 257.415286 
L 192.45987 259.328417 
L 192.669383 257.457831 
L 192.878895 256.809765 
L 193.088408 257.2696 
L 193.297062 257.003034 
L 193.506575 256.965318 
L 193.715229 257.385862 
L 193.924742 256.468536 
L 194.342909 257.116742 
L 194.551563 257.077276 
L 194.968872 255.850836 
L 195.38618 256.266135 
L 195.594834 256.148474 
L 195.803488 257.253261 
L 196.011284 256.026645 
L 196.219938 256.63392 
L 196.428592 256.285518 
L 196.636388 255.669191 
L 196.844183 254.441107 
L 197.052837 254.970529 
L 197.468428 255.072897 
L 197.676224 254.607642 
L 198.091815 254.516785 
L 198.29961 252.521779 
L 198.507406 248.46283 
L 198.922138 249.553626 
L 199.129934 248.780054 
L 199.337729 248.885093 
L 199.751603 249.361434 
L 199.959398 248.853875 
L 200.373272 245.277126 
L 200.580209 244.080569 
L 200.787146 241.469629 
L 200.994083 240.921852 
L 201.201019 240.870606 
L 201.407956 239.213861 
L 201.820971 238.497785 
L 202.233986 239.232434 
L 202.440064 235.204359 
L 202.647001 235.876297 
L 202.853079 234.828207 
L 203.265236 231.890068 
L 203.471314 230.764248 
L 203.677392 231.434237 
L 203.88347 229.810855 
L 204.295627 230.881072 
L 204.500846 233.727494 
L 204.706924 231.949569 
L 204.913003 232.922567 
L 205.118222 234.850677 
L 205.323442 237.962848 
L 205.52952 238.094691 
L 205.939959 240.307008 
L 206.350398 244.084352 
L 206.555617 245.513754 
L 206.760837 249.159245 
L 206.966057 248.944491 
L 207.375637 253.175763 
L 207.785217 254.882998 
L 207.990437 256.270859 
L 208.194798 256.244304 
L 208.399159 256.752177 
L 208.604378 256.457095 
L 209.0131 257.546837 
L 209.421822 256.150504 
L 209.626182 257.037461 
L 209.829685 256.968466 
L 210.034045 257.319317 
L 210.238406 259.08358 
L 210.441909 257.751827 
L 211.054132 257.001389 
L 211.257635 258.036622 
L 211.461137 257.092775 
L 211.664639 257.950099 
L 211.868141 257.935159 
L 212.071643 257.117931 
L 212.275146 257.064681 
L 212.478648 256.590607 
L 212.68215 256.612962 
L 212.885652 258.010626 
L 213.088296 255.968531 
L 213.291798 257.136089 
L 213.494442 256.086754 
L 213.697944 258.552782 
L 213.900587 256.47081 
L 214.305874 258.611079 
L 214.509377 256.991383 
L 214.71202 256.862491 
L 215.117307 258.251163 
L 215.319092 256.520317 
L 215.521736 256.967347 
L 215.724379 258.562378 
L 215.927023 257.495791 
L 216.128808 258.378516 
L 216.331451 256.47116 
L 216.533236 257.735314 
L 216.735021 255.750808 
L 216.937665 257.358187 
L 217.139449 257.169082 
L 217.341234 257.32355 
L 217.543019 257.13371 
L 217.744804 256.714251 
L 217.946589 257.36445 
L 218.148374 256.485679 
L 218.350159 258.01409 
L 218.75287 256.675135 
L 218.954655 257.132451 
L 219.155581 256.63406 
L 219.357366 257.434599 
L 219.558292 257.661561 
L 219.759218 256.819912 
L 219.960145 257.163344 
L 220.362856 256.855423 
L 220.563782 257.235978 
L 220.964776 257.499185 
L 221.165702 257.993273 
L 221.567554 257.721179 
L 221.767622 256.152743 
L 222.168616 257.950099 
L 222.369542 257.349825 
L 222.56961 256.137698 
L 222.769677 257.409198 
L 223.770015 257.666774 
L 224.17015 257.315993 
L 224.769494 257.665724 
L 225.168771 255.323718 
L 225.367979 256.139343 
L 225.567188 257.948175 
L 225.766397 256.775793 
L 226.165674 258.557196 
L 226.364883 256.925083 
L 226.563233 257.470881 
L 226.762442 256.487674 
L 226.961651 258.4467 
L 227.16086 256.392685 
L 227.35921 256.784119 
L 227.558419 257.901292 
L 227.955978 256.427531 
L 228.154328 257.085008 
L 228.353537 256.59561 
L 228.551887 257.17587 
L 228.750238 258.520108 
L 228.948588 257.18885 
L 229.146938 257.347656 
L 229.345288 255.786428 
L 229.543639 258.352065 
L 229.741989 256.751897 
L 229.93948 257.635355 
L 230.336181 256.687835 
L 230.533673 258.105231 
L 230.732023 256.57969 
L 231.127865 257.540086 
L 231.325356 257.694903 
L 231.522848 256.550056 
L 231.720339 257.086338 
L 231.917831 257.163694 
L 232.115323 257.546348 
L 232.312814 258.387262 
L 232.510306 256.439357 
L 232.707797 257.854934 
L 232.905289 256.786148 
L 233.101922 258.086373 
L 233.299413 255.679338 
L 233.496046 257.360986 
L 233.693538 257.0933 
L 234.086804 257.399682 
L 234.284295 257.976619 
L 234.677561 257.041695 
L 235.070827 257.863086 
L 235.26746 257.451638 
L 235.464093 255.969758 
L 235.659867 256.780446 
L 235.8565 258.39328 
L 236.053133 258.78283 
L 236.248907 256.420534 
L 236.44554 257.344368 
L 236.641315 257.12143 
L 237.033722 256.25396 
L 237.229496 257.17636 
L 237.621903 256.309345 
L 237.817678 256.659566 
L 238.013452 256.512654 
L 238.208368 256.747558 
L 238.404142 257.402411 
L 238.599916 256.413676 
L 238.79569 257.373547 
L 238.990606 257.301228 
L 239.18638 256.311409 
L 239.381296 257.537706 
L 239.57707 257.044004 
L 239.771986 257.81099 
L 240.357591 256.555794 
L 240.552507 257.244934 
L 240.747422 257.436874 
L 240.942338 257.322745 
L 241.137254 256.367598 
L 241.332169 256.520247 
L 241.526226 257.971895 
L 241.721142 256.365989 
L 241.916057 256.746858 
L 242.110114 258.044563 
L 242.30503 256.513984 
L 242.499087 258.002055 
L 242.694003 257.426133 
L 242.88806 256.429456 
L 243.082117 257.41966 
L 243.276173 257.454087 
L 243.664287 256.681188 
L 243.858344 256.217749 
L 244.246458 258.079481 
L 244.440515 257.118142 
L 244.634572 257.991034 
L 245.021827 257.882853 
L 245.215026 256.933759 
L 245.409083 258.468322 
L 245.602281 258.015315 
L 245.795479 256.570069 
L 245.989536 258.029624 
L 246.182734 256.584518 
L 246.569131 256.177129 
L 246.762329 256.488829 
L 246.955528 256.112263 
L 247.148726 258.181083 
L 247.341066 257.803818 
L 247.534264 256.585392 
L 247.727462 256.665968 
L 247.919802 256.363995 
L 248.113 256.902446 
L 248.30534 256.026542 
L 248.498538 257.137489 
L 248.690878 257.139798 
L 248.883217 257.485715 
L 249.268755 256.953562 
L 249.653435 256.305357 
L 249.845774 257.490193 
L 250.038114 257.604671 
L 250.229595 257.948035 
L 250.614274 256.837685 
L 250.805755 257.294651 
L 250.998095 256.184406 
L 251.189576 256.908184 
L 251.381915 256.523361 
L 251.764877 257.70155 
L 251.957217 257.544913 
L 252.340179 257.842023 
L 252.723141 257.840309 
L 252.914622 257.500129 
L 253.106103 256.395308 
L 253.296725 258.118036 
L 253.488206 257.43285 
L 253.679687 256.288738 
L 253.870309 256.596413 
L 254.06179 258.052121 
L 254.252413 255.953742 
L 254.443894 257.752876 
L 254.634516 257.75557 
L 254.825138 256.420393 
L 255.015761 256.384113 
L 255.397005 258.374178 
L 255.587627 256.770055 
L 255.968872 258.566883 
L 256.159494 256.808785 
L 256.350117 256.731849 
L 256.53988 256.234123 
L 256.921125 257.989179 
L 257.110889 257.18934 
L 257.301511 257.306337 
L 257.491275 256.544003 
L 257.681038 257.539175 
L 257.870802 257.884393 
L 258.061424 257.082734 
L 258.440952 257.542045 
L 258.630715 256.548307 
L 258.820479 259.299239 
L 259.009384 256.737937 
L 259.199148 257.0806 
L 259.388911 256.04719 
L 259.578675 257.115272 
L 259.76758 257.303992 
L 259.957344 256.919135 
L 260.146249 256.190004 
L 260.335154 259.090917 
L 260.524917 255.99177 
L 260.902727 256.938483 
L 261.091632 256.895414 
L 261.281396 258.074863 
L 261.470301 256.578885 
L 261.659206 256.881034 
L 261.847252 256.609744 
L 262.036157 257.828518 
L 262.225062 257.518324 
L 262.413967 256.596273 
L 262.602014 256.552855 
L 262.978965 257.993483 
L 263.355916 256.107963 
L 263.732868 257.316378 
L 263.920914 257.232164 
L 264.10896 256.497925 
L 264.297007 258.170867 
L 264.673099 256.815153 
L 264.861146 258.448775 
L 265.049192 258.02602 
L 265.237238 257.111879 
L 265.424426 257.118001 
L 265.612472 256.82376 
L 265.800519 256.83569 
L 265.987706 257.995897 
L 266.36294 257.159041 
L 266.738174 257.989599 
L 266.925362 257.56762 
L 267.11255 257.450763 
L 267.299737 257.180453 
L 267.486925 257.329883 
L 267.674113 256.714425 
L 267.861301 257.244794 
L 268.048488 257.354269 
L 268.234817 256.43131 
L 268.609193 257.182342 
L 268.795522 256.869138 
L 268.982709 257.357942 
L 269.169038 256.585113 
L 269.356226 257.149279 
L 269.542555 256.184301 
L 269.915213 257.76855 
L 270.102401 257.069579 
L 270.28873 255.452901 
L 270.475059 256.663659 
L 270.847717 257.287584 
L 271.033187 256.930051 
L 271.219516 255.50205 
L 271.405845 255.563981 
L 271.592174 256.427916 
L 271.963974 257.008002 
L 272.335773 257.127693 
L 272.706714 255.602365 
L 273.078513 258.087843 
L 273.263984 257.724922 
L 273.449454 256.215089 
L 273.820395 257.28321 
L 274.005006 259.440792 
L 274.190477 257.164989 
L 274.375947 257.716665 
L 274.561417 256.89223 
L 274.746029 256.640638 
L 274.931499 258.261133 
L 275.116111 256.40367 
L 275.301582 256.419099 
L 275.670805 258.290103 
L 275.856275 256.674435 
L 276.040887 257.35119 
L 276.225499 256.689864 
L 276.41011 257.136545 
L 276.594722 258.923053 
L 276.779334 256.276072 
L 276.963946 257.644381 
L 277.148557 257.44583 
L 277.33231 257.9346 
L 277.516922 257.16177 
L 277.701534 257.573043 
L 277.885287 255.843774 
L 278.069898 257.132976 
L 278.253651 256.740211 
L 278.622016 257.596415 
L 278.805769 257.011011 
L 278.990381 256.845557 
L 279.174134 258.628987 
L 279.54164 256.123246 
L 279.725393 257.643157 
L 279.909146 257.061358 
L 280.275794 258.268201 
L 280.459547 256.889361 
L 280.6433 257.382713 
L 280.826194 258.830866 
L 281.009947 255.935055 
L 281.192842 256.633885 
L 281.376595 257.984421 
L 281.559489 256.582558 
L 281.743242 257.549112 
L 281.926136 255.955553 
L 282.109031 258.798433 
L 282.291925 258.358084 
L 282.47482 256.314768 
L 282.840608 257.03991 
L 283.023503 257.859447 
L 283.206397 257.649035 
L 283.389292 257.250147 
L 283.571327 257.92015 
L 283.754222 256.869314 
L 283.937116 257.384183 
L 284.119152 256.140112 
L 284.302046 258.296121 
L 284.666976 256.044002 
L 284.849012 258.012201 
L 285.031048 256.654527 
L 285.395119 257.222508 
L 285.577155 258.422144 
L 285.941226 257.264457 
L 286.123262 257.009052 
L 286.305298 258.357768 
L 286.487334 257.718379 
L 286.669369 255.740627 
L 286.850546 256.284224 
L 287.032582 256.291956 
L 287.213759 258.55363 
L 287.395795 257.604392 
L 287.576972 257.342268 
L 287.759008 256.353289 
L 288.121362 257.201095 
L 288.302539 256.783175 
L 288.483716 257.587423 
L 288.664893 256.556668 
L 289.027247 256.862491 
L 289.208424 258.581271 
L 289.389601 256.898212 
L 289.570778 257.774989 
L 289.751955 256.625663 
L 289.932274 257.462974 
L 290.113451 257.114992 
L 290.474946 257.532528 
L 290.655265 257.37743 
L 290.836442 256.839609 
L 291.01676 257.371203 
L 291.197079 256.262882 
L 291.377397 258.1779 
L 291.557715 256.354373 
L 291.738892 257.438063 
L 291.919211 256.468886 
L 292.278989 259.482363 
L 292.459307 257.492398 
L 292.819944 257.732479 
L 292.999404 258.815779 
L 293.179722 256.569719 
L 293.359182 258.063492 
L 293.539501 257.183077 
L 293.71896 257.63588 
L 294.078739 255.54918 
L 294.258198 258.054675 
L 294.438517 256.42984 
L 294.617976 256.48358 
L 295.156356 254.98603 
L 295.335815 256.826034 
L 295.514417 254.68951 
L 295.693876 256.219673 
L 295.873336 255.91357 
L 296.052796 256.064226 
L 296.231397 257.703545 
L 296.410857 255.443271 
L 296.947519 258.168733 
L 297.126978 255.978895 
L 297.305579 256.34811 
L 297.662782 256.66233 
L 298.019984 257.62136 
L 298.198585 257.640534 
L 298.377186 256.626817 
L 298.555787 256.643822 
L 298.734388 256.277647 
L 298.912989 256.560133 
L 299.090732 258.217365 
L 299.625676 256.228209 
L 299.804277 257.155682 
L 299.98202 256.706553 
L 300.159762 257.097254 
L 300.338363 258.633641 
L 300.516106 257.819003 
L 300.693848 258.396254 
L 300.871591 256.589556 
L 301.049333 258.463117 
L 301.227075 258.127833 
L 301.404818 257.137559 
L 301.760303 258.353255 
L 301.938045 257.693853 
L 302.114929 257.489424 
L 302.292671 256.526545 
L 302.470414 256.211101 
L 302.647298 256.809205 
L 302.82504 256.410317 
L 303.001924 257.307701 
L 303.179666 256.023882 
L 303.35655 255.654597 
L 303.710318 253.303433 
L 303.88806 254.226284 
L 304.241828 251.747382 
L 304.418711 252.052718 
L 304.595595 251.821237 
L 304.772479 248.225089 
L 304.948504 247.95198 
L 305.125388 244.620091 
L 305.302271 243.694213 
L 305.479155 240.435755 
L 305.65518 240.080238 
L 306.184973 225.82153 
L 306.537023 217.800004 
L 306.889932 202.704039 
L 307.770058 171.251465 
L 307.946083 171.836731 
L 308.122108 170.625041 
L 308.297274 167.730926 
L 308.4733 167.893264 
L 308.824491 172.30437 
L 309.000516 171.776312 
L 309.175683 171.782503 
L 309.351708 175.876843 
L 309.526874 169.881678 
L 309.702899 169.541639 
L 309.878066 164.729733 
L 310.053232 163.050747 
L 310.403565 153.23215 
L 311.279397 106.2616 
L 311.628872 87.33819 
L 312.852461 21.300006 
L 313.026769 22.859187 
L 313.201076 19.296 
L 313.375384 22.650532 
L 314.769847 88.175103 
L 314.943296 90.989654 
L 315.63881 111.107672 
L 315.813117 109.792686 
L 315.986567 111.190216 
L 316.160016 108.994752 
L 316.507773 113.66083 
L 316.681222 112.381385 
L 316.854671 119.127134 
L 317.02812 119.605207 
L 317.548467 137.774249 
L 318.413996 174.58215 
L 318.586586 178.648516 
L 319.623846 218.018175 
L 319.969886 227.444225 
L 320.142477 228.526136 
L 320.315067 230.715868 
L 320.487657 235.771511 
L 320.659389 237.196213 
L 320.83198 240.111078 
L 321.00457 240.999926 
L 321.177161 240.627442 
L 321.521483 242.594647 
L 321.693215 240.654155 
L 321.865805 245.171652 
L 322.037537 242.466244 
L 322.210128 246.065865 
L 322.381859 243.627145 
L 322.553591 245.35348 
L 322.726182 242.264353 
L 322.897914 241.8882 
L 323.069645 242.046641 
L 323.241377 241.096457 
L 323.584841 241.640795 
L 323.756573 241.683214 
L 323.928304 241.075477 
L 324.785246 247.394459 
L 324.956119 248.236818 
L 325.127851 248.199867 
L 325.298724 252.51905 
L 325.470456 253.475011 
L 325.641329 252.023013 
L 325.812203 253.933583 
L 325.983076 252.404405 
L 326.154807 255.881137 
L 326.325681 253.930888 
L 326.8383 257.13504 
L 327.009173 256.941281 
L 327.179188 255.295 
L 327.350061 255.176915 
L 327.520934 258.19214 
L 327.691807 257.232619 
L 327.861822 258.336391 
L 328.202709 255.956952 
L 328.373583 258.397128 
L 328.884485 256.161734 
L 329.224514 258.210892 
L 329.394528 256.942016 
L 329.734557 258.795979 
L 329.904572 257.218554 
L 330.074586 256.748853 
L 330.244601 257.807211 
L 330.414615 257.604006 
L 330.58463 258.928934 
L 330.9238 256.494707 
L 331.093815 255.983825 
L 331.26297 257.536132 
L 331.432985 257.521158 
L 331.602141 256.053518 
L 331.941311 256.326979 
L 332.110467 255.278307 
L 332.280481 256.522207 
L 332.449637 255.74018 
L 332.618793 256.792096 
L 332.787949 254.633425 
L 332.957105 254.003035 
L 333.126261 255.244693 
L 333.464572 254.402025 
L 333.633728 255.94817 
L 333.802884 253.40486 
L 333.971181 253.383341 
L 334.140337 251.603513 
L 334.309493 252.574791 
L 334.47779 251.176286 
L 334.646946 250.809202 
L 334.815243 251.549951 
L 334.984399 250.64707 
L 335.152696 251.616353 
L 335.320993 250.865493 
L 335.48929 249.197135 
L 335.658446 250.853077 
L 335.826743 249.336774 
L 335.995041 250.456953 
L 336.163338 247.220232 
L 336.331635 248.416055 
L 336.668229 247.520064 
L 336.836527 248.485461 
L 337.003965 247.042944 
L 337.172262 247.510801 
L 337.340559 246.831801 
L 337.508857 247.910387 
L 337.676295 246.695636 
L 337.844592 246.321272 
L 338.180328 246.717889 
L 338.515205 243.253286 
L 338.683502 246.240034 
L 338.850941 243.379511 
L 339.018379 244.340012 
L 339.185818 242.128498 
L 339.353256 244.502236 
L 339.520695 241.869513 
L 339.688133 243.287336 
L 340.02301 240.083678 
L 340.190449 239.933492 
L 340.357029 241.617293 
L 340.691906 239.136934 
L 340.858486 239.482132 
L 341.359943 237.458293 
L 341.526523 238.642811 
L 341.693961 237.075491 
L 341.860541 238.297384 
L 342.027121 237.187958 
L 342.194559 236.957062 
L 342.361139 235.15896 
L 342.527719 235.691603 
L 342.694299 235.727143 
L 342.860879 233.545895 
L 343.027459 236.446774 
L 343.194038 234.073609 
L 343.35976 235.063116 
L 343.52634 232.383618 
L 343.692919 233.754436 
L 343.859499 232.832112 
L 344.1918 233.546583 
L 344.357522 233.311101 
L 344.524101 233.57192 
L 344.689823 231.959773 
L 344.856402 232.143435 
L 345.354425 230.896091 
L 345.520146 229.549692 
L 345.685867 231.336444 
L 345.851588 230.33318 
L 346.183031 231.535699 
L 346.348752 230.454819 
L 346.514473 232.392675 
L 346.680194 229.132955 
L 346.845916 231.872986 
L 347.010778 231.173189 
L 347.176499 233.568481 
L 347.507083 232.052177 
L 347.837667 232.521651 
L 348.003388 232.966018 
L 348.168251 232.722052 
L 348.333113 231.331171 
L 348.498834 231.621454 
L 348.663697 235.427116 
L 348.828559 232.506403 
L 349.158284 234.918433 
L 349.323147 234.25131 
L 349.48801 238.16944 
L 349.652872 234.711727 
L 349.982597 237.004869 
L 350.14746 237.78767 
L 350.311464 236.812264 
L 350.476326 238.052845 
L 350.641189 237.573282 
L 350.970055 239.746505 
L 351.134059 237.469528 
L 351.298922 239.433981 
L 351.791792 239.477546 
L 351.955796 237.656744 
L 352.1198 238.969208 
L 352.283804 237.988185 
L 352.447807 241.134061 
L 352.611811 240.075538 
L 352.775815 240.468887 
L 352.939819 239.294801 
L 353.267827 241.339965 
L 353.431831 241.119731 
L 353.595835 241.204683 
L 353.75898 240.907063 
L 353.922984 241.678743 
L 354.086129 241.112508 
L 354.250133 241.921333 
L 354.413278 241.430306 
L 354.577282 243.919492 
L 354.740427 242.701267 
L 354.904431 243.049217 
L 355.067576 243.702238 
L 355.230722 243.131876 
L 355.393867 243.592637 
L 355.557871 245.084636 
L 355.721016 245.505958 
L 355.884161 244.818314 
L 356.047306 242.983639 
L 356.210452 246.345485 
L 356.373597 244.624104 
L 356.699029 246.987811 
L 356.862174 245.378931 
L 357.025319 246.406076 
L 357.187606 245.712779 
L 357.350751 247.311685 
L 357.513037 247.228314 
L 357.676183 247.831981 
L 357.838469 246.600538 
L 358.163901 248.644452 
L 358.327046 249.321136 
L 358.489333 248.69759 
L 358.651619 249.716411 
L 358.976193 248.693852 
L 359.300766 250.265919 
L 359.625339 251.451527 
L 359.787625 252.004394 
L 359.949912 249.919265 
L 360.112199 250.851953 
L 360.273626 250.827958 
L 360.435913 251.452295 
L 360.5982 252.839645 
L 360.759627 252.200152 
L 360.921914 252.399922 
L 361.245629 252.259802 
L 361.569343 253.870952 
L 361.730771 252.686674 
L 361.892199 253.14372 
L 362.053627 254.324845 
L 362.377341 252.171181 
L 362.538769 255.485644 
L 362.700197 254.135279 
L 362.861625 255.227966 
L 363.022194 255.477103 
L 363.183622 254.041625 
L 363.34505 255.468917 
L 363.506478 255.47865 
L 363.667906 256.210507 
L 363.989903 254.680029 
L 364.150472 256.734998 
L 364.3119 257.02609 
L 364.633897 256.631611 
L 364.794467 255.561631 
L 364.955894 258.14949 
L 365.277033 257.512095 
L 365.437602 256.456571 
L 365.598171 258.045859 
L 365.920169 257.376941 
L 366.080738 257.797031 
L 366.241307 257.3112 
L 366.401018 255.894218 
L 366.561587 258.094945 
L 366.722156 256.206658 
L 367.043295 257.396849 
L 367.203005 257.533927 
L 367.363575 257.078291 
L 367.523285 258.193854 
L 367.683854 257.596904 
L 367.843565 257.74385 
L 368.004134 257.660371 
L 368.163845 258.859379 
L 368.324414 257.505518 
L 368.484125 257.303713 
L 368.643835 256.605195 
L 368.803546 257.140218 
L 368.963256 258.735171 
L 369.122967 256.803047 
L 369.282678 256.621009 
L 369.442388 257.547013 
L 369.602099 257.487395 
L 369.761809 256.322046 
L 369.92152 257.759594 
L 370.081231 256.366794 
L 370.240941 257.045997 
L 370.399793 256.916755 
L 370.559504 257.888977 
L 370.719214 257.783386 
L 370.878066 257.046662 
L 371.037777 257.070278 
L 371.196629 257.774953 
L 371.356339 257.860462 
L 371.515191 257.322571 
L 371.674902 258.121781 
L 371.833754 257.845592 
L 371.992606 256.760959 
L 372.151458 257.113067 
L 372.31031 256.587807 
L 372.469161 256.746439 
L 372.628872 256.518568 
L 372.787724 257.126678 
L 372.946576 257.232689 
L 373.422273 257.905246 
L 373.739977 257.177234 
L 373.89797 256.939322 
L 374.056822 257.446775 
L 374.215674 257.383693 
L 374.532519 256.711311 
L 374.690513 257.286009 
L 374.848506 257.185141 
L 375.007358 257.660441 
L 375.165351 257.560588 
L 375.323344 256.711941 
L 375.640189 258.371134 
L 375.798183 257.681748 
L 375.956176 257.525356 
L 376.114169 256.678914 
L 376.272163 258.049602 
L 376.430156 256.141057 
L 376.746142 257.783106 
L 376.903277 256.02535 
L 377.06127 257.215615 
L 377.219264 256.531688 
L 377.376398 257.680313 
L 377.534391 257.145676 
L 377.692385 257.258824 
L 377.849519 258.368614 
L 378.007513 257.573288 
L 378.164647 258.233179 
L 378.321782 257.558243 
L 378.479775 257.803013 
L 378.63691 256.675554 
L 378.794044 257.419554 
L 378.952038 257.09372 
L 379.109172 256.045929 
L 379.266307 256.296399 
L 379.580576 258.590924 
L 379.737711 256.748818 
L 379.894845 257.733878 
L 380.05198 256.846152 
L 380.208256 257.873302 
L 380.522525 257.445586 
L 380.67966 258.128813 
L 380.835936 256.709457 
L 380.99307 257.314768 
L 381.149346 256.696372 
L 381.306481 257.261833 
L 381.619891 257.205609 
L 381.776167 256.660301 
L 382.40213 257.718309 
L 382.558406 257.015454 
L 382.714682 257.534488 
L 382.870958 256.600298 
L 383.027234 257.002579 
L 383.18351 256.868753 
L 383.496062 258.049812 
L 383.652337 256.345592 
L 383.808613 257.315188 
L 383.964889 257.13707 
L 384.276583 257.77023 
L 384.432 256.517833 
L 384.588276 256.4868 
L 384.899969 257.604566 
L 385.055386 257.186366 
L 385.36708 257.261658 
L 385.522497 256.610164 
L 385.678773 257.757006 
L 385.83419 256.570768 
L 385.989608 256.490788 
L 386.145025 257.593371 
L 386.300442 256.630071 
L 386.455859 256.39048 
L 386.611277 255.460491 
L 386.922111 258.369139 
L 387.077529 257.932045 
L 387.232087 258.238638 
L 387.387505 256.992958 
L 387.69748 258.77485 
L 387.852898 258.145047 
L 387.852898 258.145047 
" clip-path="url(#pec35e0d6fd)" style="fill: none; stroke: #1f77b4; stroke-width: 1.5; stroke-linecap: square"/>
   </g>
   <g id="patch_3">
    <path d="M 46.965625 273.312 
L 46.965625 7.2 
" style="fill: none; stroke: #000000; stroke-width: 0.8; stroke-linejoin: miter; stroke-linecap: square"/>
   </g>
   <g id="patch_4">
    <path d="M 404.085625 273.312 
L 404.085625 7.2 
" style="fill: none; stroke: #000000; stroke-width: 0.8; stroke-linejoin: miter; stroke-linecap: square"/>
   </g>
   <g id="patch_5">
    <path d="M 46.965625 273.312 
L 404.085625 273.312 
" style="fill: none; stroke: #000000; stroke-width: 0.8; stroke-linejoin: miter; stroke-linecap: square"/>
   </g>
   <g id="patch_6">
    <path d="M 46.965625 7.2 
L 404.085625 7.2 
" style="fill: none; stroke: #000000; stroke-width: 0.8; stroke-linejoin: miter; stroke-linecap: square"/>
   </g>
  </g>
 </g>
 <defs>
  <clipPath id="pec35e0d6fd">
   <rect x="46.965625" y="7.2" width="357.12" height="266.112"/>
  </clipPath>
 </defs>
</svg>
