<?xml version="1.0" encoding="utf-8" standalone="no"?>
<!DOCTYPE svg PUBLIC "-//W3C//DTD SVG 1.1//EN"
  "http://www.w3.org/Graphics/SVG/1.1/DTD/svg11.dtd">
<svg xmlns:xlink="http://www.w3.org/1999/xlink" width="411.285625pt" height="310.86825pt" viewBox="0 0 411.285625 310.86825" xmlns="http://www.w3.org/2000/svg" version="1.1">
 <metadata>
  <rdf:RDF xmlns:dc="http://purl.org/dc/elements/1.1/" xmlns:cc="http://creativecommons.org/ns#" xmlns:rdf="http://www.w3.org/1999/02/22-rdf-syntax-ns#">
   <cc:Work>
    <dc:type rdf:resource="http://purl.org/dc/dcmitype/StillImage"/>
    <dc:date>2024-07-26T16:07:36.017073</dc:date>
    <dc:format>image/svg+xml</dc:format>
    <dc:creator>
     <cc:Agent>
      <dc:title>Matplotlib v3.8.4, https://matplotlib.org/</dc:title>
     </cc:Agent>
    </dc:creator>
   </cc:Work>
  </rdf:RDF>
 </metadata>
 <defs>
  <style type="text/css">*{stroke-linejoin: round; stroke-linecap: butt}</style>
 </defs>
 <g id="figure_1">
  <g id="patch_1">
   <path d="M 0 310.86825 
L 411.285625 310.86825 
L 411.285625 0 
L 0 0 
z
" style="fill: #ffffff"/>
  </g>
  <g id="axes_1">
   <g id="patch_2">
    <path d="M 46.965625 273.312 
L 404.085625 273.312 
L 404.085625 7.2 
L 46.965625 7.2 
z
" style="fill: #ffffff"/>
   </g>
   <g id="matplotlib.axis_1">
    <g id="xtick_1">
     <g id="line2d_1">
      <defs>
       <path id="m8775464abc" d="M 0 0 
L 0 3.5 
" style="stroke: #000000; stroke-width: 0.8"/>
      </defs>
      <g>
       <use xlink:href="#m8775464abc" x="60.718382" y="273.312" style="stroke: #000000; stroke-width: 0.8"/>
      </g>
     </g>
     <g id="text_1">
      <!-- 0 -->
      <g transform="translate(57.537132 287.910437) scale(0.1 -0.1)">
       <defs>
        <path id="DejaVuSans-30" d="M 2034 4250 
Q 1547 4250 1301 3770 
Q 1056 3291 1056 2328 
Q 1056 1369 1301 889 
Q 1547 409 2034 409 
Q 2525 409 2770 889 
Q 3016 1369 3016 2328 
Q 3016 3291 2770 3770 
Q 2525 4250 2034 4250 
z
M 2034 4750 
Q 2819 4750 3233 4129 
Q 3647 3509 3647 2328 
Q 3647 1150 3233 529 
Q 2819 -91 2034 -91 
Q 1250 -91 836 529 
Q 422 1150 422 2328 
Q 422 3509 836 4129 
Q 1250 4750 2034 4750 
z
" transform="scale(0.015625)"/>
       </defs>
       <use xlink:href="#DejaVuSans-30"/>
      </g>
     </g>
    </g>
    <g id="xtick_2">
     <g id="line2d_2">
      <g>
       <use xlink:href="#m8775464abc" x="103.651336" y="273.312" style="stroke: #000000; stroke-width: 0.8"/>
      </g>
     </g>
     <g id="text_2">
      <!-- 500 -->
      <g transform="translate(94.107586 287.910437) scale(0.1 -0.1)">
       <defs>
        <path id="DejaVuSans-35" d="M 691 4666 
L 3169 4666 
L 3169 4134 
L 1269 4134 
L 1269 2991 
Q 1406 3038 1543 3061 
Q 1681 3084 1819 3084 
Q 2600 3084 3056 2656 
Q 3513 2228 3513 1497 
Q 3513 744 3044 326 
Q 2575 -91 1722 -91 
Q 1428 -91 1123 -41 
Q 819 9 494 109 
L 494 744 
Q 775 591 1075 516 
Q 1375 441 1709 441 
Q 2250 441 2565 725 
Q 2881 1009 2881 1497 
Q 2881 1984 2565 2268 
Q 2250 2553 1709 2553 
Q 1456 2553 1204 2497 
Q 953 2441 691 2322 
L 691 4666 
z
" transform="scale(0.015625)"/>
       </defs>
       <use xlink:href="#DejaVuSans-35"/>
       <use xlink:href="#DejaVuSans-30" x="63.623047"/>
       <use xlink:href="#DejaVuSans-30" x="127.246094"/>
      </g>
     </g>
    </g>
    <g id="xtick_3">
     <g id="line2d_3">
      <g>
       <use xlink:href="#m8775464abc" x="146.584291" y="273.312" style="stroke: #000000; stroke-width: 0.8"/>
      </g>
     </g>
     <g id="text_3">
      <!-- 1000 -->
      <g transform="translate(133.859291 287.910437) scale(0.1 -0.1)">
       <defs>
        <path id="DejaVuSans-31" d="M 794 531 
L 1825 531 
L 1825 4091 
L 703 3866 
L 703 4441 
L 1819 4666 
L 2450 4666 
L 2450 531 
L 3481 531 
L 3481 0 
L 794 0 
L 794 531 
z
" transform="scale(0.015625)"/>
       </defs>
       <use xlink:href="#DejaVuSans-31"/>
       <use xlink:href="#DejaVuSans-30" x="63.623047"/>
       <use xlink:href="#DejaVuSans-30" x="127.246094"/>
       <use xlink:href="#DejaVuSans-30" x="190.869141"/>
      </g>
     </g>
    </g>
    <g id="xtick_4">
     <g id="line2d_4">
      <g>
       <use xlink:href="#m8775464abc" x="189.517245" y="273.312" style="stroke: #000000; stroke-width: 0.8"/>
      </g>
     </g>
     <g id="text_4">
      <!-- 1500 -->
      <g transform="translate(176.792245 287.910437) scale(0.1 -0.1)">
       <use xlink:href="#DejaVuSans-31"/>
       <use xlink:href="#DejaVuSans-35" x="63.623047"/>
       <use xlink:href="#DejaVuSans-30" x="127.246094"/>
       <use xlink:href="#DejaVuSans-30" x="190.869141"/>
      </g>
     </g>
    </g>
    <g id="xtick_5">
     <g id="line2d_5">
      <g>
       <use xlink:href="#m8775464abc" x="232.4502" y="273.312" style="stroke: #000000; stroke-width: 0.8"/>
      </g>
     </g>
     <g id="text_5">
      <!-- 2000 -->
      <g transform="translate(219.7252 287.910437) scale(0.1 -0.1)">
       <defs>
        <path id="DejaVuSans-32" d="M 1228 531 
L 3431 531 
L 3431 0 
L 469 0 
L 469 531 
Q 828 903 1448 1529 
Q 2069 2156 2228 2338 
Q 2531 2678 2651 2914 
Q 2772 3150 2772 3378 
Q 2772 3750 2511 3984 
Q 2250 4219 1831 4219 
Q 1534 4219 1204 4116 
Q 875 4013 500 3803 
L 500 4441 
Q 881 4594 1212 4672 
Q 1544 4750 1819 4750 
Q 2544 4750 2975 4387 
Q 3406 4025 3406 3419 
Q 3406 3131 3298 2873 
Q 3191 2616 2906 2266 
Q 2828 2175 2409 1742 
Q 1991 1309 1228 531 
z
" transform="scale(0.015625)"/>
       </defs>
       <use xlink:href="#DejaVuSans-32"/>
       <use xlink:href="#DejaVuSans-30" x="63.623047"/>
       <use xlink:href="#DejaVuSans-30" x="127.246094"/>
       <use xlink:href="#DejaVuSans-30" x="190.869141"/>
      </g>
     </g>
    </g>
    <g id="xtick_6">
     <g id="line2d_6">
      <g>
       <use xlink:href="#m8775464abc" x="275.383154" y="273.312" style="stroke: #000000; stroke-width: 0.8"/>
      </g>
     </g>
     <g id="text_6">
      <!-- 2500 -->
      <g transform="translate(262.658154 287.910437) scale(0.1 -0.1)">
       <use xlink:href="#DejaVuSans-32"/>
       <use xlink:href="#DejaVuSans-35" x="63.623047"/>
       <use xlink:href="#DejaVuSans-30" x="127.246094"/>
       <use xlink:href="#DejaVuSans-30" x="190.869141"/>
      </g>
     </g>
    </g>
    <g id="xtick_7">
     <g id="line2d_7">
      <g>
       <use xlink:href="#m8775464abc" x="318.316109" y="273.312" style="stroke: #000000; stroke-width: 0.8"/>
      </g>
     </g>
     <g id="text_7">
      <!-- 3000 -->
      <g transform="translate(305.591109 287.910437) scale(0.1 -0.1)">
       <defs>
        <path id="DejaVuSans-33" d="M 2597 2516 
Q 3050 2419 3304 2112 
Q 3559 1806 3559 1356 
Q 3559 666 3084 287 
Q 2609 -91 1734 -91 
Q 1441 -91 1130 -33 
Q 819 25 488 141 
L 488 750 
Q 750 597 1062 519 
Q 1375 441 1716 441 
Q 2309 441 2620 675 
Q 2931 909 2931 1356 
Q 2931 1769 2642 2001 
Q 2353 2234 1838 2234 
L 1294 2234 
L 1294 2753 
L 1863 2753 
Q 2328 2753 2575 2939 
Q 2822 3125 2822 3475 
Q 2822 3834 2567 4026 
Q 2313 4219 1838 4219 
Q 1578 4219 1281 4162 
Q 984 4106 628 3988 
L 628 4550 
Q 988 4650 1302 4700 
Q 1616 4750 1894 4750 
Q 2613 4750 3031 4423 
Q 3450 4097 3450 3541 
Q 3450 3153 3228 2886 
Q 3006 2619 2597 2516 
z
" transform="scale(0.015625)"/>
       </defs>
       <use xlink:href="#DejaVuSans-33"/>
       <use xlink:href="#DejaVuSans-30" x="63.623047"/>
       <use xlink:href="#DejaVuSans-30" x="127.246094"/>
       <use xlink:href="#DejaVuSans-30" x="190.869141"/>
      </g>
     </g>
    </g>
    <g id="xtick_8">
     <g id="line2d_8">
      <g>
       <use xlink:href="#m8775464abc" x="361.249063" y="273.312" style="stroke: #000000; stroke-width: 0.8"/>
      </g>
     </g>
     <g id="text_8">
      <!-- 3500 -->
      <g transform="translate(348.524063 287.910437) scale(0.1 -0.1)">
       <use xlink:href="#DejaVuSans-33"/>
       <use xlink:href="#DejaVuSans-35" x="63.623047"/>
       <use xlink:href="#DejaVuSans-30" x="127.246094"/>
       <use xlink:href="#DejaVuSans-30" x="190.869141"/>
      </g>
     </g>
    </g>
    <g id="text_9">
     <!-- Raman Shift (1/cm) -->
     <g transform="translate(177.067031 301.588562) scale(0.1 -0.1)">
      <defs>
       <path id="DejaVuSans-52" d="M 2841 2188 
Q 3044 2119 3236 1894 
Q 3428 1669 3622 1275 
L 4263 0 
L 3584 0 
L 2988 1197 
Q 2756 1666 2539 1819 
Q 2322 1972 1947 1972 
L 1259 1972 
L 1259 0 
L 628 0 
L 628 4666 
L 2053 4666 
Q 2853 4666 3247 4331 
Q 3641 3997 3641 3322 
Q 3641 2881 3436 2590 
Q 3231 2300 2841 2188 
z
M 1259 4147 
L 1259 2491 
L 2053 2491 
Q 2509 2491 2742 2702 
Q 2975 2913 2975 3322 
Q 2975 3731 2742 3939 
Q 2509 4147 2053 4147 
L 1259 4147 
z
" transform="scale(0.015625)"/>
       <path id="DejaVuSans-61" d="M 2194 1759 
Q 1497 1759 1228 1600 
Q 959 1441 959 1056 
Q 959 750 1161 570 
Q 1363 391 1709 391 
Q 2188 391 2477 730 
Q 2766 1069 2766 1631 
L 2766 1759 
L 2194 1759 
z
M 3341 1997 
L 3341 0 
L 2766 0 
L 2766 531 
Q 2569 213 2275 61 
Q 1981 -91 1556 -91 
Q 1019 -91 701 211 
Q 384 513 384 1019 
Q 384 1609 779 1909 
Q 1175 2209 1959 2209 
L 2766 2209 
L 2766 2266 
Q 2766 2663 2505 2880 
Q 2244 3097 1772 3097 
Q 1472 3097 1187 3025 
Q 903 2953 641 2809 
L 641 3341 
Q 956 3463 1253 3523 
Q 1550 3584 1831 3584 
Q 2591 3584 2966 3190 
Q 3341 2797 3341 1997 
z
" transform="scale(0.015625)"/>
       <path id="DejaVuSans-6d" d="M 3328 2828 
Q 3544 3216 3844 3400 
Q 4144 3584 4550 3584 
Q 5097 3584 5394 3201 
Q 5691 2819 5691 2113 
L 5691 0 
L 5113 0 
L 5113 2094 
Q 5113 2597 4934 2840 
Q 4756 3084 4391 3084 
Q 3944 3084 3684 2787 
Q 3425 2491 3425 1978 
L 3425 0 
L 2847 0 
L 2847 2094 
Q 2847 2600 2669 2842 
Q 2491 3084 2119 3084 
Q 1678 3084 1418 2786 
Q 1159 2488 1159 1978 
L 1159 0 
L 581 0 
L 581 3500 
L 1159 3500 
L 1159 2956 
Q 1356 3278 1631 3431 
Q 1906 3584 2284 3584 
Q 2666 3584 2933 3390 
Q 3200 3197 3328 2828 
z
" transform="scale(0.015625)"/>
       <path id="DejaVuSans-6e" d="M 3513 2113 
L 3513 0 
L 2938 0 
L 2938 2094 
Q 2938 2591 2744 2837 
Q 2550 3084 2163 3084 
Q 1697 3084 1428 2787 
Q 1159 2491 1159 1978 
L 1159 0 
L 581 0 
L 581 3500 
L 1159 3500 
L 1159 2956 
Q 1366 3272 1645 3428 
Q 1925 3584 2291 3584 
Q 2894 3584 3203 3211 
Q 3513 2838 3513 2113 
z
" transform="scale(0.015625)"/>
       <path id="DejaVuSans-20" transform="scale(0.015625)"/>
       <path id="DejaVuSans-53" d="M 3425 4513 
L 3425 3897 
Q 3066 4069 2747 4153 
Q 2428 4238 2131 4238 
Q 1616 4238 1336 4038 
Q 1056 3838 1056 3469 
Q 1056 3159 1242 3001 
Q 1428 2844 1947 2747 
L 2328 2669 
Q 3034 2534 3370 2195 
Q 3706 1856 3706 1288 
Q 3706 609 3251 259 
Q 2797 -91 1919 -91 
Q 1588 -91 1214 -16 
Q 841 59 441 206 
L 441 856 
Q 825 641 1194 531 
Q 1563 422 1919 422 
Q 2459 422 2753 634 
Q 3047 847 3047 1241 
Q 3047 1584 2836 1778 
Q 2625 1972 2144 2069 
L 1759 2144 
Q 1053 2284 737 2584 
Q 422 2884 422 3419 
Q 422 4038 858 4394 
Q 1294 4750 2059 4750 
Q 2388 4750 2728 4690 
Q 3069 4631 3425 4513 
z
" transform="scale(0.015625)"/>
       <path id="DejaVuSans-68" d="M 3513 2113 
L 3513 0 
L 2938 0 
L 2938 2094 
Q 2938 2591 2744 2837 
Q 2550 3084 2163 3084 
Q 1697 3084 1428 2787 
Q 1159 2491 1159 1978 
L 1159 0 
L 581 0 
L 581 4863 
L 1159 4863 
L 1159 2956 
Q 1366 3272 1645 3428 
Q 1925 3584 2291 3584 
Q 2894 3584 3203 3211 
Q 3513 2838 3513 2113 
z
" transform="scale(0.015625)"/>
       <path id="DejaVuSans-69" d="M 603 3500 
L 1178 3500 
L 1178 0 
L 603 0 
L 603 3500 
z
M 603 4863 
L 1178 4863 
L 1178 4134 
L 603 4134 
L 603 4863 
z
" transform="scale(0.015625)"/>
       <path id="DejaVuSans-66" d="M 2375 4863 
L 2375 4384 
L 1825 4384 
Q 1516 4384 1395 4259 
Q 1275 4134 1275 3809 
L 1275 3500 
L 2222 3500 
L 2222 3053 
L 1275 3053 
L 1275 0 
L 697 0 
L 697 3053 
L 147 3053 
L 147 3500 
L 697 3500 
L 697 3744 
Q 697 4328 969 4595 
Q 1241 4863 1831 4863 
L 2375 4863 
z
" transform="scale(0.015625)"/>
       <path id="DejaVuSans-74" d="M 1172 4494 
L 1172 3500 
L 2356 3500 
L 2356 3053 
L 1172 3053 
L 1172 1153 
Q 1172 725 1289 603 
Q 1406 481 1766 481 
L 2356 481 
L 2356 0 
L 1766 0 
Q 1100 0 847 248 
Q 594 497 594 1153 
L 594 3053 
L 172 3053 
L 172 3500 
L 594 3500 
L 594 4494 
L 1172 4494 
z
" transform="scale(0.015625)"/>
       <path id="DejaVuSans-28" d="M 1984 4856 
Q 1566 4138 1362 3434 
Q 1159 2731 1159 2009 
Q 1159 1288 1364 580 
Q 1569 -128 1984 -844 
L 1484 -844 
Q 1016 -109 783 600 
Q 550 1309 550 2009 
Q 550 2706 781 3412 
Q 1013 4119 1484 4856 
L 1984 4856 
z
" transform="scale(0.015625)"/>
       <path id="DejaVuSans-2f" d="M 1625 4666 
L 2156 4666 
L 531 -594 
L 0 -594 
L 1625 4666 
z
" transform="scale(0.015625)"/>
       <path id="DejaVuSans-63" d="M 3122 3366 
L 3122 2828 
Q 2878 2963 2633 3030 
Q 2388 3097 2138 3097 
Q 1578 3097 1268 2742 
Q 959 2388 959 1747 
Q 959 1106 1268 751 
Q 1578 397 2138 397 
Q 2388 397 2633 464 
Q 2878 531 3122 666 
L 3122 134 
Q 2881 22 2623 -34 
Q 2366 -91 2075 -91 
Q 1284 -91 818 406 
Q 353 903 353 1747 
Q 353 2603 823 3093 
Q 1294 3584 2113 3584 
Q 2378 3584 2631 3529 
Q 2884 3475 3122 3366 
z
" transform="scale(0.015625)"/>
       <path id="DejaVuSans-29" d="M 513 4856 
L 1013 4856 
Q 1481 4119 1714 3412 
Q 1947 2706 1947 2009 
Q 1947 1309 1714 600 
Q 1481 -109 1013 -844 
L 513 -844 
Q 928 -128 1133 580 
Q 1338 1288 1338 2009 
Q 1338 2731 1133 3434 
Q 928 4138 513 4856 
z
" transform="scale(0.015625)"/>
      </defs>
      <use xlink:href="#DejaVuSans-52"/>
      <use xlink:href="#DejaVuSans-61" x="67.232422"/>
      <use xlink:href="#DejaVuSans-6d" x="128.511719"/>
      <use xlink:href="#DejaVuSans-61" x="225.923828"/>
      <use xlink:href="#DejaVuSans-6e" x="287.203125"/>
      <use xlink:href="#DejaVuSans-20" x="350.582031"/>
      <use xlink:href="#DejaVuSans-53" x="382.369141"/>
      <use xlink:href="#DejaVuSans-68" x="445.845703"/>
      <use xlink:href="#DejaVuSans-69" x="509.224609"/>
      <use xlink:href="#DejaVuSans-66" x="537.007812"/>
      <use xlink:href="#DejaVuSans-74" x="570.462891"/>
      <use xlink:href="#DejaVuSans-20" x="609.671875"/>
      <use xlink:href="#DejaVuSans-28" x="641.458984"/>
      <use xlink:href="#DejaVuSans-31" x="680.472656"/>
      <use xlink:href="#DejaVuSans-2f" x="744.095703"/>
      <use xlink:href="#DejaVuSans-63" x="777.787109"/>
      <use xlink:href="#DejaVuSans-6d" x="832.767578"/>
      <use xlink:href="#DejaVuSans-29" x="930.179688"/>
     </g>
    </g>
   </g>
   <g id="matplotlib.axis_2">
    <g id="ytick_1">
     <g id="line2d_9">
      <defs>
       <path id="m16029bf451" d="M 0 0 
L -3.5 0 
" style="stroke: #000000; stroke-width: 0.8"/>
      </defs>
      <g>
       <use xlink:href="#m16029bf451" x="46.965625" y="243.442021" style="stroke: #000000; stroke-width: 0.8"/>
      </g>
     </g>
     <g id="text_10">
      <!-- 0 -->
      <g transform="translate(33.603125 247.24124) scale(0.1 -0.1)">
       <use xlink:href="#DejaVuSans-30"/>
      </g>
     </g>
    </g>
    <g id="ytick_2">
     <g id="line2d_10">
      <g>
       <use xlink:href="#m16029bf451" x="46.965625" y="200.40794" style="stroke: #000000; stroke-width: 0.8"/>
      </g>
     </g>
     <g id="text_11">
      <!-- 100 -->
      <g transform="translate(20.878125 204.207159) scale(0.1 -0.1)">
       <use xlink:href="#DejaVuSans-31"/>
       <use xlink:href="#DejaVuSans-30" x="63.623047"/>
       <use xlink:href="#DejaVuSans-30" x="127.246094"/>
      </g>
     </g>
    </g>
    <g id="ytick_3">
     <g id="line2d_11">
      <g>
       <use xlink:href="#m16029bf451" x="46.965625" y="157.37386" style="stroke: #000000; stroke-width: 0.8"/>
      </g>
     </g>
     <g id="text_12">
      <!-- 200 -->
      <g transform="translate(20.878125 161.173079) scale(0.1 -0.1)">
       <use xlink:href="#DejaVuSans-32"/>
       <use xlink:href="#DejaVuSans-30" x="63.623047"/>
       <use xlink:href="#DejaVuSans-30" x="127.246094"/>
      </g>
     </g>
    </g>
    <g id="ytick_4">
     <g id="line2d_12">
      <g>
       <use xlink:href="#m16029bf451" x="46.965625" y="114.339779" style="stroke: #000000; stroke-width: 0.8"/>
      </g>
     </g>
     <g id="text_13">
      <!-- 300 -->
      <g transform="translate(20.878125 118.138998) scale(0.1 -0.1)">
       <use xlink:href="#DejaVuSans-33"/>
       <use xlink:href="#DejaVuSans-30" x="63.623047"/>
       <use xlink:href="#DejaVuSans-30" x="127.246094"/>
      </g>
     </g>
    </g>
    <g id="ytick_5">
     <g id="line2d_13">
      <g>
       <use xlink:href="#m16029bf451" x="46.965625" y="71.305699" style="stroke: #000000; stroke-width: 0.8"/>
      </g>
     </g>
     <g id="text_14">
      <!-- 400 -->
      <g transform="translate(20.878125 75.104917) scale(0.1 -0.1)">
       <defs>
        <path id="DejaVuSans-34" d="M 2419 4116 
L 825 1625 
L 2419 1625 
L 2419 4116 
z
M 2253 4666 
L 3047 4666 
L 3047 1625 
L 3713 1625 
L 3713 1100 
L 3047 1100 
L 3047 0 
L 2419 0 
L 2419 1100 
L 313 1100 
L 313 1709 
L 2253 4666 
z
" transform="scale(0.015625)"/>
       </defs>
       <use xlink:href="#DejaVuSans-34"/>
       <use xlink:href="#DejaVuSans-30" x="63.623047"/>
       <use xlink:href="#DejaVuSans-30" x="127.246094"/>
      </g>
     </g>
    </g>
    <g id="ytick_6">
     <g id="line2d_14">
      <g>
       <use xlink:href="#m16029bf451" x="46.965625" y="28.271618" style="stroke: #000000; stroke-width: 0.8"/>
      </g>
     </g>
     <g id="text_15">
      <!-- 500 -->
      <g transform="translate(20.878125 32.070837) scale(0.1 -0.1)">
       <use xlink:href="#DejaVuSans-35"/>
       <use xlink:href="#DejaVuSans-30" x="63.623047"/>
       <use xlink:href="#DejaVuSans-30" x="127.246094"/>
      </g>
     </g>
    </g>
    <g id="text_16">
     <!-- Intensity (a.u) -->
     <g transform="translate(14.798438 175.331) rotate(-90) scale(0.1 -0.1)">
      <defs>
       <path id="DejaVuSans-49" d="M 628 4666 
L 1259 4666 
L 1259 0 
L 628 0 
L 628 4666 
z
" transform="scale(0.015625)"/>
       <path id="DejaVuSans-65" d="M 3597 1894 
L 3597 1613 
L 953 1613 
Q 991 1019 1311 708 
Q 1631 397 2203 397 
Q 2534 397 2845 478 
Q 3156 559 3463 722 
L 3463 178 
Q 3153 47 2828 -22 
Q 2503 -91 2169 -91 
Q 1331 -91 842 396 
Q 353 884 353 1716 
Q 353 2575 817 3079 
Q 1281 3584 2069 3584 
Q 2775 3584 3186 3129 
Q 3597 2675 3597 1894 
z
M 3022 2063 
Q 3016 2534 2758 2815 
Q 2500 3097 2075 3097 
Q 1594 3097 1305 2825 
Q 1016 2553 972 2059 
L 3022 2063 
z
" transform="scale(0.015625)"/>
       <path id="DejaVuSans-73" d="M 2834 3397 
L 2834 2853 
Q 2591 2978 2328 3040 
Q 2066 3103 1784 3103 
Q 1356 3103 1142 2972 
Q 928 2841 928 2578 
Q 928 2378 1081 2264 
Q 1234 2150 1697 2047 
L 1894 2003 
Q 2506 1872 2764 1633 
Q 3022 1394 3022 966 
Q 3022 478 2636 193 
Q 2250 -91 1575 -91 
Q 1294 -91 989 -36 
Q 684 19 347 128 
L 347 722 
Q 666 556 975 473 
Q 1284 391 1588 391 
Q 1994 391 2212 530 
Q 2431 669 2431 922 
Q 2431 1156 2273 1281 
Q 2116 1406 1581 1522 
L 1381 1569 
Q 847 1681 609 1914 
Q 372 2147 372 2553 
Q 372 3047 722 3315 
Q 1072 3584 1716 3584 
Q 2034 3584 2315 3537 
Q 2597 3491 2834 3397 
z
" transform="scale(0.015625)"/>
       <path id="DejaVuSans-79" d="M 2059 -325 
Q 1816 -950 1584 -1140 
Q 1353 -1331 966 -1331 
L 506 -1331 
L 506 -850 
L 844 -850 
Q 1081 -850 1212 -737 
Q 1344 -625 1503 -206 
L 1606 56 
L 191 3500 
L 800 3500 
L 1894 763 
L 2988 3500 
L 3597 3500 
L 2059 -325 
z
" transform="scale(0.015625)"/>
       <path id="DejaVuSans-2e" d="M 684 794 
L 1344 794 
L 1344 0 
L 684 0 
L 684 794 
z
" transform="scale(0.015625)"/>
       <path id="DejaVuSans-75" d="M 544 1381 
L 544 3500 
L 1119 3500 
L 1119 1403 
Q 1119 906 1312 657 
Q 1506 409 1894 409 
Q 2359 409 2629 706 
Q 2900 1003 2900 1516 
L 2900 3500 
L 3475 3500 
L 3475 0 
L 2900 0 
L 2900 538 
Q 2691 219 2414 64 
Q 2138 -91 1772 -91 
Q 1169 -91 856 284 
Q 544 659 544 1381 
z
M 1991 3584 
L 1991 3584 
z
" transform="scale(0.015625)"/>
      </defs>
      <use xlink:href="#DejaVuSans-49"/>
      <use xlink:href="#DejaVuSans-6e" x="29.492188"/>
      <use xlink:href="#DejaVuSans-74" x="92.871094"/>
      <use xlink:href="#DejaVuSans-65" x="132.080078"/>
      <use xlink:href="#DejaVuSans-6e" x="193.603516"/>
      <use xlink:href="#DejaVuSans-73" x="256.982422"/>
      <use xlink:href="#DejaVuSans-69" x="309.082031"/>
      <use xlink:href="#DejaVuSans-74" x="336.865234"/>
      <use xlink:href="#DejaVuSans-79" x="376.074219"/>
      <use xlink:href="#DejaVuSans-20" x="435.253906"/>
      <use xlink:href="#DejaVuSans-28" x="467.041016"/>
      <use xlink:href="#DejaVuSans-61" x="506.054688"/>
      <use xlink:href="#DejaVuSans-2e" x="567.333984"/>
      <use xlink:href="#DejaVuSans-75" x="599.121094"/>
      <use xlink:href="#DejaVuSans-29" x="662.5"/>
     </g>
    </g>
   </g>
   <g id="line2d_15">
    <path d="M 63.198352 243.656758 
L 63.450025 243.942322 
L 63.953114 243.670482 
L 64.455859 244.300917 
L 64.707102 244.039437 
L 64.95826 245.24255 
L 65.460318 245.930531 
L 65.711218 246.193388 
L 65.962041 247.665343 
L 66.713977 258.674407 
L 66.964448 261.216 
L 67.214842 242.316813 
L 67.465141 234.156471 
L 67.715363 249.090631 
L 68.21554 124.191141 
L 68.465505 98.854826 
L 68.965184 92.919996 
L 69.214891 102.540695 
L 69.464511 99.344124 
L 69.714038 98.977473 
L 69.963478 99.950904 
L 70.212833 101.732085 
L 70.462187 101.462261 
L 70.71137 100.482375 
L 70.960467 98.942185 
L 71.209478 94.981329 
L 71.707329 82.538454 
L 72.20475 77.451826 
L 72.453418 66.414015 
L 72.950324 74.395115 
L 73.198734 71.125386 
L 73.446972 77.677325 
L 73.695125 78.617189 
L 74.191258 88.208625 
L 74.439239 90.66458 
L 74.687048 88.229712 
L 74.934857 87.789043 
L 75.430131 92.350225 
L 75.677597 92.289116 
L 76.172356 90.124933 
L 76.41965 90.117617 
L 76.666858 86.527714 
L 76.913894 86.385701 
L 77.16093 84.369555 
L 77.407881 80.996113 
L 77.654745 84.011511 
L 77.901438 81.395039 
L 78.148131 80.735757 
L 78.394738 78.476468 
L 78.641259 74.215663 
L 79.380307 70.153246 
L 79.626484 67.556139 
L 79.872576 66.472972 
L 80.118582 63.561286 
L 80.364502 64.028636 
L 81.101746 57.490038 
L 81.347323 49.627711 
L 81.592813 53.235258 
L 81.838304 49.249011 
L 82.083623 51.253108 
L 82.328856 45.348402 
L 82.574089 45.878582 
L 82.81915 47.594351 
L 83.064212 42.635103 
L 83.553991 50.747027 
L 83.798709 44.452863 
L 84.043427 45.082882 
L 84.532519 48.637927 
L 84.776979 51.793186 
L 85.021267 51.55822 
L 85.265556 50.229327 
L 85.509759 52.495932 
L 85.753875 57.527047 
L 86.485711 60.603553 
L 86.729484 63.753648 
L 86.973171 63.614648 
L 87.460289 69.076964 
L 87.703718 65.354516 
L 87.947148 68.083307 
L 88.433579 69.972503 
L 88.919751 75.519166 
L 89.162752 71.329798 
L 89.891067 66.974749 
L 90.133724 70.589181 
L 90.376295 70.341735 
L 90.61878 65.400132 
L 90.861094 68.488257 
L 91.103407 62.80862 
L 91.345635 60.066058 
L 91.587777 58.797843 
L 91.829833 56.923709 
L 92.071803 57.599774 
L 92.313687 52.477428 
L 92.555572 54.868832 
L 92.797284 46.914412 
L 94.487125 25.115068 
L 94.728237 23.562399 
L 94.969262 19.296 
L 95.45097 29.330257 
L 95.691738 27.393293 
L 95.93242 27.791358 
L 96.173017 26.249877 
L 96.654037 44.130968 
L 96.894376 43.613698 
L 97.134629 46.235334 
L 97.614963 60.952129 
L 98.5746 80.511549 
L 98.814338 91.605735 
L 99.05399 95.43835 
L 99.293555 95.295477 
L 100.25096 117.66115 
L 100.490097 120.114953 
L 100.729233 124.259135 
L 100.968198 132.818183 
L 101.207077 130.788696 
L 101.445956 138.410462 
L 101.684749 138.369149 
L 101.923371 145.655249 
L 102.161992 144.719688 
L 102.400527 142.791331 
L 102.877341 154.361474 
L 103.115619 150.130363 
L 103.591917 158.083922 
L 103.829937 157.602801 
L 104.067872 161.996581 
L 104.305806 157.364392 
L 104.543569 156.832491 
L 104.781332 159.840573 
L 105.018923 158.514263 
L 105.256513 159.294041 
L 105.494019 161.878237 
L 105.731438 159.611632 
L 106.206019 157.882092 
L 106.44318 158.806034 
L 106.680256 157.79086 
L 106.917246 159.627985 
L 107.154236 159.439496 
L 108.101165 162.47512 
L 108.337726 160.566128 
L 108.574115 163.847477 
L 108.810503 162.535368 
L 109.046806 158.09382 
L 109.283024 164.135375 
L 109.519241 161.223258 
L 109.755286 161.650587 
L 109.991246 158.77591 
L 110.227205 159.298344 
L 110.462993 157.393656 
L 110.698781 156.619472 
L 110.934483 156.846262 
L 111.405543 155.958039 
L 111.876346 144.887952 
L 112.346891 146.889036 
L 112.581992 142.864489 
L 112.817093 145.47881 
L 113.052022 145.206834 
L 113.286951 152.434408 
L 113.521708 145.313989 
L 113.991137 156.569553 
L 114.225723 152.610848 
L 114.460223 160.698243 
L 114.929051 167.225222 
L 115.631605 184.322231 
L 115.865676 182.694252 
L 116.09966 186.743759 
L 116.333559 184.091138 
L 116.567372 192.739267 
L 116.801099 190.725703 
L 117.03474 189.871046 
L 117.268295 190.84921 
L 117.735234 196.281402 
L 117.968618 196.388557 
L 118.20183 194.06859 
L 118.435041 195.517548 
L 118.668167 195.729275 
L 118.901207 199.050646 
L 119.134162 198.1224 
L 119.36703 203.172536 
L 119.599898 198.909063 
L 120.065206 204.644474 
L 120.297816 202.277986 
L 120.530341 203.85256 
L 120.995134 208.539445 
L 121.227401 208.23769 
L 121.459582 211.475144 
L 121.691678 218.20873 
L 121.923773 216.388861 
L 122.155697 220.187953 
L 122.387621 219.708252 
L 122.619373 221.576921 
L 123.082791 220.59626 
L 123.314372 226.353661 
L 123.545952 227.344219 
L 123.777361 229.449059 
L 124.008683 226.342257 
L 124.702308 233.891683 
L 124.933373 235.671615 
L 125.164353 229.184056 
L 125.626054 236.103936 
L 125.856861 234.16241 
L 126.087497 230.953187 
L 126.318133 232.328814 
L 126.548597 235.491819 
L 126.779061 233.284257 
L 127.009439 236.536127 
L 127.239732 232.279798 
L 127.469938 235.777823 
L 127.700145 235.109633 
L 127.93018 233.459621 
L 128.160214 236.249907 
L 128.61994 238.811898 
L 128.849718 239.501502 
L 129.079409 238.376393 
L 129.309014 236.139138 
L 129.538534 236.70581 
L 129.768053 238.670359 
L 129.997401 238.604044 
L 130.456011 236.093392 
L 130.685187 239.156735 
L 130.914277 243.946591 
L 131.143282 242.773607 
L 131.601119 246.292926 
L 131.829866 246.021122 
L 132.058612 243.39989 
L 132.287273 246.9782 
L 132.515848 243.070568 
L 132.972741 247.573702 
L 133.201058 245.998379 
L 133.429376 245.686442 
L 133.657522 243.389226 
L 133.885667 247.886151 
L 134.113727 241.922643 
L 134.341701 245.63743 
L 135.025194 240.632304 
L 135.252824 242.005694 
L 135.480455 241.079243 
L 135.707999 241.683098 
L 135.935458 239.35578 
L 136.162831 239.031975 
L 136.390118 241.414449 
L 136.617319 240.234428 
L 136.844521 243.553441 
L 137.29858 241.615069 
L 137.525523 243.428678 
L 137.752381 243.343787 
L 137.979239 243.82771 
L 138.432525 247.11841 
L 138.659125 243.379613 
L 138.885639 246.544447 
L 139.33841 244.836162 
L 139.564667 245.828859 
L 139.790838 246.035362 
L 140.017008 248.192123 
L 140.243007 244.319146 
L 140.469006 244.70625 
L 140.69492 244.806481 
L 140.920747 245.851026 
L 141.146574 243.042464 
L 141.37223 243.81153 
L 141.5978 245.653297 
L 141.823369 241.609397 
L 142.274251 242.531222 
L 142.499564 239.607878 
L 142.72479 239.358564 
L 142.950016 248.468229 
L 143.175071 239.366392 
L 143.400125 240.900742 
L 143.849977 239.213312 
L 144.074774 239.721613 
L 144.524196 237.647955 
L 144.748821 242.353405 
L 144.973274 244.427359 
L 145.197728 244.357704 
L 145.422096 240.867959 
L 145.870659 244.959037 
L 146.094855 244.607543 
L 146.542903 243.027177 
L 146.767185 243.735044 
L 146.990436 243.763411 
L 147.214546 247.497794 
L 147.438656 246.648934 
L 147.661908 245.088578 
L 147.885159 245.331329 
L 148.109269 246.784831 
L 148.332521 244.048238 
L 148.555772 244.163337 
L 148.779023 241.553346 
L 149.002275 233.961441 
L 149.225526 249.690699 
L 149.448777 243.768454 
L 149.894421 243.443965 
L 150.117673 241.708996 
L 150.340066 245.92294 
L 150.562458 243.041571 
L 150.78571 246.574179 
L 151.008102 242.780488 
L 151.230495 245.648516 
L 151.452888 240.972235 
L 151.67528 243.069098 
L 152.120066 241.769407 
L 152.342459 245.004632 
L 152.563993 243.681303 
L 152.786385 241.671276 
L 153.007919 243.656718 
L 153.230312 243.802652 
L 153.67338 245.465496 
L 153.894914 245.460031 
L 154.116448 246.701358 
L 154.337982 244.762883 
L 154.559516 245.482882 
L 154.78105 240.364968 
L 155.002584 244.293459 
L 155.22326 243.306437 
L 155.444794 243.566469 
L 155.665469 244.740764 
L 155.887003 243.997651 
L 156.107679 244.387596 
L 156.328354 242.590114 
L 156.549029 246.519022 
L 156.769705 240.626 
L 156.99038 237.913347 
L 157.211056 242.028339 
L 157.431731 242.736886 
L 157.652406 240.29027 
L 157.873082 241.097735 
L 158.092898 239.789693 
L 158.313574 243.457255 
L 158.533391 244.435872 
L 158.753207 240.751655 
L 158.973883 244.582592 
L 159.193699 244.460405 
L 159.413516 245.21308 
L 159.633333 244.535418 
L 159.85315 244.517714 
L 160.072966 243.668013 
L 160.291924 247.996619 
L 160.511741 242.064268 
L 160.731558 245.045398 
L 160.950516 243.018089 
L 161.169474 242.662028 
L 161.389291 244.346356 
L 161.608249 243.870996 
L 161.827207 242.439344 
L 162.046165 246.343671 
L 162.703039 238.580719 
L 162.921997 241.274399 
L 163.140955 241.965457 
L 163.578013 236.732405 
L 163.796112 243.90283 
L 164.01507 237.694346 
L 164.23317 236.49206 
L 164.451269 229.659625 
L 164.669368 230.141865 
L 165.105567 222.787082 
L 165.323667 222.172728 
L 165.541766 218.502437 
L 165.759865 219.02259 
L 165.977106 217.696323 
L 166.412446 209.166667 
L 166.630546 207.603798 
L 166.847787 204.085762 
L 167.065027 202.615761 
L 167.283127 202.219331 
L 167.500367 197.145096 
L 167.717608 201.537843 
L 167.934849 193.350351 
L 168.151231 197.973933 
L 168.368472 193.991989 
L 168.585713 195.219321 
L 168.802095 189.133011 
L 169.019335 186.665007 
L 169.235717 188.518485 
L 169.452958 182.084459 
L 169.66934 185.724282 
L 169.885722 184.721588 
L 170.102104 180.955245 
L 170.318487 181.583973 
L 170.534869 180.310164 
L 170.751251 177.478952 
L 170.967633 173.147572 
L 171.399538 170.97349 
L 171.61592 171.711525 
L 172.263349 161.08684 
L 172.478873 160.534283 
L 172.695255 155.887032 
L 172.910778 155.737704 
L 173.126302 147.548749 
L 173.341825 152.263993 
L 173.557349 152.053126 
L 173.772013 144.1908 
L 173.987537 148.171452 
L 174.20306 147.986406 
L 174.417725 143.148514 
L 174.633248 141.876857 
L 174.847913 148.216638 
L 175.492766 136.795393 
L 175.707431 139.916655 
L 175.922096 135.028414 
L 176.136761 142.830492 
L 176.351425 135.881779 
L 176.565231 140.762705 
L 176.779896 136.773876 
L 176.994561 146.480213 
L 177.208367 139.14032 
L 177.422173 145.223187 
L 178.06445 145.42889 
L 178.278256 147.191136 
L 178.492921 146.769402 
L 178.705869 147.792322 
L 178.919675 149.887221 
L 179.133481 149.596741 
L 179.347287 154.395041 
L 179.561093 156.091014 
L 179.77404 154.225917 
L 179.987847 157.707804 
L 180.200794 156.724476 
L 180.627548 166.653299 
L 180.840495 164.684059 
L 181.053443 168.276975 
L 181.26639 165.855877 
L 181.479337 169.226306 
L 181.692285 163.843604 
L 181.905232 166.131726 
L 182.117321 172.590711 
L 182.543216 173.707445 
L 182.755305 171.277311 
L 182.968252 176.002022 
L 183.180341 176.118645 
L 183.39243 174.037517 
L 183.816607 178.070671 
L 184.029555 178.045711 
L 184.240785 175.177489 
L 184.664963 176.776205 
L 185.08914 171.80706 
L 185.30037 178.290575 
L 185.512459 174.615034 
L 185.723689 174.838381 
L 185.934919 178.673578 
L 186.358238 173.066668 
L 186.569469 167.870302 
L 186.780699 169.972517 
L 186.991929 166.563788 
L 187.203159 166.336137 
L 187.414389 167.698596 
L 187.624761 161.885553 
L 187.835991 160.631109 
L 188.047221 160.679308 
L 188.257592 161.542571 
L 188.467964 155.460134 
L 188.679194 152.616873 
L 188.889565 154.203109 
L 189.310308 149.707769 
L 189.52068 150.540048 
L 189.731051 147.20921 
L 189.941423 149.112177 
L 190.151794 145.345834 
L 190.362166 149.366078 
L 190.572537 137.489533 
L 190.78205 142.594666 
L 190.992421 141.399609 
L 191.201934 136.644343 
L 191.411447 134.683711 
L 191.831331 123.0658 
L 192.040844 120.609415 
L 192.250357 116.342585 
L 192.45987 105.761796 
L 192.669383 107.644107 
L 193.715229 76.045903 
L 194.133396 61.715554 
L 194.342909 63.476078 
L 194.551563 52.868608 
L 194.760218 50.779303 
L 194.968872 40.152467 
L 195.177526 38.029166 
L 195.38618 37.137069 
L 195.594834 31.379109 
L 195.803488 35.545238 
L 196.219938 37.95945 
L 196.428592 38.244336 
L 196.636388 38.182367 
L 196.844183 47.785852 
L 197.052837 46.470731 
L 197.260633 58.866267 
L 197.468428 63.398186 
L 198.091815 88.768929 
L 198.29961 89.373988 
L 198.507406 95.958202 
L 198.715201 112.30814 
L 198.922138 115.372167 
L 199.129934 120.613718 
L 199.337729 136.568173 
L 199.544666 139.839193 
L 199.751603 145.431042 
L 200.166335 164.18056 
L 200.580209 172.318305 
L 200.787146 183.77742 
L 200.994083 184.518037 
L 201.201019 190.348724 
L 201.614034 205.443272 
L 201.820971 206.272926 
L 202.233986 223.200597 
L 202.440064 222.744909 
L 202.853079 230.545826 
L 203.059158 229.478495 
L 203.471314 233.632101 
L 203.677392 235.984043 
L 203.88347 236.798075 
L 204.089549 238.326086 
L 204.295627 237.484125 
L 204.706924 238.487464 
L 204.913003 236.144129 
L 205.118222 236.766919 
L 205.323442 241.159042 
L 205.52952 240.312071 
L 205.734739 241.340904 
L 205.939959 235.782213 
L 206.350398 244.536416 
L 206.555617 242.869216 
L 206.760837 249.848419 
L 206.966057 249.69483 
L 207.171276 244.588686 
L 207.375637 245.790615 
L 207.580856 244.736826 
L 207.785217 243.005272 
L 207.990437 243.267826 
L 208.194798 246.363265 
L 208.399159 244.70851 
L 208.604378 241.799139 
L 208.808739 240.662247 
L 209.217461 246.256153 
L 209.421822 242.009425 
L 209.626182 242.878145 
L 209.829685 242.940816 
L 210.034045 245.711815 
L 210.238406 238.869091 
L 210.441909 242.810745 
L 211.054132 245.37577 
L 211.257635 245.733091 
L 211.461137 245.815987 
L 211.664639 242.776546 
L 211.868141 244.980102 
L 212.071643 240.128207 
L 212.275146 242.725224 
L 212.68215 242.632713 
L 212.885652 246.685233 
L 213.088296 239.466515 
L 213.291798 246.038091 
L 213.494442 246.129654 
L 213.697944 241.217667 
L 213.900587 242.868217 
L 214.103231 245.957247 
L 214.305874 245.29135 
L 214.509377 246.229674 
L 214.71202 246.437438 
L 214.914664 243.339374 
L 215.117307 242.76247 
L 215.521736 240.20007 
L 215.724379 242.265043 
L 215.927023 246.004313 
L 216.331451 241.707472 
L 216.533236 243.506793 
L 216.735021 243.089795 
L 216.937665 239.412043 
L 217.139449 247.058472 
L 217.341234 243.149524 
L 217.543019 244.425574 
L 217.744804 243.48515 
L 217.946589 244.129611 
L 218.148374 246.574493 
L 218.350159 245.684449 
L 218.551085 244.027383 
L 218.954655 239.547153 
L 219.155581 242.393642 
L 219.357366 241.761424 
L 219.558292 245.440016 
L 219.759218 244.105288 
L 219.960145 239.27803 
L 220.161929 243.825714 
L 220.362856 243.977477 
L 220.563782 244.838055 
L 220.764708 243.194701 
L 220.964776 243.237042 
L 221.165702 244.323979 
L 221.366628 244.417169 
L 221.567554 245.621516 
L 221.968548 243.274287 
L 222.168616 245.245756 
L 222.56961 240.460943 
L 222.769677 247.045497 
L 222.969745 242.061905 
L 223.169812 241.375524 
L 223.36988 244.656348 
L 223.569947 240.156468 
L 223.770015 241.962462 
L 223.970082 242.227694 
L 224.17015 243.003904 
L 224.370218 237.018152 
L 224.569427 239.275246 
L 224.769494 240.078249 
L 224.968703 239.656786 
L 225.168771 238.485442 
L 225.567188 239.817062 
L 225.766397 242.074144 
L 225.965606 238.243848 
L 226.165674 238.05183 
L 226.364883 239.303666 
L 226.563233 241.325041 
L 226.762442 240.214413 
L 227.16086 235.913036 
L 227.35921 234.601659 
L 227.558419 238.134241 
L 227.756769 239.567904 
L 227.955978 235.761341 
L 228.353537 239.094546 
L 228.750238 236.844983 
L 228.948588 241.896482 
L 229.146938 237.734712 
L 229.345288 245.245386 
L 229.543639 246.497798 
L 229.741989 244.08832 
L 229.93948 245.203991 
L 230.336181 250.45025 
L 230.533673 246.332952 
L 230.929514 245.203677 
L 231.127865 245.312312 
L 231.522848 238.945304 
L 231.720339 243.931301 
L 231.917831 241.59684 
L 232.115323 242.944491 
L 232.312814 242.523239 
L 232.510306 243.962505 
L 232.707797 243.762097 
L 232.905289 239.426223 
L 233.101922 237.76858 
L 233.299413 243.178732 
L 233.496046 240.695186 
L 233.693538 240.28764 
L 233.890171 240.191614 
L 234.284295 237.492 
L 234.480928 238.962302 
L 234.677561 236.828371 
L 234.874194 240.815797 
L 235.070827 240.869117 
L 235.26746 236.658387 
L 235.464093 238.181836 
L 235.659867 238.109582 
L 235.8565 237.07259 
L 236.053133 239.20223 
L 236.248907 236.996376 
L 236.44554 237.512527 
L 236.641315 232.37344 
L 236.837948 231.46271 
L 237.033722 236.788479 
L 237.229496 233.948875 
L 237.42527 234.247531 
L 237.621903 232.491483 
L 237.817678 234.892268 
L 238.013452 234.707824 
L 238.208368 234.347973 
L 238.404142 237.843588 
L 238.79569 231.901098 
L 238.990606 238.18472 
L 239.18638 235.84401 
L 239.381296 239.00865 
L 239.57707 239.975604 
L 239.966901 242.947486 
L 240.162676 242.370477 
L 240.357591 239.107973 
L 240.552507 245.410546 
L 240.747422 242.357502 
L 240.942338 242.457259 
L 241.137254 240.144177 
L 241.332169 242.002647 
L 241.526226 239.239158 
L 241.721142 242.47239 
L 242.110114 237.8951 
L 242.30503 235.975092 
L 242.499087 235.744988 
L 242.88806 241.731322 
L 243.082117 239.326676 
L 243.276173 242.183674 
L 243.47023 247.577011 
L 243.664287 241.190508 
L 243.858344 243.752326 
L 244.052401 238.507905 
L 244.246458 242.383976 
L 244.440515 237.306179 
L 244.634572 238.092584 
L 244.82777 243.954363 
L 245.021827 239.485218 
L 245.215026 241.841429 
L 245.409083 242.344527 
L 245.602281 240.434941 
L 245.795479 241.492091 
L 245.989536 241.84358 
L 246.182734 243.024393 
L 246.569131 241.189454 
L 246.762329 241.372478 
L 247.148726 237.541919 
L 247.534264 240.457005 
L 247.727462 244.055171 
L 247.919802 238.556018 
L 248.113 242.220602 
L 248.30534 236.587122 
L 248.498538 239.414354 
L 248.690878 247.00137 
L 248.883217 238.921334 
L 249.076416 239.44545 
L 249.268755 241.41571 
L 249.461095 241.217348 
L 249.653435 241.188404 
L 249.845774 242.964192 
L 250.038114 248.007937 
L 250.229595 238.431778 
L 250.421934 242.767303 
L 250.805755 239.079613 
L 250.998095 243.780169 
L 251.381915 237.953325 
L 251.764877 240.894752 
L 251.957217 237.893035 
L 252.340179 241.191085 
L 252.53166 238.970135 
L 252.723141 243.517194 
L 252.914622 241.548982 
L 253.106103 242.934722 
L 253.296725 245.364844 
L 253.488206 239.214047 
L 253.679687 243.173478 
L 254.06179 241.401371 
L 254.443894 246.230987 
L 254.634516 241.8564 
L 254.825138 244.493658 
L 255.015761 242.078663 
L 255.206383 245.649829 
L 255.77825 246.209767 
L 255.968872 245.549387 
L 256.159494 246.724471 
L 256.350117 243.735149 
L 256.53988 243.798344 
L 256.730503 242.108502 
L 256.921125 243.929937 
L 257.110889 242.936982 
L 257.301511 239.947129 
L 257.491275 240.511744 
L 257.681038 240.643179 
L 257.870802 242.10577 
L 258.061424 238.716836 
L 258.440952 247.853057 
L 258.630715 241.844841 
L 258.820479 239.434369 
L 259.009384 244.896207 
L 259.388911 239.171706 
L 259.76758 239.647173 
L 259.957344 236.387831 
L 260.146249 243.496864 
L 260.335154 242.297719 
L 260.524917 244.222853 
L 260.713822 240.550828 
L 260.902727 242.70001 
L 261.091632 236.282785 
L 261.281396 239.660147 
L 261.470301 238.45889 
L 261.659206 241.931258 
L 261.847252 240.452121 
L 262.036157 245.970377 
L 262.413967 243.428783 
L 262.602014 249.211643 
L 262.790919 240.675747 
L 262.978965 246.639793 
L 263.16787 240.174383 
L 263.544821 241.821517 
L 263.732868 247.38921 
L 263.920914 247.144518 
L 264.297007 241.115125 
L 264.485053 247.267703 
L 264.673099 243.842734 
L 264.861146 242.51063 
L 265.049192 244.171479 
L 265.237238 243.841263 
L 265.424426 242.642538 
L 265.987706 245.589155 
L 266.175753 239.30997 
L 266.36294 241.937511 
L 266.550128 246.787564 
L 266.925362 242.494398 
L 267.11255 245.511091 
L 267.299737 243.859544 
L 267.486925 247.499687 
L 267.674113 242.600042 
L 267.861301 246.084847 
L 268.048488 240.855303 
L 268.234817 243.537051 
L 268.422005 240.086972 
L 268.609193 240.331191 
L 268.982709 244.372465 
L 269.169038 242.317157 
L 269.356226 242.23547 
L 269.542555 241.86097 
L 269.728884 247.304687 
L 269.915213 246.316457 
L 270.102401 240.201645 
L 270.475059 241.655151 
L 270.847717 240.53454 
L 271.033187 242.78548 
L 271.219516 239.566169 
L 271.592174 245.521286 
L 271.777645 243.091056 
L 271.963974 243.663548 
L 272.149444 247.009615 
L 272.335773 240.352518 
L 272.706714 243.792513 
L 272.892184 244.623199 
L 273.078513 241.360919 
L 273.263984 246.743961 
L 273.449454 246.55054 
L 273.634924 241.122531 
L 273.820395 244.88297 
L 274.005006 244.862533 
L 274.561417 245.799282 
L 274.746029 242.221075 
L 274.931499 242.905778 
L 275.116111 238.687659 
L 275.486193 247.129336 
L 275.670805 242.356925 
L 275.856275 244.64358 
L 276.225499 239.977756 
L 276.41011 246.909492 
L 276.594722 242.810431 
L 276.963946 244.782369 
L 277.148557 243.240614 
L 277.33231 243.432303 
L 277.516922 239.147069 
L 277.701534 245.935446 
L 277.885287 245.171367 
L 278.069898 243.848092 
L 278.253651 246.624086 
L 278.438263 242.454053 
L 278.622016 246.090941 
L 278.805769 242.030439 
L 278.990381 240.874896 
L 279.174134 244.791772 
L 279.357887 243.521974 
L 279.725393 242.773237 
L 279.909146 240.979172 
L 280.275794 245.430458 
L 280.459547 242.348254 
L 280.6433 244.403355 
L 280.826194 244.774072 
L 281.009947 243.198116 
L 281.192842 243.302339 
L 281.376595 246.380651 
L 281.559489 246.712495 
L 281.743242 241.920172 
L 281.926136 241.062013 
L 282.109031 242.943127 
L 282.291925 241.48379 
L 282.47482 245.507941 
L 282.657714 239.625742 
L 282.840608 244.624038 
L 283.206397 242.340374 
L 283.389292 241.056814 
L 283.937116 244.05286 
L 284.302046 242.084705 
L 284.484082 242.533219 
L 284.666976 241.073361 
L 284.849012 245.867887 
L 285.031048 242.243139 
L 285.213083 243.253064 
L 285.395119 241.238414 
L 285.577155 246.642522 
L 285.941226 242.599358 
L 286.123262 246.263925 
L 286.305298 238.471456 
L 286.669369 244.532634 
L 286.850546 243.10981 
L 287.032582 244.184979 
L 287.213759 241.65263 
L 287.395795 245.622773 
L 287.576972 243.558537 
L 287.759008 247.913391 
L 287.940185 242.931886 
L 288.121362 244.322559 
L 288.302539 240.409254 
L 288.483716 241.018359 
L 288.664893 243.955732 
L 288.84607 242.037109 
L 289.027247 242.061905 
L 289.570778 247.918297 
L 289.932274 241.119274 
L 290.113451 244.4811 
L 290.293769 244.097671 
L 290.474946 241.040633 
L 290.655265 245.637327 
L 290.836442 243.888018 
L 291.197079 245.411966 
L 291.377397 241.460521 
L 291.557715 247.039666 
L 291.738892 244.487457 
L 291.919211 239.487004 
L 292.098671 247.364732 
L 292.459307 240.585445 
L 292.639626 241.252916 
L 292.999404 244.671475 
L 293.179722 243.784581 
L 293.359182 239.597847 
L 293.539501 240.806605 
L 293.899279 244.299079 
L 294.078739 244.362851 
L 294.438517 247.124133 
L 294.617976 242.263206 
L 294.797436 244.160604 
L 294.976896 241.428422 
L 295.335815 246.365576 
L 295.514417 243.398735 
L 295.693876 245.136385 
L 295.873336 237.838726 
L 296.052796 244.838843 
L 296.231397 241.935777 
L 296.410857 244.989453 
L 296.589458 244.52197 
L 296.768917 245.227264 
L 296.947519 241.542574 
L 297.126978 243.00958 
L 297.305579 242.601247 
L 297.662782 240.340228 
L 297.841383 245.103498 
L 298.019984 238.142675 
L 298.377186 244.495706 
L 298.555787 244.470858 
L 298.734388 243.484362 
L 298.912989 240.174224 
L 299.090732 247.609162 
L 299.269333 240.499975 
L 299.447934 243.77854 
L 299.625676 240.303296 
L 299.804277 243.773917 
L 299.98202 239.45895 
L 300.159762 243.424738 
L 300.516106 239.822261 
L 300.871591 242.688029 
L 301.049333 246.822025 
L 301.227075 245.17904 
L 301.404818 239.222663 
L 301.58256 245.349296 
L 301.760303 244.222435 
L 302.114929 244.75348 
L 302.292671 243.543145 
L 302.470414 247.101282 
L 302.647298 240.461102 
L 302.82504 241.184677 
L 303.001924 243.278174 
L 303.179666 243.438764 
L 303.35655 243.273289 
L 303.533434 242.77476 
L 303.710318 244.042932 
L 303.88806 247.395252 
L 304.064944 243.726796 
L 304.241828 243.978949 
L 304.418711 242.177947 
L 304.595595 243.254535 
L 304.772479 249.829311 
L 305.302271 239.056203 
L 305.479155 245.323028 
L 305.65518 246.16091 
L 305.832064 244.631918 
L 306.008089 240.43137 
L 306.184973 244.335008 
L 306.360998 244.638696 
L 306.537023 241.499131 
L 306.713907 241.287744 
L 306.889932 238.397824 
L 307.065957 245.296656 
L 307.241982 239.89507 
L 307.418007 239.250347 
L 307.594033 239.117612 
L 307.946083 248.009701 
L 308.297274 242.58013 
L 308.4733 238.897063 
L 308.649325 241.870795 
L 308.824491 238.247463 
L 309.000516 240.794362 
L 309.175683 238.624485 
L 309.351708 245.423155 
L 309.526874 241.093793 
L 309.702899 243.926365 
L 309.878066 241.656515 
L 310.053232 242.992035 
L 310.228399 236.213371 
L 310.578732 240.445394 
L 310.753898 237.040271 
L 310.929064 244.270608 
L 311.104231 237.5788 
L 311.279397 244.549761 
L 311.454564 237.369353 
L 311.804038 241.290683 
L 312.153512 239.202648 
L 312.328679 234.512277 
L 312.502987 241.377465 
L 312.677294 238.567981 
L 312.852461 240.012794 
L 313.026769 242.756953 
L 313.724 239.417766 
L 313.898308 240.154316 
L 314.072615 236.826048 
L 314.246923 238.541945 
L 314.421231 238.373596 
L 314.595539 239.864236 
L 315.117604 247.104277 
L 315.291053 241.317373 
L 315.46536 251.606318 
L 315.63881 243.170799 
L 315.813117 241.415606 
L 315.986567 247.731981 
L 316.160016 235.439059 
L 316.334323 239.767367 
L 316.507773 248.853901 
L 316.681222 244.8826 
L 316.854671 249.958758 
L 317.201569 236.882896 
L 317.375018 242.983837 
L 317.548467 244.50495 
L 317.721058 243.597831 
L 317.894507 239.660203 
L 318.067956 242.532539 
L 318.240547 242.632559 
L 318.413996 240.534122 
L 318.586586 244.557219 
L 318.932626 243.283007 
L 319.106075 238.860613 
L 319.451256 246.057215 
L 319.623846 239.200182 
L 319.797296 242.868794 
L 319.969886 242.804286 
L 320.142477 241.904624 
L 320.487657 238.259039 
L 320.659389 241.882246 
L 320.83198 240.682525 
L 321.00457 245.375194 
L 321.177161 244.671057 
L 321.348893 238.197199 
L 321.521483 243.13865 
L 321.693215 235.826538 
L 322.037537 239.970298 
L 322.381859 237.861835 
L 322.553591 238.409702 
L 322.726182 231.681883 
L 322.897914 239.467776 
L 323.069645 237.209481 
L 323.241377 244.243604 
L 323.584841 238.5935 
L 323.756573 241.659722 
L 323.928304 242.06926 
L 324.099178 241.988308 
L 324.613514 242.287688 
L 324.785246 240.502656 
L 324.956119 233.479029 
L 325.127851 233.208904 
L 325.470456 238.570434 
L 325.641329 234.318538 
L 325.812203 233.047612 
L 325.983076 227.02581 
L 326.154807 235.360264 
L 326.325681 230.30845 
L 326.496554 232.842254 
L 326.667427 231.686745 
L 327.009173 235.779631 
L 327.179188 226.496921 
L 327.350061 229.935258 
L 327.520934 230.588042 
L 327.691807 237.348912 
L 328.032695 233.419642 
L 328.202709 226.35861 
L 328.713612 232.328341 
L 328.884485 233.174864 
L 329.224514 228.849724 
L 329.394528 234.264272 
L 329.734557 229.822724 
L 329.904572 232.159604 
L 330.074586 230.807215 
L 330.244601 228.247247 
L 330.414615 234.377494 
L 330.754644 231.13776 
L 331.093815 235.303545 
L 331.26297 231.852599 
L 331.432985 241.194446 
L 331.602141 231.799409 
L 331.772155 230.807731 
L 331.941311 236.354652 
L 332.110467 234.597269 
L 332.449637 237.873927 
L 332.618793 235.463072 
L 332.957105 235.209128 
L 333.126261 233.851618 
L 333.295416 234.528243 
L 333.464572 233.251422 
L 333.633728 238.986272 
L 333.802884 238.076833 
L 334.140337 238.07154 
L 334.309493 236.895505 
L 334.47779 238.772264 
L 334.646946 235.051709 
L 334.815243 235.660469 
L 334.984399 237.858693 
L 335.152696 235.234174 
L 335.658446 240.555187 
L 335.826743 240.286173 
L 335.995041 238.465 
L 336.163338 233.728971 
L 336.331635 241.541576 
L 336.499932 239.754706 
L 336.668229 245.10849 
L 336.836527 236.960959 
L 337.003965 237.101595 
L 337.340559 243.183512 
L 337.508857 241.608029 
L 338.012031 242.098992 
L 338.347767 242.707102 
L 338.683502 235.972294 
L 338.850941 240.469558 
L 339.018379 238.943841 
L 339.185818 243.081075 
L 339.353256 239.526247 
L 339.520695 240.888344 
L 339.688133 243.954152 
L 339.855572 244.075973 
L 340.02301 238.915524 
L 340.190449 240.292895 
L 340.357029 248.279611 
L 340.524467 236.782884 
L 340.858486 242.855449 
L 341.025924 240.844217 
L 341.193363 242.888913 
L 341.359943 239.134654 
L 341.526523 243.624937 
L 341.860541 238.464699 
L 342.027121 243.244764 
L 342.194559 242.412241 
L 342.361139 240.586077 
L 342.694299 245.442383 
L 343.194038 244.820876 
L 343.35976 250.318222 
L 343.692919 242.580711 
L 343.859499 245.190857 
L 344.1918 243.257319 
L 344.357522 244.379923 
L 344.524101 240.349312 
L 344.689823 244.190496 
L 344.856402 240.827197 
L 345.022124 240.845689 
L 345.354425 241.38834 
L 345.520146 239.359193 
L 345.685867 240.424803 
L 345.851588 240.525558 
L 346.01731 235.888894 
L 346.183031 237.803868 
L 346.348752 236.286701 
L 346.514473 236.400914 
L 346.680194 240.656941 
L 346.845916 240.375894 
L 347.010778 234.783349 
L 347.176499 234.106896 
L 347.342221 234.373191 
L 347.507083 236.026646 
L 347.672804 235.079423 
L 347.837667 237.484598 
L 348.003388 236.456987 
L 348.168251 239.254917 
L 348.333113 232.451762 
L 348.663697 244.379557 
L 348.828559 240.072732 
L 349.158284 242.317842 
L 349.323147 238.613124 
L 349.48801 240.354304 
L 349.652872 235.6782 
L 350.14746 249.102294 
L 350.311464 245.146416 
L 350.476326 244.726687 
L 350.805193 249.910861 
L 350.970055 244.978523 
L 351.134059 245.832534 
L 351.298922 244.560107 
L 351.462925 239.420762 
L 351.791792 247.367882 
L 352.1198 237.533184 
L 352.283804 241.455637 
L 352.447807 241.315587 
L 352.611811 247.226206 
L 352.775815 247.711703 
L 352.939819 238.511736 
L 353.267827 245.263667 
L 353.431831 241.79184 
L 353.595835 240.676376 
L 353.75898 245.209926 
L 354.086129 240.268098 
L 354.250133 245.05128 
L 354.413278 240.22061 
L 354.577282 245.14148 
L 354.740427 238.956579 
L 355.067576 241.281439 
L 355.393867 239.993829 
L 355.557871 241.353827 
L 355.721016 240.14302 
L 355.884161 239.990838 
L 356.047306 245.845982 
L 356.210452 242.93341 
L 356.373597 248.897064 
L 356.535883 242.004803 
L 356.699029 244.304329 
L 356.862174 244.649781 
L 357.025319 239.598475 
L 357.187606 246.909122 
L 357.676183 242.678997 
L 357.838469 245.65708 
L 358.001614 245.626087 
L 358.489333 246.132124 
L 358.651619 245.750059 
L 358.813906 245.852915 
L 358.976193 238.88114 
L 359.138479 240.212102 
L 359.300766 238.657019 
L 359.625339 241.993666 
L 359.949912 241.18809 
L 360.273626 242.33691 
L 360.435913 241.56595 
L 360.5982 237.105683 
L 360.921914 239.695977 
L 361.245629 238.904421 
L 361.730771 239.777243 
L 361.892199 242.181045 
L 362.053627 238.198447 
L 362.700197 240.969188 
L 362.861625 239.85856 
L 363.022194 241.456368 
L 363.183622 237.614862 
L 363.34505 238.260632 
L 363.506478 245.330171 
L 363.667906 244.435764 
L 363.989903 241.233163 
L 364.150472 243.314474 
L 364.3119 239.110124 
L 364.472469 241.071416 
L 364.794467 240.366965 
L 364.955894 242.850931 
L 365.116464 241.086284 
L 365.598171 245.000061 
L 365.759599 238.892673 
L 365.920169 247.184704 
L 366.080738 245.561893 
L 366.241307 242.745661 
L 366.401018 247.787732 
L 366.561587 248.124086 
L 366.722156 239.639715 
L 366.882725 244.90246 
L 367.363575 241.472919 
L 367.523285 244.972377 
L 367.843565 241.760899 
L 368.324414 244.969017 
L 368.484125 245.194799 
L 368.643835 244.169271 
L 368.803546 240.744877 
L 369.122967 247.245063 
L 369.282678 240.847105 
L 369.92152 243.982469 
L 370.081231 242.08628 
L 370.240941 247.775209 
L 370.399793 246.001636 
L 370.719214 238.239115 
L 371.037777 247.194791 
L 371.196629 242.659244 
L 371.356339 242.710674 
L 371.515191 241.855139 
L 371.992606 244.72049 
L 372.151458 240.294788 
L 372.31031 244.831437 
L 372.469161 244.014357 
L 372.628872 246.27832 
L 373.104569 238.377426 
L 373.263421 245.535259 
L 373.422273 238.962173 
L 373.581125 248.652975 
L 373.739977 238.94681 
L 373.89797 243.711562 
L 374.215674 239.031071 
L 374.532519 244.609802 
L 374.690513 244.525963 
L 375.007358 244.579231 
L 375.323344 245.372302 
L 375.482196 241.561699 
L 375.798183 248.678279 
L 375.956176 245.949311 
L 376.114169 238.010431 
L 376.272163 243.24634 
L 376.430156 244.000225 
L 376.588149 245.984879 
L 377.06127 237.490967 
L 377.219264 241.085126 
L 377.376398 241.147797 
L 377.534391 240.705587 
L 377.692385 239.858982 
L 377.849519 241.405046 
L 378.007513 240.825411 
L 378.321782 242.512416 
L 378.63691 238.350143 
L 378.794044 241.744667 
L 378.952038 242.74088 
L 379.109172 237.279239 
L 379.423441 245.383284 
L 379.580576 238.249529 
L 379.737711 241.2692 
L 379.894845 233.62797 
L 380.05198 239.984586 
L 380.208256 239.797413 
L 380.36539 244.240768 
L 380.522525 241.021406 
L 380.67966 243.207414 
L 380.835936 241.0586 
L 380.99307 241.044519 
L 381.149346 244.642637 
L 381.306481 239.301355 
L 381.619891 243.658452 
L 381.776167 246.17005 
L 382.245854 245.396259 
L 382.40213 245.578543 
L 382.558406 247.092615 
L 382.714682 247.054689 
L 383.027234 244.890273 
L 383.18351 242.189979 
L 383.339786 246.228887 
L 383.496062 238.875373 
L 383.652337 241.947542 
L 383.808613 236.195039 
L 384.120307 241.79478 
L 384.588276 238.432725 
L 384.743693 234.758002 
L 384.899969 234.322454 
L 385.211662 234.103066 
L 385.522497 234.374869 
L 385.83419 235.410571 
L 385.989608 231.441537 
L 386.145025 236.478504 
L 386.455859 230.306083 
L 386.611277 233.957869 
L 386.766694 234.967535 
L 386.922111 232.660951 
L 387.077529 232.948117 
L 387.387505 239.682684 
L 387.542922 233.277199 
L 387.69748 231.703314 
L 387.852898 233.196467 
L 387.852898 233.196467 
" clip-path="url(#p2a48d857e2)" style="fill: none; stroke: #1f77b4; stroke-width: 1.5; stroke-linecap: square"/>
   </g>
   <g id="patch_3">
    <path d="M 46.965625 273.312 
L 46.965625 7.2 
" style="fill: none; stroke: #000000; stroke-width: 0.8; stroke-linejoin: miter; stroke-linecap: square"/>
   </g>
   <g id="patch_4">
    <path d="M 404.085625 273.312 
L 404.085625 7.2 
" style="fill: none; stroke: #000000; stroke-width: 0.8; stroke-linejoin: miter; stroke-linecap: square"/>
   </g>
   <g id="patch_5">
    <path d="M 46.965625 273.312 
L 404.085625 273.312 
" style="fill: none; stroke: #000000; stroke-width: 0.8; stroke-linejoin: miter; stroke-linecap: square"/>
   </g>
   <g id="patch_6">
    <path d="M 46.965625 7.2 
L 404.085625 7.2 
" style="fill: none; stroke: #000000; stroke-width: 0.8; stroke-linejoin: miter; stroke-linecap: square"/>
   </g>
  </g>
 </g>
 <defs>
  <clipPath id="p2a48d857e2">
   <rect x="46.965625" y="7.2" width="357.12" height="266.112"/>
  </clipPath>
 </defs>
</svg>
