<?xml version="1.0" encoding="utf-8" standalone="no"?>
<!DOCTYPE svg PUBLIC "-//W3C//DTD SVG 1.1//EN"
  "http://www.w3.org/Graphics/SVG/1.1/DTD/svg11.dtd">
<svg xmlns:xlink="http://www.w3.org/1999/xlink" width="404.923125pt" height="310.86825pt" viewBox="0 0 404.923125 310.86825" xmlns="http://www.w3.org/2000/svg" version="1.1">
 <metadata>
  <rdf:RDF xmlns:dc="http://purl.org/dc/elements/1.1/" xmlns:cc="http://creativecommons.org/ns#" xmlns:rdf="http://www.w3.org/1999/02/22-rdf-syntax-ns#">
   <cc:Work>
    <dc:type rdf:resource="http://purl.org/dc/dcmitype/StillImage"/>
    <dc:date>2024-07-26T16:15:34.107487</dc:date>
    <dc:format>image/svg+xml</dc:format>
    <dc:creator>
     <cc:Agent>
      <dc:title>Matplotlib v3.8.4, https://matplotlib.org/</dc:title>
     </cc:Agent>
    </dc:creator>
   </cc:Work>
  </rdf:RDF>
 </metadata>
 <defs>
  <style type="text/css">*{stroke-linejoin: round; stroke-linecap: butt}</style>
 </defs>
 <g id="figure_1">
  <g id="patch_1">
   <path d="M 0 310.86825 
L 404.923125 310.86825 
L 404.923125 0 
L 0 0 
z
" style="fill: #ffffff"/>
  </g>
  <g id="axes_1">
   <g id="patch_2">
    <path d="M 40.603125 273.312 
L 397.723125 273.312 
L 397.723125 7.2 
L 40.603125 7.2 
z
" style="fill: #ffffff"/>
   </g>
   <g id="matplotlib.axis_1">
    <g id="xtick_1">
     <g id="line2d_1">
      <defs>
       <path id="me4ef79c449" d="M 0 0 
L 0 3.5 
" style="stroke: #000000; stroke-width: 0.8"/>
      </defs>
      <g>
       <use xlink:href="#me4ef79c449" x="54.355882" y="273.312" style="stroke: #000000; stroke-width: 0.8"/>
      </g>
     </g>
     <g id="text_1">
      <!-- 0 -->
      <g transform="translate(51.174632 287.910437) scale(0.1 -0.1)">
       <defs>
        <path id="DejaVuSans-30" d="M 2034 4250 
Q 1547 4250 1301 3770 
Q 1056 3291 1056 2328 
Q 1056 1369 1301 889 
Q 1547 409 2034 409 
Q 2525 409 2770 889 
Q 3016 1369 3016 2328 
Q 3016 3291 2770 3770 
Q 2525 4250 2034 4250 
z
M 2034 4750 
Q 2819 4750 3233 4129 
Q 3647 3509 3647 2328 
Q 3647 1150 3233 529 
Q 2819 -91 2034 -91 
Q 1250 -91 836 529 
Q 422 1150 422 2328 
Q 422 3509 836 4129 
Q 1250 4750 2034 4750 
z
" transform="scale(0.015625)"/>
       </defs>
       <use xlink:href="#DejaVuSans-30"/>
      </g>
     </g>
    </g>
    <g id="xtick_2">
     <g id="line2d_2">
      <g>
       <use xlink:href="#me4ef79c449" x="97.288836" y="273.312" style="stroke: #000000; stroke-width: 0.8"/>
      </g>
     </g>
     <g id="text_2">
      <!-- 500 -->
      <g transform="translate(87.745086 287.910437) scale(0.1 -0.1)">
       <defs>
        <path id="DejaVuSans-35" d="M 691 4666 
L 3169 4666 
L 3169 4134 
L 1269 4134 
L 1269 2991 
Q 1406 3038 1543 3061 
Q 1681 3084 1819 3084 
Q 2600 3084 3056 2656 
Q 3513 2228 3513 1497 
Q 3513 744 3044 326 
Q 2575 -91 1722 -91 
Q 1428 -91 1123 -41 
Q 819 9 494 109 
L 494 744 
Q 775 591 1075 516 
Q 1375 441 1709 441 
Q 2250 441 2565 725 
Q 2881 1009 2881 1497 
Q 2881 1984 2565 2268 
Q 2250 2553 1709 2553 
Q 1456 2553 1204 2497 
Q 953 2441 691 2322 
L 691 4666 
z
" transform="scale(0.015625)"/>
       </defs>
       <use xlink:href="#DejaVuSans-35"/>
       <use xlink:href="#DejaVuSans-30" x="63.623047"/>
       <use xlink:href="#DejaVuSans-30" x="127.246094"/>
      </g>
     </g>
    </g>
    <g id="xtick_3">
     <g id="line2d_3">
      <g>
       <use xlink:href="#me4ef79c449" x="140.221791" y="273.312" style="stroke: #000000; stroke-width: 0.8"/>
      </g>
     </g>
     <g id="text_3">
      <!-- 1000 -->
      <g transform="translate(127.496791 287.910437) scale(0.1 -0.1)">
       <defs>
        <path id="DejaVuSans-31" d="M 794 531 
L 1825 531 
L 1825 4091 
L 703 3866 
L 703 4441 
L 1819 4666 
L 2450 4666 
L 2450 531 
L 3481 531 
L 3481 0 
L 794 0 
L 794 531 
z
" transform="scale(0.015625)"/>
       </defs>
       <use xlink:href="#DejaVuSans-31"/>
       <use xlink:href="#DejaVuSans-30" x="63.623047"/>
       <use xlink:href="#DejaVuSans-30" x="127.246094"/>
       <use xlink:href="#DejaVuSans-30" x="190.869141"/>
      </g>
     </g>
    </g>
    <g id="xtick_4">
     <g id="line2d_4">
      <g>
       <use xlink:href="#me4ef79c449" x="183.154745" y="273.312" style="stroke: #000000; stroke-width: 0.8"/>
      </g>
     </g>
     <g id="text_4">
      <!-- 1500 -->
      <g transform="translate(170.429745 287.910437) scale(0.1 -0.1)">
       <use xlink:href="#DejaVuSans-31"/>
       <use xlink:href="#DejaVuSans-35" x="63.623047"/>
       <use xlink:href="#DejaVuSans-30" x="127.246094"/>
       <use xlink:href="#DejaVuSans-30" x="190.869141"/>
      </g>
     </g>
    </g>
    <g id="xtick_5">
     <g id="line2d_5">
      <g>
       <use xlink:href="#me4ef79c449" x="226.0877" y="273.312" style="stroke: #000000; stroke-width: 0.8"/>
      </g>
     </g>
     <g id="text_5">
      <!-- 2000 -->
      <g transform="translate(213.3627 287.910437) scale(0.1 -0.1)">
       <defs>
        <path id="DejaVuSans-32" d="M 1228 531 
L 3431 531 
L 3431 0 
L 469 0 
L 469 531 
Q 828 903 1448 1529 
Q 2069 2156 2228 2338 
Q 2531 2678 2651 2914 
Q 2772 3150 2772 3378 
Q 2772 3750 2511 3984 
Q 2250 4219 1831 4219 
Q 1534 4219 1204 4116 
Q 875 4013 500 3803 
L 500 4441 
Q 881 4594 1212 4672 
Q 1544 4750 1819 4750 
Q 2544 4750 2975 4387 
Q 3406 4025 3406 3419 
Q 3406 3131 3298 2873 
Q 3191 2616 2906 2266 
Q 2828 2175 2409 1742 
Q 1991 1309 1228 531 
z
" transform="scale(0.015625)"/>
       </defs>
       <use xlink:href="#DejaVuSans-32"/>
       <use xlink:href="#DejaVuSans-30" x="63.623047"/>
       <use xlink:href="#DejaVuSans-30" x="127.246094"/>
       <use xlink:href="#DejaVuSans-30" x="190.869141"/>
      </g>
     </g>
    </g>
    <g id="xtick_6">
     <g id="line2d_6">
      <g>
       <use xlink:href="#me4ef79c449" x="269.020654" y="273.312" style="stroke: #000000; stroke-width: 0.8"/>
      </g>
     </g>
     <g id="text_6">
      <!-- 2500 -->
      <g transform="translate(256.295654 287.910437) scale(0.1 -0.1)">
       <use xlink:href="#DejaVuSans-32"/>
       <use xlink:href="#DejaVuSans-35" x="63.623047"/>
       <use xlink:href="#DejaVuSans-30" x="127.246094"/>
       <use xlink:href="#DejaVuSans-30" x="190.869141"/>
      </g>
     </g>
    </g>
    <g id="xtick_7">
     <g id="line2d_7">
      <g>
       <use xlink:href="#me4ef79c449" x="311.953609" y="273.312" style="stroke: #000000; stroke-width: 0.8"/>
      </g>
     </g>
     <g id="text_7">
      <!-- 3000 -->
      <g transform="translate(299.228609 287.910437) scale(0.1 -0.1)">
       <defs>
        <path id="DejaVuSans-33" d="M 2597 2516 
Q 3050 2419 3304 2112 
Q 3559 1806 3559 1356 
Q 3559 666 3084 287 
Q 2609 -91 1734 -91 
Q 1441 -91 1130 -33 
Q 819 25 488 141 
L 488 750 
Q 750 597 1062 519 
Q 1375 441 1716 441 
Q 2309 441 2620 675 
Q 2931 909 2931 1356 
Q 2931 1769 2642 2001 
Q 2353 2234 1838 2234 
L 1294 2234 
L 1294 2753 
L 1863 2753 
Q 2328 2753 2575 2939 
Q 2822 3125 2822 3475 
Q 2822 3834 2567 4026 
Q 2313 4219 1838 4219 
Q 1578 4219 1281 4162 
Q 984 4106 628 3988 
L 628 4550 
Q 988 4650 1302 4700 
Q 1616 4750 1894 4750 
Q 2613 4750 3031 4423 
Q 3450 4097 3450 3541 
Q 3450 3153 3228 2886 
Q 3006 2619 2597 2516 
z
" transform="scale(0.015625)"/>
       </defs>
       <use xlink:href="#DejaVuSans-33"/>
       <use xlink:href="#DejaVuSans-30" x="63.623047"/>
       <use xlink:href="#DejaVuSans-30" x="127.246094"/>
       <use xlink:href="#DejaVuSans-30" x="190.869141"/>
      </g>
     </g>
    </g>
    <g id="xtick_8">
     <g id="line2d_8">
      <g>
       <use xlink:href="#me4ef79c449" x="354.886563" y="273.312" style="stroke: #000000; stroke-width: 0.8"/>
      </g>
     </g>
     <g id="text_8">
      <!-- 3500 -->
      <g transform="translate(342.161563 287.910437) scale(0.1 -0.1)">
       <use xlink:href="#DejaVuSans-33"/>
       <use xlink:href="#DejaVuSans-35" x="63.623047"/>
       <use xlink:href="#DejaVuSans-30" x="127.246094"/>
       <use xlink:href="#DejaVuSans-30" x="190.869141"/>
      </g>
     </g>
    </g>
    <g id="text_9">
     <!-- Raman Shift (1/cm) -->
     <g transform="translate(170.704531 301.588562) scale(0.1 -0.1)">
      <defs>
       <path id="DejaVuSans-52" d="M 2841 2188 
Q 3044 2119 3236 1894 
Q 3428 1669 3622 1275 
L 4263 0 
L 3584 0 
L 2988 1197 
Q 2756 1666 2539 1819 
Q 2322 1972 1947 1972 
L 1259 1972 
L 1259 0 
L 628 0 
L 628 4666 
L 2053 4666 
Q 2853 4666 3247 4331 
Q 3641 3997 3641 3322 
Q 3641 2881 3436 2590 
Q 3231 2300 2841 2188 
z
M 1259 4147 
L 1259 2491 
L 2053 2491 
Q 2509 2491 2742 2702 
Q 2975 2913 2975 3322 
Q 2975 3731 2742 3939 
Q 2509 4147 2053 4147 
L 1259 4147 
z
" transform="scale(0.015625)"/>
       <path id="DejaVuSans-61" d="M 2194 1759 
Q 1497 1759 1228 1600 
Q 959 1441 959 1056 
Q 959 750 1161 570 
Q 1363 391 1709 391 
Q 2188 391 2477 730 
Q 2766 1069 2766 1631 
L 2766 1759 
L 2194 1759 
z
M 3341 1997 
L 3341 0 
L 2766 0 
L 2766 531 
Q 2569 213 2275 61 
Q 1981 -91 1556 -91 
Q 1019 -91 701 211 
Q 384 513 384 1019 
Q 384 1609 779 1909 
Q 1175 2209 1959 2209 
L 2766 2209 
L 2766 2266 
Q 2766 2663 2505 2880 
Q 2244 3097 1772 3097 
Q 1472 3097 1187 3025 
Q 903 2953 641 2809 
L 641 3341 
Q 956 3463 1253 3523 
Q 1550 3584 1831 3584 
Q 2591 3584 2966 3190 
Q 3341 2797 3341 1997 
z
" transform="scale(0.015625)"/>
       <path id="DejaVuSans-6d" d="M 3328 2828 
Q 3544 3216 3844 3400 
Q 4144 3584 4550 3584 
Q 5097 3584 5394 3201 
Q 5691 2819 5691 2113 
L 5691 0 
L 5113 0 
L 5113 2094 
Q 5113 2597 4934 2840 
Q 4756 3084 4391 3084 
Q 3944 3084 3684 2787 
Q 3425 2491 3425 1978 
L 3425 0 
L 2847 0 
L 2847 2094 
Q 2847 2600 2669 2842 
Q 2491 3084 2119 3084 
Q 1678 3084 1418 2786 
Q 1159 2488 1159 1978 
L 1159 0 
L 581 0 
L 581 3500 
L 1159 3500 
L 1159 2956 
Q 1356 3278 1631 3431 
Q 1906 3584 2284 3584 
Q 2666 3584 2933 3390 
Q 3200 3197 3328 2828 
z
" transform="scale(0.015625)"/>
       <path id="DejaVuSans-6e" d="M 3513 2113 
L 3513 0 
L 2938 0 
L 2938 2094 
Q 2938 2591 2744 2837 
Q 2550 3084 2163 3084 
Q 1697 3084 1428 2787 
Q 1159 2491 1159 1978 
L 1159 0 
L 581 0 
L 581 3500 
L 1159 3500 
L 1159 2956 
Q 1366 3272 1645 3428 
Q 1925 3584 2291 3584 
Q 2894 3584 3203 3211 
Q 3513 2838 3513 2113 
z
" transform="scale(0.015625)"/>
       <path id="DejaVuSans-20" transform="scale(0.015625)"/>
       <path id="DejaVuSans-53" d="M 3425 4513 
L 3425 3897 
Q 3066 4069 2747 4153 
Q 2428 4238 2131 4238 
Q 1616 4238 1336 4038 
Q 1056 3838 1056 3469 
Q 1056 3159 1242 3001 
Q 1428 2844 1947 2747 
L 2328 2669 
Q 3034 2534 3370 2195 
Q 3706 1856 3706 1288 
Q 3706 609 3251 259 
Q 2797 -91 1919 -91 
Q 1588 -91 1214 -16 
Q 841 59 441 206 
L 441 856 
Q 825 641 1194 531 
Q 1563 422 1919 422 
Q 2459 422 2753 634 
Q 3047 847 3047 1241 
Q 3047 1584 2836 1778 
Q 2625 1972 2144 2069 
L 1759 2144 
Q 1053 2284 737 2584 
Q 422 2884 422 3419 
Q 422 4038 858 4394 
Q 1294 4750 2059 4750 
Q 2388 4750 2728 4690 
Q 3069 4631 3425 4513 
z
" transform="scale(0.015625)"/>
       <path id="DejaVuSans-68" d="M 3513 2113 
L 3513 0 
L 2938 0 
L 2938 2094 
Q 2938 2591 2744 2837 
Q 2550 3084 2163 3084 
Q 1697 3084 1428 2787 
Q 1159 2491 1159 1978 
L 1159 0 
L 581 0 
L 581 4863 
L 1159 4863 
L 1159 2956 
Q 1366 3272 1645 3428 
Q 1925 3584 2291 3584 
Q 2894 3584 3203 3211 
Q 3513 2838 3513 2113 
z
" transform="scale(0.015625)"/>
       <path id="DejaVuSans-69" d="M 603 3500 
L 1178 3500 
L 1178 0 
L 603 0 
L 603 3500 
z
M 603 4863 
L 1178 4863 
L 1178 4134 
L 603 4134 
L 603 4863 
z
" transform="scale(0.015625)"/>
       <path id="DejaVuSans-66" d="M 2375 4863 
L 2375 4384 
L 1825 4384 
Q 1516 4384 1395 4259 
Q 1275 4134 1275 3809 
L 1275 3500 
L 2222 3500 
L 2222 3053 
L 1275 3053 
L 1275 0 
L 697 0 
L 697 3053 
L 147 3053 
L 147 3500 
L 697 3500 
L 697 3744 
Q 697 4328 969 4595 
Q 1241 4863 1831 4863 
L 2375 4863 
z
" transform="scale(0.015625)"/>
       <path id="DejaVuSans-74" d="M 1172 4494 
L 1172 3500 
L 2356 3500 
L 2356 3053 
L 1172 3053 
L 1172 1153 
Q 1172 725 1289 603 
Q 1406 481 1766 481 
L 2356 481 
L 2356 0 
L 1766 0 
Q 1100 0 847 248 
Q 594 497 594 1153 
L 594 3053 
L 172 3053 
L 172 3500 
L 594 3500 
L 594 4494 
L 1172 4494 
z
" transform="scale(0.015625)"/>
       <path id="DejaVuSans-28" d="M 1984 4856 
Q 1566 4138 1362 3434 
Q 1159 2731 1159 2009 
Q 1159 1288 1364 580 
Q 1569 -128 1984 -844 
L 1484 -844 
Q 1016 -109 783 600 
Q 550 1309 550 2009 
Q 550 2706 781 3412 
Q 1013 4119 1484 4856 
L 1984 4856 
z
" transform="scale(0.015625)"/>
       <path id="DejaVuSans-2f" d="M 1625 4666 
L 2156 4666 
L 531 -594 
L 0 -594 
L 1625 4666 
z
" transform="scale(0.015625)"/>
       <path id="DejaVuSans-63" d="M 3122 3366 
L 3122 2828 
Q 2878 2963 2633 3030 
Q 2388 3097 2138 3097 
Q 1578 3097 1268 2742 
Q 959 2388 959 1747 
Q 959 1106 1268 751 
Q 1578 397 2138 397 
Q 2388 397 2633 464 
Q 2878 531 3122 666 
L 3122 134 
Q 2881 22 2623 -34 
Q 2366 -91 2075 -91 
Q 1284 -91 818 406 
Q 353 903 353 1747 
Q 353 2603 823 3093 
Q 1294 3584 2113 3584 
Q 2378 3584 2631 3529 
Q 2884 3475 3122 3366 
z
" transform="scale(0.015625)"/>
       <path id="DejaVuSans-29" d="M 513 4856 
L 1013 4856 
Q 1481 4119 1714 3412 
Q 1947 2706 1947 2009 
Q 1947 1309 1714 600 
Q 1481 -109 1013 -844 
L 513 -844 
Q 928 -128 1133 580 
Q 1338 1288 1338 2009 
Q 1338 2731 1133 3434 
Q 928 4138 513 4856 
z
" transform="scale(0.015625)"/>
      </defs>
      <use xlink:href="#DejaVuSans-52"/>
      <use xlink:href="#DejaVuSans-61" x="67.232422"/>
      <use xlink:href="#DejaVuSans-6d" x="128.511719"/>
      <use xlink:href="#DejaVuSans-61" x="225.923828"/>
      <use xlink:href="#DejaVuSans-6e" x="287.203125"/>
      <use xlink:href="#DejaVuSans-20" x="350.582031"/>
      <use xlink:href="#DejaVuSans-53" x="382.369141"/>
      <use xlink:href="#DejaVuSans-68" x="445.845703"/>
      <use xlink:href="#DejaVuSans-69" x="509.224609"/>
      <use xlink:href="#DejaVuSans-66" x="537.007812"/>
      <use xlink:href="#DejaVuSans-74" x="570.462891"/>
      <use xlink:href="#DejaVuSans-20" x="609.671875"/>
      <use xlink:href="#DejaVuSans-28" x="641.458984"/>
      <use xlink:href="#DejaVuSans-31" x="680.472656"/>
      <use xlink:href="#DejaVuSans-2f" x="744.095703"/>
      <use xlink:href="#DejaVuSans-63" x="777.787109"/>
      <use xlink:href="#DejaVuSans-6d" x="832.767578"/>
      <use xlink:href="#DejaVuSans-29" x="930.179688"/>
     </g>
    </g>
   </g>
   <g id="matplotlib.axis_2">
    <g id="ytick_1">
     <g id="line2d_9">
      <defs>
       <path id="m7bb5333279" d="M 0 0 
L -3.5 0 
" style="stroke: #000000; stroke-width: 0.8"/>
      </defs>
      <g>
       <use xlink:href="#m7bb5333279" x="40.603125" y="245.836359" style="stroke: #000000; stroke-width: 0.8"/>
      </g>
     </g>
     <g id="text_10">
      <!-- 0 -->
      <g transform="translate(27.240625 249.635578) scale(0.1 -0.1)">
       <use xlink:href="#DejaVuSans-30"/>
      </g>
     </g>
    </g>
    <g id="ytick_2">
     <g id="line2d_10">
      <g>
       <use xlink:href="#m7bb5333279" x="40.603125" y="210.263006" style="stroke: #000000; stroke-width: 0.8"/>
      </g>
     </g>
     <g id="text_11">
      <!-- 10 -->
      <g transform="translate(20.878125 214.062225) scale(0.1 -0.1)">
       <use xlink:href="#DejaVuSans-31"/>
       <use xlink:href="#DejaVuSans-30" x="63.623047"/>
      </g>
     </g>
    </g>
    <g id="ytick_3">
     <g id="line2d_11">
      <g>
       <use xlink:href="#m7bb5333279" x="40.603125" y="174.689654" style="stroke: #000000; stroke-width: 0.8"/>
      </g>
     </g>
     <g id="text_12">
      <!-- 20 -->
      <g transform="translate(20.878125 178.488872) scale(0.1 -0.1)">
       <use xlink:href="#DejaVuSans-32"/>
       <use xlink:href="#DejaVuSans-30" x="63.623047"/>
      </g>
     </g>
    </g>
    <g id="ytick_4">
     <g id="line2d_12">
      <g>
       <use xlink:href="#m7bb5333279" x="40.603125" y="139.116301" style="stroke: #000000; stroke-width: 0.8"/>
      </g>
     </g>
     <g id="text_13">
      <!-- 30 -->
      <g transform="translate(20.878125 142.91552) scale(0.1 -0.1)">
       <use xlink:href="#DejaVuSans-33"/>
       <use xlink:href="#DejaVuSans-30" x="63.623047"/>
      </g>
     </g>
    </g>
    <g id="ytick_5">
     <g id="line2d_13">
      <g>
       <use xlink:href="#m7bb5333279" x="40.603125" y="103.542948" style="stroke: #000000; stroke-width: 0.8"/>
      </g>
     </g>
     <g id="text_14">
      <!-- 40 -->
      <g transform="translate(20.878125 107.342167) scale(0.1 -0.1)">
       <defs>
        <path id="DejaVuSans-34" d="M 2419 4116 
L 825 1625 
L 2419 1625 
L 2419 4116 
z
M 2253 4666 
L 3047 4666 
L 3047 1625 
L 3713 1625 
L 3713 1100 
L 3047 1100 
L 3047 0 
L 2419 0 
L 2419 1100 
L 313 1100 
L 313 1709 
L 2253 4666 
z
" transform="scale(0.015625)"/>
       </defs>
       <use xlink:href="#DejaVuSans-34"/>
       <use xlink:href="#DejaVuSans-30" x="63.623047"/>
      </g>
     </g>
    </g>
    <g id="ytick_6">
     <g id="line2d_14">
      <g>
       <use xlink:href="#m7bb5333279" x="40.603125" y="67.969596" style="stroke: #000000; stroke-width: 0.8"/>
      </g>
     </g>
     <g id="text_15">
      <!-- 50 -->
      <g transform="translate(20.878125 71.768814) scale(0.1 -0.1)">
       <use xlink:href="#DejaVuSans-35"/>
       <use xlink:href="#DejaVuSans-30" x="63.623047"/>
      </g>
     </g>
    </g>
    <g id="ytick_7">
     <g id="line2d_15">
      <g>
       <use xlink:href="#m7bb5333279" x="40.603125" y="32.396243" style="stroke: #000000; stroke-width: 0.8"/>
      </g>
     </g>
     <g id="text_16">
      <!-- 60 -->
      <g transform="translate(20.878125 36.195462) scale(0.1 -0.1)">
       <defs>
        <path id="DejaVuSans-36" d="M 2113 2584 
Q 1688 2584 1439 2293 
Q 1191 2003 1191 1497 
Q 1191 994 1439 701 
Q 1688 409 2113 409 
Q 2538 409 2786 701 
Q 3034 994 3034 1497 
Q 3034 2003 2786 2293 
Q 2538 2584 2113 2584 
z
M 3366 4563 
L 3366 3988 
Q 3128 4100 2886 4159 
Q 2644 4219 2406 4219 
Q 1781 4219 1451 3797 
Q 1122 3375 1075 2522 
Q 1259 2794 1537 2939 
Q 1816 3084 2150 3084 
Q 2853 3084 3261 2657 
Q 3669 2231 3669 1497 
Q 3669 778 3244 343 
Q 2819 -91 2113 -91 
Q 1303 -91 875 529 
Q 447 1150 447 2328 
Q 447 3434 972 4092 
Q 1497 4750 2381 4750 
Q 2619 4750 2861 4703 
Q 3103 4656 3366 4563 
z
" transform="scale(0.015625)"/>
       </defs>
       <use xlink:href="#DejaVuSans-36"/>
       <use xlink:href="#DejaVuSans-30" x="63.623047"/>
      </g>
     </g>
    </g>
    <g id="text_17">
     <!-- Intensity (a.u) -->
     <g transform="translate(14.798438 175.331) rotate(-90) scale(0.1 -0.1)">
      <defs>
       <path id="DejaVuSans-49" d="M 628 4666 
L 1259 4666 
L 1259 0 
L 628 0 
L 628 4666 
z
" transform="scale(0.015625)"/>
       <path id="DejaVuSans-65" d="M 3597 1894 
L 3597 1613 
L 953 1613 
Q 991 1019 1311 708 
Q 1631 397 2203 397 
Q 2534 397 2845 478 
Q 3156 559 3463 722 
L 3463 178 
Q 3153 47 2828 -22 
Q 2503 -91 2169 -91 
Q 1331 -91 842 396 
Q 353 884 353 1716 
Q 353 2575 817 3079 
Q 1281 3584 2069 3584 
Q 2775 3584 3186 3129 
Q 3597 2675 3597 1894 
z
M 3022 2063 
Q 3016 2534 2758 2815 
Q 2500 3097 2075 3097 
Q 1594 3097 1305 2825 
Q 1016 2553 972 2059 
L 3022 2063 
z
" transform="scale(0.015625)"/>
       <path id="DejaVuSans-73" d="M 2834 3397 
L 2834 2853 
Q 2591 2978 2328 3040 
Q 2066 3103 1784 3103 
Q 1356 3103 1142 2972 
Q 928 2841 928 2578 
Q 928 2378 1081 2264 
Q 1234 2150 1697 2047 
L 1894 2003 
Q 2506 1872 2764 1633 
Q 3022 1394 3022 966 
Q 3022 478 2636 193 
Q 2250 -91 1575 -91 
Q 1294 -91 989 -36 
Q 684 19 347 128 
L 347 722 
Q 666 556 975 473 
Q 1284 391 1588 391 
Q 1994 391 2212 530 
Q 2431 669 2431 922 
Q 2431 1156 2273 1281 
Q 2116 1406 1581 1522 
L 1381 1569 
Q 847 1681 609 1914 
Q 372 2147 372 2553 
Q 372 3047 722 3315 
Q 1072 3584 1716 3584 
Q 2034 3584 2315 3537 
Q 2597 3491 2834 3397 
z
" transform="scale(0.015625)"/>
       <path id="DejaVuSans-79" d="M 2059 -325 
Q 1816 -950 1584 -1140 
Q 1353 -1331 966 -1331 
L 506 -1331 
L 506 -850 
L 844 -850 
Q 1081 -850 1212 -737 
Q 1344 -625 1503 -206 
L 1606 56 
L 191 3500 
L 800 3500 
L 1894 763 
L 2988 3500 
L 3597 3500 
L 2059 -325 
z
" transform="scale(0.015625)"/>
       <path id="DejaVuSans-2e" d="M 684 794 
L 1344 794 
L 1344 0 
L 684 0 
L 684 794 
z
" transform="scale(0.015625)"/>
       <path id="DejaVuSans-75" d="M 544 1381 
L 544 3500 
L 1119 3500 
L 1119 1403 
Q 1119 906 1312 657 
Q 1506 409 1894 409 
Q 2359 409 2629 706 
Q 2900 1003 2900 1516 
L 2900 3500 
L 3475 3500 
L 3475 0 
L 2900 0 
L 2900 538 
Q 2691 219 2414 64 
Q 2138 -91 1772 -91 
Q 1169 -91 856 284 
Q 544 659 544 1381 
z
M 1991 3584 
L 1991 3584 
z
" transform="scale(0.015625)"/>
      </defs>
      <use xlink:href="#DejaVuSans-49"/>
      <use xlink:href="#DejaVuSans-6e" x="29.492188"/>
      <use xlink:href="#DejaVuSans-74" x="92.871094"/>
      <use xlink:href="#DejaVuSans-65" x="132.080078"/>
      <use xlink:href="#DejaVuSans-6e" x="193.603516"/>
      <use xlink:href="#DejaVuSans-73" x="256.982422"/>
      <use xlink:href="#DejaVuSans-69" x="309.082031"/>
      <use xlink:href="#DejaVuSans-74" x="336.865234"/>
      <use xlink:href="#DejaVuSans-79" x="376.074219"/>
      <use xlink:href="#DejaVuSans-20" x="435.253906"/>
      <use xlink:href="#DejaVuSans-28" x="467.041016"/>
      <use xlink:href="#DejaVuSans-61" x="506.054688"/>
      <use xlink:href="#DejaVuSans-2e" x="567.333984"/>
      <use xlink:href="#DejaVuSans-75" x="599.121094"/>
      <use xlink:href="#DejaVuSans-29" x="662.5"/>
     </g>
    </g>
   </g>
   <g id="line2d_16">
    <path d="M 56.835852 245.283563 
L 57.087525 248.332182 
L 57.339112 246.87149 
L 57.590614 247.324734 
L 57.842029 245.403958 
L 58.093359 248.934154 
L 58.344602 247.598958 
L 58.59576 246.971693 
L 58.846832 250.609805 
L 59.097818 246.537012 
L 59.599541 252.395516 
L 59.850269 247.748014 
L 60.100912 249.19416 
L 60.351477 253.70554 
L 60.601948 250.927226 
L 60.852342 258.692177 
L 61.102641 231.898079 
L 61.85304 118.734904 
L 62.103005 100.176286 
L 62.352883 96.878992 
L 62.602684 97.029112 
L 62.852391 89.388311 
L 63.351538 102.141002 
L 63.600978 96.823142 
L 63.850333 97.750895 
L 64.099687 99.948261 
L 64.34887 98.083862 
L 64.597967 103.781645 
L 64.846978 84.790811 
L 65.09599 84.394524 
L 65.344829 89.195859 
L 65.593583 80.105089 
L 65.84225 79.060655 
L 66.090918 82.74392 
L 66.339414 68.625568 
L 66.836234 79.241724 
L 67.084472 68.879206 
L 67.332625 76.648071 
L 67.580777 75.749488 
L 67.828758 83.378549 
L 68.076739 81.511659 
L 68.324548 81.058455 
L 68.572357 76.446014 
L 68.819994 85.698643 
L 69.067631 88.895976 
L 69.315097 84.259701 
L 69.562562 86.374537 
L 69.809856 85.87402 
L 70.05715 78.844369 
L 70.304358 84.258634 
L 70.551394 82.789454 
L 70.79843 84.15974 
L 71.292245 81.546877 
L 71.538938 72.583459 
L 71.785631 72.744962 
L 72.278759 75.89854 
L 72.771543 67.530265 
L 73.017807 71.817209 
L 73.263984 57.364112 
L 73.510076 64.132298 
L 74.002002 53.227998 
L 74.247836 62.947705 
L 74.493584 55.469119 
L 74.739246 65.892112 
L 74.984823 50.935296 
L 75.230313 55.302992 
L 75.966356 45.616724 
L 76.211589 47.835434 
L 76.45665 56.216871 
L 76.701712 33.52712 
L 76.946601 46.881712 
L 77.436209 34.450604 
L 77.680927 45.305101 
L 77.925473 31.136946 
L 78.170019 40.325187 
L 78.414479 42.633187 
L 78.658767 48.021482 
L 78.903056 50.679167 
L 79.147259 54.875044 
L 79.391375 51.242649 
L 79.635406 57.448776 
L 79.879351 51.913207 
L 80.123211 59.062384 
L 80.366984 61.821809 
L 80.610671 57.582177 
L 80.854273 63.775142 
L 81.097789 65.814918 
L 81.341218 69.86779 
L 81.584648 70.005459 
L 81.827906 72.748875 
L 82.314251 71.351198 
L 82.557251 68.277305 
L 82.800252 71.010761 
L 83.043081 62.121692 
L 83.528567 64.494079 
L 83.771224 61.882283 
L 84.013795 60.809747 
L 84.25628 65.545272 
L 84.498594 56.997706 
L 84.740907 62.08434 
L 85.225277 48.060969 
L 85.709303 55.373071 
L 85.951187 52.266806 
L 86.434784 42.134804 
L 86.676411 38.073394 
L 86.918038 40.05732 
L 87.159492 36.703464 
L 87.642231 33.42787 
L 87.883514 31.609005 
L 88.124625 31.092835 
L 88.365737 36.85892 
L 88.606762 26.733677 
L 88.847616 25.262718 
L 89.08847 20.943758 
L 89.329238 29.073336 
L 89.56992 19.296 
L 89.810517 28.72614 
L 90.051027 43.371689 
L 90.291537 50.070507 
L 90.531876 45.265615 
L 90.772129 46.624517 
L 91.012382 63.159723 
L 91.252463 59.297524 
L 91.492544 62.548217 
L 91.972363 79.715561 
L 92.2121 83.908948 
L 92.451838 90.116498 
L 92.69149 88.495776 
L 92.931055 88.296565 
L 93.170535 101.968472 
L 93.88846 118.784351 
L 94.127597 114.662467 
L 94.366733 124.64933 
L 94.605698 121.591089 
L 94.844577 123.155249 
L 95.083456 127.800773 
L 95.322249 137.069054 
L 95.560871 132.106216 
L 95.799492 133.544447 
L 96.038027 136.878381 
L 96.276477 135.941379 
L 96.514841 141.168883 
L 96.753119 142.363081 
L 96.991311 148.535413 
L 97.705372 148.42478 
L 97.943306 149.135536 
L 98.181069 148.184304 
L 98.418832 154.701342 
L 98.894013 139.153297 
L 99.131519 146.613385 
L 99.368938 150.514715 
L 99.606271 142.793518 
L 99.843519 146.335557 
L 100.08068 146.199311 
L 100.317756 145.824724 
L 100.554746 150.546731 
L 101.028554 143.9774 
L 101.502019 154.00197 
L 101.738665 150.058664 
L 101.975226 152.161049 
L 102.211615 151.415432 
L 102.448003 148.53399 
L 102.684306 149.800402 
L 102.920524 149.642456 
L 103.156741 150.194199 
L 103.392786 147.186472 
L 103.628746 142.279483 
L 103.864705 143.062453 
L 104.100493 145.503496 
L 104.336281 143.43704 
L 104.571983 148.245846 
L 104.807513 140.957933 
L 105.043043 139.715712 
L 105.278487 136.099681 
L 105.513846 129.99138 
L 105.749204 133.012269 
L 105.984391 133.066341 
L 106.219492 139.758756 
L 106.454593 139.927373 
L 106.689522 131.912341 
L 106.924451 137.057315 
L 107.159208 135.204299 
L 107.393966 137.262218 
L 107.628637 146.906865 
L 107.863223 140.304451 
L 108.097723 147.455051 
L 108.332137 143.220043 
L 108.566551 150.129455 
L 108.800793 161.423995 
L 109.035035 161.214468 
L 109.503176 172.409402 
L 109.73716 171.481649 
L 109.971059 174.109452 
L 110.438599 176.393261 
L 110.67224 179.014306 
L 110.905795 179.854193 
L 111.139265 184.012006 
L 111.372734 181.290289 
L 111.83933 190.542918 
L 112.072541 185.323952 
L 112.305667 186.624158 
L 112.538707 191.479565 
L 112.771662 189.573544 
L 113.00453 199.759974 
L 113.237398 188.718005 
L 113.470095 191.784784 
L 113.702706 198.880601 
L 113.935316 193.878987 
L 114.40028 203.432923 
L 114.632634 202.455011 
L 114.864901 205.506138 
L 115.097082 201.084014 
L 115.329178 213.141389 
L 115.561273 202.192124 
L 115.793197 207.959276 
L 116.025121 204.59297 
L 116.256873 213.793092 
L 116.488625 213.978287 
L 116.720291 218.1922 
L 116.951872 214.814119 
L 117.183452 219.021842 
L 117.414861 212.910162 
L 118.108657 231.907719 
L 118.339808 226.375885 
L 118.570873 230.563865 
L 118.801853 224.550759 
L 119.032746 227.308868 
L 119.263554 227.573213 
L 119.494361 227.596656 
L 119.724997 224.414833 
L 119.955633 225.497935 
L 120.186097 231.675852 
L 120.416561 232.276722 
L 120.646939 236.075067 
L 120.877232 237.853307 
L 121.107438 229.666918 
L 121.337645 234.04518 
L 121.56768 228.932827 
L 121.797714 240.298122 
L 122.027577 240.038116 
L 122.25744 240.721836 
L 122.487218 237.131809 
L 122.716909 237.449692 
L 122.946514 238.117973 
L 123.176034 245.776976 
L 123.405553 236.948001 
L 123.634901 237.599491 
L 124.093511 245.761886 
L 124.551777 246.665332 
L 124.780782 244.557397 
L 125.0097 244.814038 
L 125.238619 243.403067 
L 125.467366 247.676145 
L 125.924773 241.84976 
L 126.153348 241.117198 
L 126.381838 251.166172 
L 126.610241 244.604408 
L 126.838558 247.400075 
L 127.066876 246.86476 
L 127.295022 252.365563 
L 127.751227 240.159457 
L 127.979201 246.727429 
L 128.207089 247.354587 
L 128.434891 245.478651 
L 128.662694 245.604798 
L 128.890324 245.004889 
L 129.117955 244.744883 
L 129.345499 240.673527 
L 129.572958 251.178552 
L 129.800331 238.705076 
L 130.254819 249.397714 
L 130.482021 245.169248 
L 130.709136 245.66201 
L 131.163023 243.504462 
L 131.389881 251.946189 
L 131.616739 249.079194 
L 131.843425 244.251691 
L 132.070025 247.948961 
L 132.296625 247.785903 
L 132.523139 247.319522 
L 132.749568 244.526242 
L 132.97591 249.821215 
L 133.202167 245.342405 
L 133.428338 247.748341 
L 133.654508 247.13421 
L 133.880507 245.383115 
L 134.106506 247.900759 
L 134.33242 246.08453 
L 134.558247 246.675538 
L 134.784074 243.487635 
L 135.2353 248.964118 
L 135.460869 247.786444 
L 135.686353 242.456848 
L 136.137064 243.649935 
L 136.36229 247.208139 
L 136.587516 246.140005 
L 136.812571 246.374498 
L 137.037625 246.369938 
L 137.262594 243.517599 
L 137.487477 249.675506 
L 137.712274 241.48371 
L 137.936985 242.539029 
L 138.161696 246.675538 
L 138.386321 242.747141 
L 138.610774 249.370138 
L 138.835228 243.303515 
L 139.283963 246.816992 
L 139.508159 242.64216 
L 139.732355 246.88441 
L 140.180403 242.319951 
L 140.404685 249.758357 
L 140.852046 240.083792 
L 141.076156 242.300193 
L 141.299408 248.912116 
L 141.522659 249.830535 
L 141.970021 243.717244 
L 142.193272 249.147477 
L 142.639775 244.265803 
L 142.863026 249.140202 
L 143.30867 243.818966 
L 143.531921 246.279397 
L 143.977566 247.253516 
L 144.42321 245.958382 
L 144.645602 249.30337 
L 145.090388 248.22829 
L 145.535173 238.538237 
L 145.757566 250.874044 
L 145.979959 248.551584 
L 146.201493 244.214452 
L 146.423885 246.554816 
L 146.645419 246.177784 
L 146.867812 244.839224 
L 147.089346 249.891899 
L 147.31088 242.956771 
L 147.532414 248.22438 
L 147.975482 241.179949 
L 148.197016 245.001958 
L 148.41855 241.173226 
L 148.86076 251.622898 
L 149.082294 241.94965 
L 149.302969 245.665592 
L 149.524503 245.458673 
L 149.745179 244.768333 
L 150.186529 246.57653 
L 150.407205 246.745344 
L 150.62788 248.56396 
L 150.848556 246.638844 
L 151.289906 247.564327 
L 151.510582 245.096949 
L 151.730398 249.058892 
L 151.951074 247.286194 
L 152.170891 241.220325 
L 152.390707 246.871707 
L 152.611383 243.396553 
L 152.831199 249.307062 
L 153.051016 246.903517 
L 153.270833 245.960879 
L 153.49065 240.505443 
L 153.710466 249.261902 
L 153.929424 244.287517 
L 154.149241 246.166385 
L 154.369058 246.126109 
L 154.806974 242.192403 
L 155.026791 245.891074 
L 155.245749 244.593768 
L 155.464707 246.720481 
L 155.683665 250.019323 
L 156.121581 244.840092 
L 156.340539 246.679771 
L 156.559497 246.49283 
L 156.778455 243.331198 
L 156.996555 243.005734 
L 157.215513 239.825209 
L 157.65257 246.244332 
L 157.87067 240.90422 
L 158.306868 245.378665 
L 158.524968 241.676304 
L 158.743067 242.947219 
L 158.961167 236.741106 
L 159.179266 239.659117 
L 159.397365 238.65787 
L 159.614606 235.279113 
L 159.832706 229.878722 
L 160.049946 234.314755 
L 160.268046 223.567298 
L 160.485287 229.652582 
L 160.702527 230.278211 
L 160.920627 230.068826 
L 161.137867 233.056098 
L 161.355108 225.95957 
L 161.572349 230.360528 
L 161.788731 229.895228 
L 162.005972 227.409718 
L 162.223213 227.884338 
L 162.656835 229.947663 
L 162.873217 230.706514 
L 163.30684 222.01477 
L 163.523222 226.378589 
L 163.739604 224.098372 
L 163.955987 225.84634 
L 164.172369 220.594575 
L 164.388751 221.030989 
L 164.605133 218.618191 
L 165.25342 223.217612 
L 165.469803 216.285646 
L 165.900849 220.673477 
L 166.116373 221.202737 
L 166.332755 219.238839 
L 166.548278 220.829395 
L 166.763802 211.626319 
L 166.979325 213.092333 
L 167.194849 211.828234 
L 167.625037 210.714717 
L 167.84056 212.881169 
L 168.055225 207.218995 
L 168.270748 214.953068 
L 168.485413 213.19827 
L 168.700078 204.682259 
L 168.915601 200.788044 
L 169.130266 208.749004 
L 169.344931 209.355886 
L 169.559596 211.620023 
L 169.774261 208.071688 
L 169.988925 209.382566 
L 170.202731 205.354595 
L 170.845867 210.451581 
L 171.059673 206.770415 
L 171.274338 216.01166 
L 171.488144 202.483826 
L 171.70195 210.534965 
L 171.915756 210.401956 
L 172.130421 213.705475 
L 172.343369 210.722116 
L 172.557175 210.226721 
L 172.770981 212.930794 
L 172.984787 213.142598 
L 173.198593 216.553798 
L 173.41154 214.152739 
L 173.625347 208.903393 
L 173.838294 216.695807 
L 174.051241 210.256603 
L 174.477995 224.763736 
L 174.690943 218.081247 
L 174.90389 217.799968 
L 175.116837 223.327035 
L 175.329785 211.421026 
L 175.542732 212.200936 
L 175.967769 222.885214 
L 176.180716 216.188815 
L 176.392805 216.4866 
L 176.605752 218.916758 
L 176.817841 215.415984 
L 177.02993 214.047762 
L 177.667055 221.196441 
L 177.878285 219.464765 
L 178.090374 215.596946 
L 178.302463 215.877371 
L 178.514551 212.361372 
L 178.72664 217.618366 
L 178.93787 219.197503 
L 179.149959 212.237185 
L 179.361189 214.87968 
L 179.572419 214.318973 
L 179.784508 223.005381 
L 179.995738 220.187794 
L 180.206969 209.779564 
L 180.418199 216.681577 
L 180.840659 210.08514 
L 181.051889 211.171336 
L 181.262261 211.070059 
L 181.473491 211.559762 
L 181.684721 213.826531 
L 181.895092 208.857859 
L 182.105464 209.223909 
L 182.316694 208.994816 
L 182.527065 212.795616 
L 182.737437 205.804242 
L 182.947808 208.297223 
L 183.15818 204.859058 
L 183.578923 208.175562 
L 183.789294 200.226341 
L 183.999666 204.607555 
L 184.210037 201.51623 
L 184.41955 202.69193 
L 185.259319 191.60585 
L 185.468831 191.705455 
L 185.678344 197.376204 
L 185.887857 196.048962 
L 186.09737 186.182337 
L 186.306883 185.444545 
L 186.516395 189.803704 
L 186.725908 185.623124 
L 186.934562 192.11277 
L 187.144075 185.675772 
L 187.352729 174.967837 
L 187.562242 179.317747 
L 187.770896 177.499593 
L 187.980409 176.746505 
L 188.606372 179.694113 
L 188.815026 169.091831 
L 189.02368 168.448309 
L 189.232334 176.221442 
L 189.440988 172.846598 
L 189.648784 173.738422 
L 190.066092 170.654924 
L 190.273888 172.96399 
L 190.481683 169.223808 
L 190.690337 170.106027 
L 191.105928 183.492635 
L 191.313724 177.495324 
L 191.729315 187.787406 
L 191.93711 187.831517 
L 192.144906 193.446771 
L 192.352701 188.15061 
L 192.559638 196.133271 
L 192.767434 195.339273 
L 192.975229 199.049218 
L 193.182166 198.369412 
L 193.596898 209.335609 
L 193.803835 220.033085 
L 194.217709 213.08127 
L 194.424646 217.843083 
L 194.631583 219.401374 
L 194.838519 225.226119 
L 195.251534 228.212751 
L 195.458471 225.018762 
L 195.665408 228.344301 
L 195.871486 237.240699 
L 196.284501 239.729908 
L 196.490579 236.168553 
L 196.902736 246.113733 
L 197.108814 240.884975 
L 197.314892 243.954233 
L 197.727049 238.70159 
L 197.933127 243.541807 
L 198.138346 242.806306 
L 198.344424 246.692691 
L 198.550503 246.663379 
L 198.960942 245.29225 
L 199.372239 241.894298 
L 199.577459 244.104047 
L 199.782678 240.737879 
L 199.987898 246.854988 
L 200.193117 237.791196 
L 200.398337 249.712645 
L 200.603557 244.792868 
L 201.013137 249.173641 
L 201.218356 246.14185 
L 201.422717 252.948646 
L 201.627937 244.278613 
L 201.832298 246.885385 
L 202.036659 245.461604 
L 202.241878 252.714894 
L 202.446239 242.714029 
L 202.6506 248.257165 
L 202.854961 245.046684 
L 203.059322 248.015291 
L 203.467185 239.927269 
L 203.671545 242.824 
L 203.875906 248.920476 
L 204.079409 249.218261 
L 204.283769 244.544153 
L 204.487272 245.916911 
L 204.691632 245.271842 
L 204.895135 250.435246 
L 205.302139 242.828451 
L 205.505641 248.51489 
L 205.709143 242.341121 
L 205.912646 252.528845 
L 206.116148 246.010926 
L 206.31965 243.166728 
L 206.523152 244.351783 
L 206.725796 243.992991 
L 206.929298 248.744932 
L 207.131942 242.703933 
L 207.538087 251.987454 
L 207.740731 245.598067 
L 207.943374 244.779297 
L 208.146877 241.112218 
L 208.34952 242.660292 
L 208.552164 246.340192 
L 208.754807 243.377447 
L 209.159236 247.523834 
L 209.361879 249.77408 
L 209.564523 249.560996 
L 209.766308 241.415196 
L 210.170736 246.936629 
L 210.372521 246.847283 
L 210.575165 247.495717 
L 210.776949 248.639735 
L 210.978734 245.535536 
L 211.180519 245.041472 
L 211.382304 244.213044 
L 211.584089 242.461625 
L 211.785874 250.42927 
L 211.987659 244.755633 
L 212.188585 246.073565 
L 212.39037 241.576628 
L 212.592155 247.035853 
L 212.994866 248.455291 
L 213.195792 248.210158 
L 213.396718 248.553975 
L 213.597645 242.609159 
L 213.799429 243.78097 
L 214.000356 241.651225 
L 214.201282 246.39469 
L 214.402208 241.647739 
L 214.602276 241.876903 
L 214.803202 242.813471 
L 215.004128 252.165356 
L 215.205054 244.082333 
L 215.405122 243.228825 
L 215.606048 248.893334 
L 215.806116 247.6768 
L 216.007042 243.847951 
L 216.20711 250.462033 
L 216.407177 247.139528 
L 216.607245 246.788441 
L 216.807312 247.025975 
L 217.00738 245.365311 
L 217.207447 245.739197 
L 217.607582 243.034392 
L 218.007718 248.612489 
L 218.206927 247.185774 
L 218.406994 244.094819 
L 218.606203 248.233067 
L 218.806271 244.422784 
L 219.005479 242.980004 
L 219.204688 240.703587 
L 219.403897 244.826631 
L 219.603106 245.151664 
L 219.803174 242.982825 
L 220.002383 248.043842 
L 220.200733 242.785136 
L 220.399942 252.701127 
L 220.599151 243.641252 
L 220.79836 243.352912 
L 220.99671 241.401322 
L 221.195919 248.932852 
L 221.394269 248.160654 
L 221.791828 244.472939 
L 221.991037 242.980438 
L 222.189387 242.78937 
L 222.387738 246.982657 
L 222.586088 239.315408 
L 222.784438 244.096121 
L 222.982788 245.909421 
L 223.181139 244.162779 
L 223.379489 240.990628 
L 223.57698 252.04487 
L 223.775331 243.29418 
L 223.973681 247.821619 
L 224.369523 247.272516 
L 224.567014 246.948788 
L 224.765365 247.928008 
L 224.962856 249.646087 
L 225.555331 241.865092 
L 225.752823 250.67341 
L 225.950314 249.541786 
L 226.147806 241.645676 
L 226.345297 248.329144 
L 226.739422 240.810734 
L 226.936913 241.312816 
L 227.331038 247.282722 
L 227.527671 248.83775 
L 227.921795 244.582583 
L 228.118428 244.701569 
L 228.315061 242.207592 
L 228.511694 245.401247 
L 228.708327 239.46044 
L 228.90496 244.780492 
L 229.101593 242.863519 
L 229.297367 242.840069 
L 229.690633 244.56782 
L 230.08304 241.464928 
L 230.278815 243.46484 
L 230.671222 245.318849 
L 230.866996 242.327332 
L 231.06277 245.497974 
L 231.259403 242.617842 
L 231.455178 244.595831 
L 231.650952 243.724518 
L 231.845868 241.901341 
L 232.041642 241.971919 
L 232.237416 243.462233 
L 232.43319 250.048208 
L 232.628106 243.706063 
L 232.82388 247.677017 
L 233.018796 244.767572 
L 233.21457 245.768074 
L 233.409486 243.326965 
L 233.604401 246.811674 
L 233.800176 241.637423 
L 233.995091 244.760735 
L 234.190007 245.628247 
L 234.384922 252.777645 
L 234.579838 250.556836 
L 234.774754 242.641402 
L 235.163726 247.079495 
L 235.358642 248.286587 
L 235.553557 237.870774 
L 236.136587 245.026816 
L 236.331503 250.727375 
L 236.913673 246.415209 
L 237.10773 243.601299 
L 237.301787 249.915342 
L 237.495844 249.942022 
L 237.689901 244.748576 
L 238.078015 240.757196 
L 238.272072 240.536392 
L 238.46527 246.953344 
L 238.659327 248.98062 
L 238.852526 247.447949 
L 239.046583 244.60853 
L 239.239781 243.782489 
L 239.432979 246.274295 
L 239.627036 246.866389 
L 239.820234 248.523577 
L 240.013433 237.608918 
L 240.206631 244.004495 
L 240.593028 244.337995 
L 240.978566 245.374215 
L 241.171764 242.640858 
L 241.364962 244.530475 
L 241.557302 244.520597 
L 241.7505 247.354153 
L 241.94284 247.102617 
L 242.328378 247.067008 
L 242.520717 246.571646 
L 242.713916 242.753978 
L 242.906255 253.163474 
L 243.098595 246.643294 
L 243.290935 245.219624 
L 243.483274 240.71063 
L 243.675614 248.649941 
L 243.867095 243.306339 
L 244.059434 248.632464 
L 244.251774 244.944204 
L 244.443255 245.641383 
L 244.635595 245.031704 
L 245.019415 248.074784 
L 245.210896 241.055549 
L 245.402377 244.231716 
L 245.594717 245.508612 
L 245.786198 241.210116 
L 245.977679 240.58559 
L 246.16916 252.172329 
L 246.552122 245.458022 
L 246.743603 244.825112 
L 246.934225 249.407497 
L 247.317187 242.676901 
L 247.507809 247.257536 
L 247.69929 242.952755 
L 247.889913 244.693533 
L 248.081394 249.752274 
L 248.272016 246.669024 
L 248.462638 248.340431 
L 248.653261 247.459023 
L 248.843883 248.881612 
L 249.034505 239.997278 
L 249.225127 245.456503 
L 249.41575 245.931133 
L 249.606372 245.808784 
L 249.796994 250.90485 
L 249.987617 243.447904 
L 250.368003 247.384444 
L 250.558625 246.857485 
L 250.748389 245.494499 
L 250.939011 242.702848 
L 251.128775 242.870032 
L 251.318538 252.04366 
L 251.508302 240.81671 
L 251.698924 239.070699 
L 251.888688 247.991844 
L 252.078452 248.133298 
L 252.268215 250.760031 
L 252.457979 245.912026 
L 252.646884 245.802379 
L 252.836648 248.060021 
L 253.026411 248.653199 
L 253.40508 236.309459 
L 253.594844 249.578142 
L 253.783749 243.040471 
L 253.972654 241.834997 
L 254.162417 248.451925 
L 254.351322 240.480044 
L 254.540227 246.618759 
L 254.729132 243.88345 
L 254.918896 246.835992 
L 255.107801 242.669843 
L 255.296706 241.227298 
L 255.484752 245.235365 
L 255.673657 245.326771 
L 256.239514 248.425437 
L 256.428419 244.233996 
L 256.616465 243.714963 
L 256.80537 242.006959 
L 256.993416 254.525044 
L 257.370368 241.369591 
L 257.558414 245.577766 
L 257.74646 240.770998 
L 257.934507 248.293318 
L 258.122553 245.733552 
L 258.310599 240.325015 
L 258.498646 242.739649 
L 258.686692 251.673377 
L 258.874738 244.619277 
L 259.061926 249.086682 
L 259.249972 245.146453 
L 259.438019 250.458796 
L 259.625206 246.124806 
L 259.813253 245.861654 
L 260.00044 249.778527 
L 260.187628 242.659641 
L 260.375674 247.298029 
L 260.562862 242.703716 
L 260.937237 250.454136 
L 261.311613 246.437136 
L 261.498801 247.673214 
L 261.872317 239.917273 
L 262.059505 251.914707 
L 262.246693 243.270624 
L 262.433022 240.072836 
L 262.806538 242.191086 
L 262.993726 248.456269 
L 263.180055 240.959359 
L 263.366384 250.45282 
L 263.552713 247.017832 
L 263.739901 245.827891 
L 264.112559 249.235194 
L 264.298888 240.433905 
L 264.485217 243.720716 
L 264.670687 236.684652 
L 264.857016 244.938559 
L 265.043345 240.972913 
L 265.415145 248.08325 
L 265.601474 245.404502 
L 265.786944 248.293535 
L 266.158743 245.636823 
L 266.344214 248.866088 
L 266.529684 241.655672 
L 266.716013 253.650259 
L 267.086954 242.600692 
L 267.272424 242.07992 
L 267.457895 250.090541 
L 267.642506 248.557881 
L 268.013447 242.18109 
L 268.198917 247.127263 
L 268.383529 245.065139 
L 268.568999 248.042323 
L 268.939082 243.298631 
L 269.123693 254.924995 
L 269.308305 244.68702 
L 269.493775 246.523878 
L 269.678387 245.8521 
L 269.862999 243.384722 
L 270.04761 244.459041 
L 270.232222 242.435568 
L 270.416834 243.125801 
L 270.601446 248.190401 
L 270.786057 246.721243 
L 270.96981 240.379087 
L 271.154422 251.943699 
L 271.522787 240.887038 
L 271.707398 244.291533 
L 271.891151 250.174245 
L 272.259516 238.369939 
L 272.443269 254.385027 
L 272.627881 246.793218 
L 272.995387 248.35259 
L 273.362893 248.448994 
L 273.546646 250.586255 
L 273.730399 243.417396 
L 273.913294 244.646637 
L 274.097047 244.201319 
L 274.2808 244.977095 
L 274.463694 248.078366 
L 274.647447 244.974274 
L 274.830342 246.104614 
L 275.014095 242.81727 
L 275.196989 246.391542 
L 275.563636 241.805791 
L 275.746531 250.206368 
L 276.11232 237.892189 
L 276.295214 245.283784 
L 276.478108 239.970562 
L 276.661003 246.855098 
L 276.843897 238.784226 
L 277.026792 253.822328 
L 277.391722 239.038149 
L 277.574616 248.466905 
L 277.756652 246.856944 
L 277.939546 249.624174 
L 278.121582 243.725603 
L 278.304476 242.56085 
L 278.486512 245.656147 
L 278.668548 244.355583 
L 278.850583 240.675341 
L 279.032619 245.643771 
L 279.214655 243.964219 
L 279.396691 249.036527 
L 279.578726 249.595929 
L 279.760762 239.239636 
L 279.942798 241.090482 
L 280.306869 250.939712 
L 280.488046 246.736874 
L 280.670082 253.111145 
L 280.851259 245.192809 
L 281.033295 246.043928 
L 281.214472 248.125156 
L 281.396508 247.631312 
L 281.577685 241.48805 
L 281.940039 251.726132 
L 282.121216 241.950397 
L 282.302393 244.498666 
L 282.48357 242.759734 
L 282.845924 249.087226 
L 283.027101 244.14671 
L 283.208278 251.165639 
L 283.389455 243.70226 
L 283.569774 246.066183 
L 283.750951 242.131821 
L 283.931269 243.994833 
L 284.112446 243.118637 
L 284.473942 244.590619 
L 284.65426 245.030726 
L 284.834579 244.984587 
L 285.195215 248.534431 
L 285.376392 249.048686 
L 285.556711 246.826003 
L 285.736171 241.15519 
L 286.096807 244.887098 
L 286.277126 246.123069 
L 286.457444 246.16302 
L 286.817222 248.670243 
L 287.177001 244.571296 
L 287.35646 249.574442 
L 287.536779 248.275731 
L 287.716239 248.874555 
L 288.076017 241.909915 
L 288.255476 248.529223 
L 288.434936 244.916521 
L 288.793856 245.515235 
L 288.973315 248.598591 
L 289.151917 244.156916 
L 289.331376 243.463862 
L 289.690296 246.707454 
L 290.048357 246.034809 
L 290.226958 247.320607 
L 290.406417 245.620322 
L 290.585019 246.271471 
L 290.764478 243.821029 
L 290.943079 248.586866 
L 291.12168 238.870634 
L 291.300282 242.538919 
L 291.478883 236.825771 
L 291.657484 236.673126 
L 291.836085 239.472713 
L 292.014686 246.292751 
L 292.193287 243.615411 
L 292.371888 249.347228 
L 292.728232 245.011292 
L 292.906833 242.889139 
L 293.085434 246.094301 
L 293.263176 239.568263 
L 293.441777 251.898841 
L 293.61952 244.695813 
L 293.797262 242.226695 
L 293.975863 237.140168 
L 294.331348 251.01342 
L 294.509091 248.392543 
L 294.686833 243.630178 
L 294.864575 253.682738 
L 295.042318 247.405503 
L 295.22006 247.409413 
L 295.397803 251.599242 
L 295.575545 236.698312 
L 295.752429 244.436135 
L 295.930171 244.727513 
L 296.107914 245.523268 
L 296.284798 249.86465 
L 296.639424 239.346143 
L 296.817166 246.571753 
L 296.99405 243.467334 
L 297.170934 248.210809 
L 297.52556 250.680347 
L 297.702444 247.286304 
L 297.879328 249.426493 
L 298.233095 242.371735 
L 298.409979 241.836954 
L 298.586004 248.550172 
L 298.762888 243.870316 
L 298.939771 248.883455 
L 299.116655 243.19767 
L 299.29268 248.715403 
L 299.469564 240.684911 
L 299.645589 245.789678 
L 299.822473 246.082142 
L 300.174523 245.215825 
L 300.351407 251.089405 
L 300.527432 243.770437 
L 300.703457 252.333761 
L 300.879482 248.636804 
L 301.055507 241.940757 
L 301.231533 241.49954 
L 301.407558 238.659577 
L 301.583583 247.297378 
L 301.759608 246.782578 
L 301.934774 245.363899 
L 302.1108 255.948618 
L 302.286825 241.752076 
L 302.461991 242.899779 
L 302.638016 245.453138 
L 302.813183 245.011726 
L 302.989208 242.290315 
L 303.164374 250.098047 
L 303.340399 243.535948 
L 303.515566 248.424025 
L 303.690732 247.244182 
L 303.865899 249.360259 
L 304.041065 252.995745 
L 304.216232 238.824602 
L 304.391398 241.94748 
L 304.566564 249.203277 
L 304.741731 231.186434 
L 304.916897 252.523082 
L 305.092064 243.134051 
L 305.266372 244.641315 
L 305.441538 244.357973 
L 305.616705 247.620455 
L 305.791012 246.840769 
L 305.966179 237.512977 
L 306.314794 250.912463 
L 306.489961 244.581826 
L 306.664269 249.622965 
L 306.838576 240.542688 
L 307.012884 240.226797 
L 307.187192 254.249421 
L 307.535808 245.270753 
L 307.710115 247.171879 
L 307.884423 239.341341 
L 308.233039 244.658468 
L 308.407347 243.502943 
L 308.755104 250.887917 
L 308.928553 247.031837 
L 309.27631 252.457947 
L 309.450617 241.816108 
L 309.624067 250.734205 
L 309.797516 235.640716 
L 309.971823 245.199322 
L 310.145273 248.461804 
L 310.318722 239.381539 
L 310.492171 248.789008 
L 310.66562 244.906422 
L 310.839069 245.876092 
L 311.012518 240.433692 
L 311.358558 248.377997 
L 311.532007 242.318539 
L 311.705456 240.520348 
L 311.878047 248.675671 
L 312.051496 242.001978 
L 312.224086 246.942164 
L 312.397535 240.729626 
L 312.570126 250.044615 
L 312.916165 246.483168 
L 313.088756 243.0928 
L 313.261346 248.827872 
L 313.434796 250.072434 
L 313.607386 241.40118 
L 313.952567 248.549521 
L 314.125157 240.807817 
L 314.296889 246.571753 
L 314.46948 246.753049 
L 314.64207 249.724598 
L 314.986393 250.762664 
L 315.330715 245.951868 
L 315.503305 247.000789 
L 315.847628 241.95029 
L 316.191091 246.279073 
L 316.363682 237.206619 
L 316.535414 239.617959 
L 316.707145 244.028162 
L 316.878877 244.153878 
L 317.050609 249.126417 
L 317.222341 244.361879 
L 317.394073 258.585777 
L 317.908409 241.749906 
L 318.080141 241.756629 
L 318.251014 239.970562 
L 318.422746 245.996595 
L 318.593619 240.033776 
L 318.765351 246.509222 
L 319.107956 247.568998 
L 319.278829 250.33621 
L 319.449703 246.690518 
L 319.620576 238.648514 
L 319.963181 244.11892 
L 320.134054 242.217589 
L 320.4758 251.197975 
L 320.816688 240.110401 
L 320.987561 237.224406 
L 321.329307 253.014635 
L 321.499322 248.331748 
L 321.670195 240.559621 
L 321.840209 247.36729 
L 322.011083 245.275965 
L 322.181097 254.207089 
L 322.351112 243.923726 
L 322.521985 241.224238 
L 322.691999 245.515669 
L 322.862014 244.466749 
L 323.032028 240.567234 
L 323.202043 240.220252 
L 323.542072 249.948888 
L 323.712086 245.557791 
L 323.882101 245.786855 
L 324.052115 245.181952 
L 324.392144 251.430945 
L 324.5613 250.589813 
L 324.731315 240.15099 
L 324.90047 238.720159 
L 325.070485 244.281327 
L 325.239641 245.095537 
L 325.409655 239.028473 
L 325.747967 253.681422 
L 325.917981 244.884277 
L 326.087137 251.279616 
L 326.256293 245.575812 
L 326.425449 251.963122 
L 326.594605 239.848546 
L 326.932916 246.319673 
L 327.102072 243.798664 
L 327.271228 244.950063 
L 327.440384 238.98333 
L 327.777837 255.63575 
L 327.946993 244.462189 
L 328.11529 252.494872 
L 328.284446 236.09666 
L 328.452743 244.240727 
L 328.621899 245.26663 
L 328.790196 242.850492 
L 328.958493 254.087669 
L 329.12679 241.491287 
L 329.295946 252.013921 
L 329.632541 241.421386 
L 329.800838 244.394667 
L 329.969135 250.446737 
L 330.305729 238.941212 
L 330.474027 255.178491 
L 330.641465 245.466816 
L 330.809762 245.120289 
L 330.978059 242.753437 
L 331.146357 252.121388 
L 331.313795 240.022464 
L 331.482092 249.619514 
L 331.649531 242.848535 
L 331.985267 249.453386 
L 332.152705 236.62343 
L 332.488441 247.237451 
L 332.655879 238.913642 
L 332.823318 248.032121 
L 333.325633 250.725312 
L 333.493072 250.989977 
L 333.66051 250.825166 
L 333.827949 242.868293 
L 333.994529 248.30352 
L 334.495986 240.733326 
L 334.663424 240.330991 
L 334.830863 244.547085 
L 334.997443 244.504528 
L 335.164023 244.576831 
L 335.331461 244.405303 
L 335.664621 250.092817 
L 335.832059 245.398206 
L 335.998639 248.16869 
L 336.165219 246.665115 
L 336.331799 243.155765 
L 336.498379 243.791717 
L 336.664959 252.604296 
L 336.831538 237.221809 
L 336.99726 243.889856 
L 337.16384 258.023647 
L 337.330419 245.116813 
L 337.496999 248.094651 
L 337.66272 238.261832 
L 337.995022 250.954795 
L 338.161601 250.239166 
L 338.327323 243.116684 
L 338.493902 247.729231 
L 338.659624 237.397008 
L 338.991925 241.741439 
L 339.157646 246.457331 
L 339.323367 247.730754 
L 339.489088 241.174507 
L 339.65481 242.559762 
L 339.986252 235.596214 
L 340.151973 245.508938 
L 340.317694 237.276094 
L 340.483416 243.268884 
L 340.648278 237.63848 
L 340.813999 243.269535 
L 340.979721 239.767118 
L 341.144583 246.222184 
L 341.310304 239.749331 
L 341.475167 239.558267 
L 341.640888 237.585476 
L 341.805751 248.297878 
L 341.970613 239.441871 
L 342.136334 238.883867 
L 342.301197 243.303191 
L 342.466059 235.269223 
L 342.795784 244.569016 
L 342.960647 242.456197 
L 343.12551 237.731824 
L 343.455235 242.982718 
L 343.620097 240.514052 
L 343.78496 243.378749 
L 343.948964 240.667978 
L 344.113826 243.408929 
L 344.278689 248.993537 
L 344.442693 261.216 
L 344.607555 237.74399 
L 344.771559 247.945489 
L 344.936422 251.030353 
L 345.100425 241.068996 
L 345.429292 250.565943 
L 345.593296 247.795455 
L 345.7573 250.533358 
L 346.085307 249.65555 
L 346.249311 246.244115 
L 346.577319 244.743798 
L 346.741323 241.318685 
L 346.905327 242.157647 
L 347.069331 238.723645 
L 347.39648 243.700307 
L 347.560484 237.289114 
L 347.887633 252.794934 
L 348.050778 240.443261 
L 348.214782 241.151277 
L 348.541931 235.566261 
L 348.705076 244.921839 
L 348.868222 229.846599 
L 349.031367 243.581976 
L 349.195371 238.45962 
L 349.521661 251.32675 
L 349.684806 244.770503 
L 349.847952 250.305831 
L 350.173383 240.733753 
L 350.336529 244.006018 
L 350.499674 249.52809 
L 350.825106 244.910114 
L 350.988251 248.76252 
L 351.150537 247.987391 
L 351.313683 244.33257 
L 351.639114 248.919064 
L 351.801401 241.29631 
L 351.964546 250.211383 
L 352.126833 252.914353 
L 352.613693 237.261331 
L 352.775979 255.680929 
L 352.938266 251.672168 
L 353.100552 244.564455 
L 353.262839 245.861111 
L 353.425125 242.756692 
L 353.587412 244.857135 
L 353.749699 236.510307 
L 353.911126 239.89134 
L 354.073413 245.633349 
L 354.2357 243.776082 
L 354.397127 233.964322 
L 354.720842 242.29813 
L 354.883129 237.321699 
L 355.044556 245.866105 
L 355.691127 238.988311 
L 355.852555 246.43931 
L 356.176269 242.110548 
L 356.499125 251.391672 
L 356.821122 242.624249 
L 356.98255 237.579642 
L 357.305406 247.513415 
L 357.465975 248.025604 
L 357.787972 243.224158 
L 357.9494 241.587051 
L 358.109969 259.9847 
L 358.271397 243.994293 
L 358.431967 246.852494 
L 358.593394 246.070417 
L 358.753964 249.678139 
L 358.914533 250.615425 
L 359.075102 246.576096 
L 359.235671 252.737376 
L 359.397099 239.22651 
L 359.557669 241.154123 
L 359.718238 248.409913 
L 359.878807 240.353794 
L 360.038518 239.871775 
L 360.199087 252.538272 
L 360.520225 235.61987 
L 360.840505 249.621897 
L 361.001075 246.848585 
L 361.160785 246.553731 
L 361.321354 245.062535 
L 361.481065 251.149773 
L 361.801345 245.11486 
L 361.961914 245.52088 
L 362.121625 246.865087 
L 362.281335 245.235365 
L 362.441046 247.509288 
L 362.600756 241.948547 
L 362.920178 248.706936 
L 363.079888 242.410382 
L 363.239599 251.521479 
L 363.399309 239.518532 
L 363.55902 247.192725 
L 363.718731 239.563674 
L 363.878441 250.544884 
L 364.037293 237.330166 
L 364.197004 239.168952 
L 364.356714 248.116579 
L 364.515566 242.947543 
L 364.675277 242.397789 
L 364.834129 250.143189 
L 364.993839 248.990065 
L 365.312402 235.523039 
L 365.630106 241.957903 
L 365.788958 240.781101 
L 365.94781 238.176918 
L 366.266372 247.778301 
L 366.425224 247.889034 
L 366.584076 245.861111 
L 366.742069 230.548746 
L 367.059773 240.584594 
L 367.218625 241.624616 
L 367.377477 245.862631 
L 367.53547 242.863953 
L 367.694322 234.762908 
L 367.853174 242.310506 
L 368.011167 234.676927 
L 368.170019 237.949178 
L 368.328013 235.645056 
L 368.486006 242.231035 
L 368.644858 233.873112 
L 368.802851 240.808457 
L 368.960844 232.681547 
L 369.119696 230.480374 
L 369.277689 239.541334 
L 369.593676 233.34595 
L 369.909663 234.965036 
L 370.067656 243.300584 
L 370.225649 230.407413 
L 370.383642 234.349723 
L 370.540777 234.732066 
L 370.856764 227.070028 
L 371.013898 228.156296 
L 371.171891 227.223741 
L 371.329885 231.150861 
L 371.487019 240.174255 
L 371.645013 229.629673 
L 371.802147 233.074561 
L 371.959282 230.825827 
L 372.117275 226.914359 
L 372.27441 232.249686 
L 372.431544 225.013426 
L 372.589538 227.023783 
L 372.746672 223.577401 
L 372.903807 227.361836 
L 373.060941 238.021676 
L 373.218076 231.248332 
L 373.375211 217.595243 
L 373.532345 223.149667 
L 373.68948 237.120639 
L 373.845756 231.405744 
L 374.00289 218.573795 
L 374.160025 217.123648 
L 374.31716 229.900208 
L 374.473436 225.599675 
L 374.63057 230.427406 
L 374.786846 227.901377 
L 374.943981 232.725195 
L 375.100257 226.281865 
L 375.257391 225.884119 
L 375.413667 231.887336 
L 375.569943 227.928306 
L 375.727078 233.808866 
L 375.883354 232.810109 
L 376.03963 230.505133 
L 376.352182 219.130056 
L 376.508458 225.830901 
L 376.664734 223.636666 
L 376.82101 223.100362 
L 376.977286 228.72796 
L 377.133562 221.90339 
L 377.289837 228.12026 
L 377.446113 219.513287 
L 377.602389 222.168909 
L 377.757807 227.075684 
L 377.914083 208.146748 
L 378.0695 215.184082 
L 378.381193 218.699725 
L 378.537469 218.735547 
L 378.692886 215.449423 
L 378.849162 217.852972 
L 379.159997 216.488556 
L 379.316273 212.720627 
L 379.47169 212.626607 
L 379.627108 217.392653 
L 379.937942 205.812068 
L 380.093359 210.80952 
L 380.248777 210.70657 
L 380.404194 210.957363 
L 380.559611 218.321082 
L 380.715029 207.659037 
L 381.180422 220.484476 
L 381.33498 214.32125 
L 381.490398 222.266843 
L 381.490398 222.266843 
" clip-path="url(#p3f4499423f)" style="fill: none; stroke: #1f77b4; stroke-width: 1.5; stroke-linecap: square"/>
   </g>
   <g id="patch_3">
    <path d="M 40.603125 273.312 
L 40.603125 7.2 
" style="fill: none; stroke: #000000; stroke-width: 0.8; stroke-linejoin: miter; stroke-linecap: square"/>
   </g>
   <g id="patch_4">
    <path d="M 397.723125 273.312 
L 397.723125 7.2 
" style="fill: none; stroke: #000000; stroke-width: 0.8; stroke-linejoin: miter; stroke-linecap: square"/>
   </g>
   <g id="patch_5">
    <path d="M 40.603125 273.312 
L 397.723125 273.312 
" style="fill: none; stroke: #000000; stroke-width: 0.8; stroke-linejoin: miter; stroke-linecap: square"/>
   </g>
   <g id="patch_6">
    <path d="M 40.603125 7.2 
L 397.723125 7.2 
" style="fill: none; stroke: #000000; stroke-width: 0.8; stroke-linejoin: miter; stroke-linecap: square"/>
   </g>
  </g>
 </g>
 <defs>
  <clipPath id="p3f4499423f">
   <rect x="40.603125" y="7.2" width="357.12" height="266.112"/>
  </clipPath>
 </defs>
</svg>
